<?xml version="1.0" encoding="UTF-8"?>
<svg version="1.1" xmlns="http://www.w3.org/2000/svg" width="1500" height="1000">
<path d="M0 0 C2.375 2.5 2.375 2.5 4 5 C5.1446875 4.7525 5.1446875 4.7525 6.3125 4.5 C9 4 9 4 12 4 C13.1875 5.6875 13.1875 5.6875 14 8 C12.6875 10.4375 12.6875 10.4375 11 13 C9.83789781 15.39351495 9.83789781 15.39351495 10 18 C11.64633943 20.0167658 13.31267723 22.01739574 15 24 C15.22374708 27.57995331 12.68466466 29.99237669 10.40234375 32.60546875 C7.97852253 35.01578679 5.49246289 37 2 37 C1.67 38.65 1.34 40.3 1 42 C2.16015625 42.23783203 2.16015625 42.23783203 3.34375 42.48046875 C4.3853125 42.71378906 5.426875 42.94710937 6.5 43.1875 C8.03140625 43.51814453 8.03140625 43.51814453 9.59375 43.85546875 C12.59481361 44.86385366 14.23087563 45.7792408 16.75 47.5546875 C21.52385318 50.67741214 25.91884956 50.75059727 31.5 50.9375 C41.47171125 51.57878376 53.56065272 52.52908978 61.01953125 60.03125 C62.2948762 62.00123528 63.17553134 63.81028217 64 66 C64.94178572 68.34150395 65.54118544 69.67639166 67.6171875 71.140625 C70.32981922 72.11895119 73.06704083 72.71872085 75.88964844 73.29345703 C83.00552585 74.74678717 88.86751801 76.42960783 94.921875 80.6328125 C97.25436119 82.16734289 99.31085924 83.23045256 102 84 C103.93097685 83.39603267 103.93097685 83.39603267 105.5625 82.125 C108.53976867 80.04847543 109.01313062 80 113 80 C112.67 79.34 112.34 78.68 112 78 C111.92818179 75.28239892 111.90700494 72.59140612 111.9375 69.875 C111.94201172 69.12089844 111.94652344 68.36679688 111.95117188 67.58984375 C111.96296501 65.72652873 111.98090058 63.86325445 112 62 C113.093125 61.608125 114.18625 61.21625 115.3125 60.8125 C119.78416399 59.16044652 124.02270432 57.10894902 128.2890625 54.98828125 C131.38235329 53.86061184 133.7307418 53.75732397 137 54 C137.66 54.33 138.32 54.66 139 55 C140.62473543 55.05094989 142.24981646 55.09124248 143.875 55.125 C148.54903017 55.515625 148.54903017 55.515625 150.4765625 57.5859375 C151.41540348 59.34178513 152.21567282 61.16990324 153 63 C155.6313423 64.31567115 157.8128755 64.1846401 160.75 64.3125 C166.05208716 64.7033792 168.68516115 65.83578485 173 69 C177.90964944 70.73757141 182.77151916 71.03134945 187.9375 71.1875 C194.86714461 71.58886239 200.61673121 73.90203757 206.90795898 76.64916992 C207.64087158 76.96345947 208.37378418 77.27774902 209.12890625 77.6015625 C209.77931885 77.89369629 210.42973145 78.18583008 211.09985352 78.48681641 C214.58626271 79.42841118 217.08692733 77.96227682 220.3125 76.5625 C231.43244043 71.77345002 243.27135101 70.73003104 255 74 C255 74.99 255 75.98 255 77 C256.32 77.33 257.64 77.66 259 78 C259 78.99 259 79.98 259 81 C259.76183594 80.91105469 260.52367187 80.82210937 261.30859375 80.73046875 C264 81 264 81 265.66015625 82.80078125 C270.29589691 91.10379308 273.69339104 99.45405784 275.55859375 108.796875 C275.87100086 110.35614588 276.22123102 111.90805933 276.59765625 113.453125 C276.79230469 114.25234375 276.98695313 115.0515625 277.1875 115.875 C277.45626953 116.95394531 277.45626953 116.95394531 277.73046875 118.0546875 C278 120 278 120 277 123 C276.34 123 275.68 123 275 123 C279.66752534 132.55327263 284.51735709 141.88076863 290 151 C294 157.71386431 294 157.71386431 294 160 C298.455 161.485 298.455 161.485 303 163 C302.814375 164.010625 302.62875 165.02125 302.4375 166.0625 C302.00231753 169.97914227 302.29146979 173.14244663 303 177 C304.09828125 177.38865234 304.09828125 177.38865234 305.21875 177.78515625 C313.01845056 181.19204793 317.98128179 187.37249674 321.14453125 195.11328125 C322.28862344 198.97393938 322.65084472 202.67269318 322.76171875 206.6875 C322.84667089 209.2753763 322.84667089 209.2753763 325 212 C325.144375 213.051875 325.28875 214.10375 325.4375 215.1875 C326.44324269 222.63104865 326.44324269 222.63104865 330.765625 228.4765625 C333.78214259 230.35325092 336.89903429 231.94848688 340.0625 233.5625 C346.9416427 239.27072479 350.40877326 248.17932392 353.078125 256.52734375 C353.94270952 259.10045537 353.94270952 259.10045537 355.609375 261.56640625 C357 264 357 264 357 268 C357.66 268 358.32 268 359 268 C359.33 266.35 359.66 264.7 360 263 C362.96175123 263.61277612 364.38058783 264.25372522 367 266 C367 266.99 367 267.98 367 269 C365.35 269.66 363.7 270.32 362 271 C366.17458656 275.53240827 369.15998982 277.56307536 375.25 278.5 C380.89343561 279.99494983 384.65658376 285.51178592 388 290 C388 290.66 388 291.32 388 292 C388.55558594 292.23074219 389.11117187 292.46148437 389.68359375 292.69921875 C392.62668155 294.35191392 394.68443518 296.42008788 397.0625 298.8125 C397.91972656 299.66457031 398.77695313 300.51664062 399.66015625 301.39453125 C401.86671661 303.85158594 403.5538414 306.03537488 405 309 C404.6875 312.625 404.6875 312.625 404 316 C404 316.99 404 317.98 404 319 C406.61893634 321.4403725 408.8916235 323.47841106 412.125 325 C414.81046131 326.43224603 416.21725331 328.58055807 418 331 C422.22234885 329.64350743 422.22234885 329.64350743 426.25 327.8125 C429.25423113 326.92488626 430.70419656 327.18926672 433.75 327.6875 C437.86697115 328.22713245 439.830448 327.87582919 443.3125 325.625 C448.09224044 322.54074681 452.38297751 322.33004424 457.984375 322.140625 C460.77365016 322.01055517 463.27734806 321.58309746 466 321 C467.6396875 320.9071875 467.6396875 320.9071875 469.3125 320.8125 C472.99331918 320.00147204 474.2194073 319.27338901 477.0625 317 C480.36529946 314.37176074 482.60249119 312.71320595 487 313 C489.55420797 314.62282187 491.18640943 315.67523617 493 318 C493.42806449 320.99037957 493.54108449 323.12855078 493.3125 326.0625 C492.87298236 332.10530904 492.87298236 332.10530904 494 338 C493.01 338 492.02 338 491 338 C491.02320313 338.98742187 491.04640625 339.97484375 491.0703125 340.9921875 C491.08835937 342.27351563 491.10640625 343.55484375 491.125 344.875 C491.14820313 346.15117187 491.17140625 347.42734375 491.1953125 348.7421875 C491 352 491 352 489 354 C488.02965962 356.44923265 487.12354422 358.89170808 486.25 361.375 C483.98502772 367.62986757 481.38385008 373.5384695 478.3125 379.44921875 C477.22176989 381.56900077 476.23171795 383.67749459 475.3125 385.875 C474.00247384 388.99410992 472.51249851 391.97500297 471 395 C470.505 396.175625 470.01 397.35125 469.5 398.5625 C468 402 468 402 466.4375 404.5625 C464.85081177 407.03738163 464.85081177 407.03738163 464 410.25 C463.67 411.1575 463.34 412.065 463 413 C462.01 413.33 461.02 413.66 460 414 C459.72027344 414.56976563 459.44054688 415.13953125 459.15234375 415.7265625 C457.28171566 419.41708977 454.07393198 421.96883201 451.07617188 424.7578125 C447.79316899 427.91233079 445.93353084 430.91180137 444 435 C440.56420658 438.21171994 437.01063261 440.59362043 433 443 C431.515 444.2375 431.515 444.2375 430 445.5 C427.38328585 447.68059512 424.91295792 449.27016428 422 451 C420.10680675 452.24356812 418.2320767 453.51561586 416.375 454.8125 C415.43398437 455.45832031 414.49296875 456.10414063 413.5234375 456.76953125 C410.69541906 459.26921938 409.6232173 461.63628091 408 465 C407.01 465.33 406.02 465.66 405 466 C403.94615572 467.85180503 403.94615572 467.85180503 403 470 C402.04872076 471.33285086 401.06818529 472.64520719 400.0625 473.9375 C398.37936537 476.12517139 396.93284709 478.1251486 395.625 480.5625 C393.10268789 484.34596816 389.78603356 487.47839991 386 490 C384.68 490 383.36 490 382 490 C382.185625 491.11375 382.185625 491.11375 382.375 492.25 C382 495 382 495 379.25 497.3125 C376 499 376 499 372 499 C371.87093262 499.57886963 371.74186523 500.15773926 371.60888672 500.75415039 C371.01006785 502.96286523 370.23228227 504.86619223 369.2578125 506.93359375 C368.91363281 507.66513672 368.56945313 508.39667969 368.21484375 509.15039062 C367.67537109 510.28250977 367.67537109 510.28250977 367.125 511.4375 C366.77308594 512.18837891 366.42117188 512.93925781 366.05859375 513.71289062 C364.59302723 516.81019385 363.1245207 519.79626542 361.3359375 522.72265625 C359.92111203 525.13447862 359.20812516 527.30238035 358.5 530 C357.64962409 533.07408617 356.96221075 535.05733541 355.1875 537.75 C353.71960744 540.00689535 353.71960744 540.00689535 354.375 542.875 C356.26340469 546.50654749 358.54864873 548.65275423 361.63671875 551.2890625 C362.08660156 551.85367188 362.53648437 552.41828125 363 553 C362.76953125 554.8359375 362.76953125 554.8359375 362 557 C361.2149251 561.24174795 360.72170516 565.45085599 360.375 569.75 C360.27960937 570.87921875 360.18421875 572.0084375 360.0859375 573.171875 C359.77778747 575.95071948 359.77778747 575.95071948 361 578 C361.12855717 579.74837746 361.22877269 581.49890308 361.3125 583.25 C361.74137348 588.22103353 362.57140146 591.20074216 366 595 C367.0725 595.680625 368.145 596.36125 369.25 597.0625 C372 599 372 599 372.625 601.3125 C372 604 372 604 369.94140625 607.1171875 C367.41929122 611.43944237 367.77000763 614.96705675 368.3125 619.8125 C368.4500261 621.40183468 368.58158177 622.99169777 368.70703125 624.58203125 C368.76713379 625.34080566 368.82723633 626.09958008 368.88916016 626.88134766 C369.07311579 630.39757446 368.68634319 633.78029912 368.15625 637.25 C367.83590084 639.10928896 367.83590084 639.10928896 369 641 C369.96138568 649.37257402 369.15876425 655.20323015 364.5078125 662.26953125 C363.76144531 663.12611328 363.76144531 663.12611328 363 664 C362.34 664 361.68 664 361 664 C360.938125 664.53625 360.87625 665.0725 360.8125 665.625 C358.30846733 672.94448011 352.20146503 675.91110597 345.6875 679.125 C344.87087891 679.54136719 344.05425781 679.95773437 343.21289062 680.38671875 C341.59324704 681.21009135 339.96958128 682.02560464 338.34179688 682.83276367 C336.81467939 683.5939343 335.29464438 684.36953488 333.78320312 685.16137695 C330.21198737 687.02019977 327.16392348 688.41287115 323.125 688.9375 C320.89157442 689.33137528 320.89157442 689.33137528 319 690 C317.54018811 692.18827127 317.54018811 692.18827127 317 695 C314.30741997 701.32170963 310.89257499 703.68987501 305.03125 707.15625 C300.89064738 709.67476087 297.07767935 712.57541318 293.21484375 715.49609375 C291 717 291 717 289 717 C289.66 717.99 290.32 718.98 291 720 C291.50312433 721.50660857 291.95685711 723.03012929 292.375 724.5625 C293.39856139 728.1843326 294.63816963 731.51035932 296.1875 734.9375 C299.31273368 742.54103788 298.64121 749.38710058 296 757 C295.94751431 759.04141719 295.90701922 761.08315925 295.875 763.125 C295.48864976 768.5339033 295.48864976 768.5339033 293.4765625 770.453125 C291.5 771.375 291.5 771.375 289.30078125 772.15625 C286.76495911 773.08619496 284.89033021 774.31912713 282.6875 775.875 C275.83388728 780.55869728 268.45730714 784.37212085 261 788 C261.66 788.33 262.32 788.66 263 789 C263.35390763 793.60079922 262.52019085 797.04888972 260.9765625 801.3046875 C260.24045036 803.33635701 259.55652306 805.3870449 258.8984375 807.4453125 C256.59879816 814.43324881 254.51127743 820.0202671 249 825 C248.49210938 825.47953125 247.98421875 825.9590625 247.4609375 826.453125 C245.17487958 828.49299207 243.21678071 829.92437882 240.3125 830.9375 C236.97400889 832.47140132 236.48143286 834.71508367 235 838 C233.25 840.375 233.25 840.375 231 843 C230.51789062 843.58523438 230.03578125 844.17046875 229.5390625 844.7734375 C222.67371718 852.92804955 215.09407759 859.64867589 205.9375 865.1171875 C203.25749028 866.83495969 200.86885981 868.73468169 198.40869141 870.74682617 C186.99842157 879.79745086 170.79968147 884.03554634 156.3046875 883.30859375 C154.6830868 883.09146417 153.06904994 882.8135231 151.46484375 882.4921875 C140.50237541 880.30316847 129.94647162 884.018598 119.48046875 887.00390625 C118.43503906 887.29136719 117.38960937 887.57882812 116.3125 887.875 C115.40113281 888.14054688 114.48976563 888.40609375 113.55078125 888.6796875 C110.43039712 889.07152747 108.7699875 888.4256585 106 887 C105 886 104 885 103 884 C100.26486964 882.74331848 97.91822093 881.98664831 94.9375 881.5 C90.8423727 879.40887117 90.1741587 876.77301529 88.56640625 872.60546875 C87.92363159 869.64870531 88.11952799 867.87938145 89 865 C89.66 864.01 90.32 863.02 91 862 C92.50582726 856.81565187 91.43738735 852.51050666 88.90625 847.87890625 C87.20110608 844.95386911 85.4006698 842.09891792 83.578125 839.24609375 C81.28273977 835.62602337 79.54774849 831.92581597 77.93457031 827.95898438 C76.95764238 825.69524724 76.95764238 825.69524724 74.5 823.0625 C71.67598394 819.60308032 70.5002949 816.3977233 68.96875 812.25390625 C67.79432486 809.52147356 66.15519376 808.016149 64 806 C63.25673596 804.31957694 62.51826766 802.63563131 61.85546875 800.921875 C60.89753289 798.76979991 59.69386747 796.94995878 58.375 795 C55.40597874 790.32423598 55.14257829 786.2896396 54.80078125 780.80078125 C54.72214844 779.60839844 54.64351562 778.41601562 54.5625 777.1875 C54.48257812 775.96289062 54.40265625 774.73828125 54.3203125 773.4765625 C54.05164389 770.5605251 53.61186718 767.90244064 52.9375 765.0625 C51.92128135 760.74890054 52.12305087 756.91573998 52.375 752.5 C52.50397124 745.38508643 50.79190088 742.28215618 46.015625 737.171875 C43.7235264 734.70209434 42.49476622 732.39534361 41.109375 729.36328125 C39.61301806 726.17561946 37.92485188 723.09609467 36.25 720 C34.04780738 715.9141351 31.89058734 711.81468187 29.84375 707.6484375 C29.3173291 706.57722656 29.3173291 706.57722656 28.78027344 705.484375 C28.11128364 704.11468973 27.44755438 702.74241791 26.79003906 701.3671875 C24.89690019 697.48953055 22.6899331 694.35082184 20 691 C18.69768755 684.92254189 18.94867805 678.85633874 19.0625 672.66015625 C19.30805267 670.0779517 19.30805267 670.0779517 18 669 C16.74113251 657.45231164 20.85461274 646.95253526 24.9375 636.375 C25.27330078 635.48506348 25.60910156 634.59512695 25.95507812 633.67822266 C26.28830078 632.84339355 26.62152344 632.00856445 26.96484375 631.1484375 C27.2599585 630.39739746 27.55507324 629.64635742 27.85913086 628.87255859 C29.25802058 626.5764995 30.5823865 626.06899406 33 625 C33.68486725 623.67592331 34.34870203 622.34090759 35 621 C36.6459651 619.31288577 38.31237149 617.6454378 40 616 C41.86190044 613.20714934 42.41797842 611.79886258 43.0625 608.625 C43.21847656 607.87476563 43.37445312 607.12453125 43.53515625 606.3515625 C43.68855469 605.57554687 43.84195312 604.79953125 44 604 C44.23074219 603.16597656 44.46148438 602.33195313 44.69921875 601.47265625 C45.07393546 598.39219293 44.4256951 597.37901002 42.75 594.8125 C40.2872647 590.73061828 38.92179907 586.87253371 37.703125 582.28125 C37.02018 579.75392415 37.02018 579.75392415 35.125 576.8125 C34 574 34 574 35.3125 570.5625 C35.869375 569.386875 36.42625 568.21125 37 567 C37.53799689 561.34430771 36.35966343 557.9570568 33.6875 553 C30.26419321 546.56963756 27.37081306 540.61386165 25.640625 533.51171875 C24.76918418 530.0950331 23.86875289 526.69534934 22.875 523.3125 C22.34519531 521.41951172 22.34519531 521.41951172 21.8046875 519.48828125 C19.7090996 515.4377185 18.05318431 514.49961561 14.19775391 512.3605957 C10.15430551 509.85735888 7.03345354 506.34267853 3.75 502.9375 C3.05648438 502.23044922 2.36296875 501.52339844 1.6484375 500.79492188 C0.32194506 499.44174711 -0.99894048 498.08304536 -2.31323242 496.71801758 C-3.57719514 495.43063798 -4.90211424 494.20263732 -6.25390625 493.0078125 C-8.86394762 490.00655687 -10.17897284 486.58885876 -11.6875 482.9375 C-11.99494141 482.21755859 -12.30238281 481.49761719 -12.61914062 480.75585938 C-13.84683447 477.86258525 -15.00582425 474.98252724 -16 472 C-18.01508358 471.26676204 -18.01508358 471.26676204 -20 471 C-19.67 469.68 -19.34 468.36 -19 467 C-16.69 467.33 -14.38 467.66 -12 468 C-11.67 463.71 -11.34 459.42 -11 455 C-9.68 454.67 -8.36 454.34 -7 454 C-7.33 453.319375 -7.66 452.63875 -8 451.9375 C-10.23418736 445.37457464 -8.57313028 439.59760965 -6.5625 433.25 C-6.33240234 432.49589844 -6.10230469 431.74179687 -5.86523438 430.96484375 C-4.94585463 427.96420146 -3.99242483 424.97727449 -3 422 C-4.61871598 418.54673923 -6.76565355 417.53622597 -10.1875 416.25 C-11.45419633 415.82092088 -12.72386027 415.40011982 -14 415 C-14.12375 415.78375 -14.2475 416.5675 -14.375 417.375 C-15 420 -15 420 -17 422 C-18.32 422 -19.64 422 -21 422 C-21 420.35 -21 418.7 -21 417 C-20.071875 416.9071875 -20.071875 416.9071875 -19.125 416.8125 C-16.74879337 416.16906685 -16.74879337 416.16906685 -15.6875 413.5625 C-14.70567636 411.03555588 -14.70567636 411.03555588 -16 409 C-19.47763025 408.74167726 -22.95672098 408.52379329 -26.4375 408.3125 C-27.41138672 408.23966797 -28.38527344 408.16683594 -29.38867188 408.09179688 C-35.95870545 407.71824982 -40.93081303 408.49772828 -47 411 C-50 412 -50 412 -52.4375 411.4375 C-57.84085221 408.4063512 -59.46129462 402.95504528 -61.8125 397.5 C-65.01757249 390.43756639 -68.11680902 386.51012983 -75.375 383.6875 C-77.169375 383.3471875 -77.169375 383.3471875 -79 383 C-79.66644531 382.86722656 -80.33289063 382.73445313 -81.01953125 382.59765625 C-92.37572476 380.77657297 -103.32104646 384.79684982 -113.96972656 388.33544922 C-115.93892729 388.98000963 -117.91564183 389.59014879 -119.8984375 390.19140625 C-129.26007934 393.11571293 -137.97746523 396.92235719 -146.12890625 402.44140625 C-150.4575736 405.17958205 -153.17910639 405.08904138 -158.1875 404 C-161.55359377 403.10570143 -164.71444118 402.12194547 -167.91796875 400.75390625 C-180.67034337 395.61589534 -195.81272164 399.56259067 -208.1875 404.625 C-210.51663393 405.72147385 -212.75801574 406.85872319 -214.98046875 408.15625 C-220.50130758 410.4628287 -227.75878362 408.32538437 -233.1875 406.4375 C-237.75074902 404.44783692 -240.72547084 401.7048252 -244.07421875 398.07421875 C-246.52666332 395.43274194 -249.19717394 393.13311642 -251.93359375 390.79296875 C-253.38758194 389.53137975 -254.81528056 388.239167 -256.22265625 386.92578125 C-261.82089789 381.73084346 -266.89169111 378.47773355 -274.0625 375.8984375 C-282.64292071 372.70140574 -282.64292071 372.70140574 -284.75 368.5625 C-285.1625 367.386875 -285.575 366.21125 -286 365 C-287.95088903 363.58985096 -287.95088903 363.58985096 -290.1875 362.3125 C-292.32421875 360.88671875 -292.32421875 360.88671875 -294 359 C-294.69677267 354.91890291 -294.47754267 351.09890788 -294 347 C-294.64324219 346.89300781 -295.28648437 346.78601563 -295.94921875 346.67578125 C-296.62597656 346.45277344 -297.30273438 346.22976563 -298 346 C-298.268125 345.071875 -298.53625 344.14375 -298.8125 343.1875 C-300.50240202 338.65144721 -302.73709312 338.13145344 -307 336 C-309.76223278 333.23776722 -309.57856291 330.79293383 -310 327 C-311.670625 327.061875 -311.670625 327.061875 -313.375 327.125 C-317 327 -317 327 -319 325 C-319.1875 322.4375 -319.1875 322.4375 -319 320 C-318.67 319.67 -318.34 319.34 -318 319 C-320.64 318.67 -323.28 318.34 -326 318 C-326 317.01 -326 316.02 -326 315 C-326.99 314.67 -327.98 314.34 -329 314 C-329 313.01 -329 312.02 -329 311 C-330.32 310.67 -331.64 310.34 -333 310 C-333.08132187 307.43685501 -333.14064175 304.87631582 -333.1875 302.3125 C-333.21263672 301.59126953 -333.23777344 300.87003906 -333.26367188 300.12695312 C-333.32672457 295.52410662 -332.77816458 292.69692767 -330 289 C-331.1446875 288.62875 -331.1446875 288.62875 -332.3125 288.25 C-335.44463315 286.79319388 -336.48717792 286.10526637 -338 283 C-338.74391113 279.80370386 -338.83733084 277.18607017 -338 274 C-336.18904052 271.71810543 -334.19547732 269.88844879 -332.03125 267.94140625 C-326.2475371 262.41351142 -324.82374227 254.36170901 -322.83203125 246.87890625 C-322 244 -322 244 -321 243 C-320.54232556 236.73092448 -320.94026392 230.77649152 -322.1875 224.625 C-323.11518465 219.73066376 -322.84118662 217.26177993 -320 213 C-320 212.01 -320 211.02 -320 210 C-320.639375 210.185625 -321.27875 210.37125 -321.9375 210.5625 C-322.9584375 210.7790625 -322.9584375 210.7790625 -324 211 C-325.93270447 209.06729553 -325.65374251 205.59693119 -326 203 C-326.2475 202.175 -326.495 201.35 -326.75 200.5 C-327.1196878 196.80312198 -325.56355872 194.30752806 -324 191 C-323.65772583 189.66893378 -323.32248257 188.33599921 -323 187 C-321.68791252 183.71978131 -319.68899727 181.36096879 -317.31640625 178.7578125 C-315.84790511 176.90837471 -315.84790511 176.90837471 -314.60546875 174.1796875 C-311.29043058 167.61413745 -306.50682112 160.5473584 -300.4375 156.25 C-294.08422674 151.33660409 -290.65427043 141.52291167 -287.95703125 134.1484375 C-286.49660963 130.86993998 -284.05302334 129.71732563 -281 128 C-280.34 128 -279.68 128 -279 128 C-278.505 126.515 -278.505 126.515 -278 125 C-276.52876037 123.86313301 -275.05748095 122.72631745 -273.5859375 121.58984375 C-271.69668112 119.69593403 -270.94221422 117.88085887 -269.875 115.4375 C-267.69989689 111.1861621 -265.62838725 110.05242663 -261.125 108.5625 C-259.0931142 108.00472743 -257.05161209 107.48016453 -255 107 C-248.04344369 105.31696218 -244.04795654 103.07193481 -240 97 C-239.278125 96.608125 -238.55625 96.21625 -237.8125 95.8125 C-233.521612 93.04726107 -229.16212031 88.97676808 -227.26953125 84.12890625 C-226.91454911 81.32506184 -227.21697126 78.69098236 -227.4375 75.875 C-227.53435579 68.03848619 -224.23605053 64.42714726 -219 59 C-218.39027344 58.175 -217.78054688 57.35 -217.15234375 56.5 C-214.5712701 53.50201972 -211.64848431 51.54773418 -208.3125 49.5 C-207.69181641 49.11054199 -207.07113281 48.72108398 -206.43164062 48.31982422 C-194.94882234 41.1684013 -194.94882234 41.1684013 -188.6875 38.6875 C-184.8150235 36.25594499 -183.7841983 33.08276007 -182 29 C-181.00585407 27.32983484 -180.0064275 25.66279327 -179 24 C-178.608125 22.989375 -178.21625 21.97875 -177.8125 20.9375 C-175.4135821 17.04959858 -172.39578773 15.22339582 -168 14 C-165.87109375 14.02734375 -165.87109375 14.02734375 -164 15 C-162.75 18.0625 -162.75 18.0625 -162 21 C-159.91695462 21.05418326 -157.83350232 21.09287551 -155.75 21.125 C-154.58984375 21.14820312 -153.4296875 21.17140625 -152.234375 21.1953125 C-149.10673399 21.00644529 -147.66741763 20.47660619 -145 19 C-142.25 19.375 -142.25 19.375 -140 20 C-140 20.99 -140 21.98 -140 23 C-134.46238213 22.74886087 -130.43198657 22.0249501 -125.73828125 19.046875 C-121.36252482 16.41158798 -116.61766857 15.07528086 -111.625 14.1875 C-107.84699261 13.43449509 -105.22416243 12.03370468 -102 9.9375 C-97.86209247 7.27372203 -94.70973384 6.28911502 -89.8125 6.10546875 C-87.89859996 6.11367492 -87.89859996 6.11367492 -86 5 C-76.24651922 2.72363396 -64.79756418 1.34303344 -55 4 C-53.50298215 4.11333058 -52.0012465 4.17464686 -50.5 4.1875 C-49.37078125 4.20876953 -49.37078125 4.20876953 -48.21875 4.23046875 C-45.96274461 4.12840282 -45.96274461 4.12840282 -44.0078125 3 C-41.63132169 1.81637812 -40.01365696 1.76396283 -37.375 1.8125 C-36.59898437 1.81894531 -35.82296875 1.82539062 -35.0234375 1.83203125 C-33 2 -33 2 -31 3 C-23.20177763 3.60523517 -16.23279718 2.90303782 -8.75390625 0.65625 C-5.69320284 -0.07310911 -3.13468397 -0.27980443 0 0 Z " fill="#49A0D8" transform="translate(681,44)"/>
<path d="M0 0 C2.69718009 2.41816146 2.93294289 5.16540871 3.8125 8.625 C4.7726817 10.31491979 5.76605934 11.98709288 6.8125 13.625 C8.25762009 17.96036026 8.20272195 22.37606217 8.41796875 26.90820312 C8.55281487 30.89642972 8.55281487 30.89642972 9.8125 34.625 C9.86874936 42.56740992 8.94821921 48.82107485 4.8125 55.625 C2.8325 55.13 2.8325 55.13 0.8125 54.625 C0.79268066 55.27049805 0.77286133 55.91599609 0.75244141 56.58105469 C0.65703672 59.51277221 0.54742029 62.44379232 0.4375 65.375 C0.4065625 66.39078125 0.375625 67.4065625 0.34375 68.453125 C0.30507812 69.4328125 0.26640625 70.4125 0.2265625 71.421875 C0.17943115 72.77297363 0.17943115 72.77297363 0.13134766 74.15136719 C-0.20456484 76.75738974 -0.76205344 78.42524444 -2.1875 80.625 C-3.85267108 81.29539355 -5.51945094 81.96179977 -7.1875 82.625 C-13.40566167 89.4755171 -18.14643018 98.46756187 -20.5625 107.375 C-23.25023108 117.04779491 -28.7610393 125.91069146 -33.5859375 134.64453125 C-35.54545735 138.29114991 -37.40307563 141.98289331 -39.25 145.6875 C-39.59321289 146.37271729 -39.93642578 147.05793457 -40.29003906 147.76391602 C-41.77947119 150.74815599 -43.2382961 153.73537856 -44.6328125 156.765625 C-47.55146578 163.043483 -47.55146578 163.043483 -50.375 165.625 C-54.56381884 167.11435781 -58.80921319 167.89881072 -63.1875 168.625 C-64.26 168.810625 -65.3325 168.99625 -66.4375 169.1875 C-67.79875 169.4040625 -67.79875 169.4040625 -69.1875 169.625 C-70.239375 169.8725 -71.29125 170.12 -72.375 170.375 C-73.303125 170.4575 -74.23125 170.54 -75.1875 170.625 C-76.75 169.3125 -76.75 169.3125 -78.1875 167.625 C-80.78665538 166.43472016 -80.78665538 166.43472016 -83.1875 165.625 C-83.290625 164.573125 -83.39375 163.52125 -83.5 162.4375 C-83.92064448 158.70340426 -83.92064448 158.70340426 -85.72265625 156.25 C-87.46894154 153.12065676 -87.46758747 151.36582762 -87.3125 147.8125 C-87.20354881 143.98613433 -87.17589079 140.24166447 -87.50390625 136.4296875 C-87.56368652 135.72432861 -87.6234668 135.01896973 -87.68505859 134.29223633 C-87.86678904 132.27848545 -88.06389243 130.26613966 -88.26171875 128.25390625 C-88.17881085 124.20014622 -87.19090927 122.097243 -85.1875 118.625 C-84.94 117.635 -84.6925 116.645 -84.4375 115.625 C-83.15893386 112.55644126 -82.42422023 111.76773352 -79.9375 109.75 C-74.0946433 104.98402191 -74.0946433 104.98402191 -70.1875 98.625 C-69.69380144 93.04097009 -70.11508991 87.57690629 -70.5625 82 C-70.73056062 79.76208936 -70.88867971 77.52514717 -71.02090454 75.28482056 C-71.14190693 73.25783517 -71.29727718 71.23298715 -71.45458984 69.20849609 C-71.13474114 64.91714397 -69.78859859 62.98654658 -67.1875 59.625 C-66.41422355 58.04162441 -65.67871836 56.43865378 -65 54.8125 C-63.27709538 50.71459538 -63.27709538 50.71459538 -62.1875 49.625 C-60.23499137 49.29659641 -58.27486367 49.0131876 -56.3125 48.75 C-53.93651872 48.38126848 -51.56149638 48.00630195 -49.1875 47.625 C-48.21167969 47.47804688 -47.23585938 47.33109375 -46.23046875 47.1796875 C-39.06121465 45.7232725 -35.357873 42.48418969 -30.4921875 37.11328125 C-28.45439821 34.9131596 -26.47256295 33.25673263 -24.0625 31.5 C-22.03600322 29.84281805 -21.28651598 29.14978472 -20.796875 26.5546875 C-20.78085375 24.10838655 -20.78085375 24.10838655 -21.1875 20.625 C-20.8575 19.965 -20.5275 19.305 -20.1875 18.625 C-19.1975 18.625 -18.2075 18.625 -17.1875 18.625 C-17.1875 19.285 -17.1875 19.945 -17.1875 20.625 C-16.1975 20.625 -15.2075 20.625 -14.1875 20.625 C-13.960625 19.696875 -13.73375 18.76875 -13.5 17.8125 C-12.50958175 14.40183435 -11.25659008 11.14650103 -9.875 7.875 C-9.48699219 6.95203125 -9.09898438 6.0290625 -8.69921875 5.078125 C-6.64260669 1.74078036 -4.08389004 -0.70009544 0 0 Z " fill="#4AA0D7" transform="translate(1151.1875,661.375)"/>
<path d="M0 0 C0.99 0 1.98 0 3 0 C3.85655385 7.29731538 4.24113748 14.52941832 4.3125 21.875 C4.34150391 22.89335938 4.37050781 23.91171875 4.40039062 24.9609375 C4.46350598 32.34057912 4.46350598 32.34057912 2.10546875 35.6953125 C0 37 0 37 -2 37 C-2.061875 37.8353125 -2.061875 37.8353125 -2.125 38.6875 C-3.48977108 42.294395 -5.91080176 43.73038496 -9 46 C-9.66 46 -10.32 46 -11 46 C-11.06058594 46.69867187 -11.12117188 47.39734375 -11.18359375 48.1171875 C-11.30927734 49.48230469 -11.30927734 49.48230469 -11.4375 50.875 C-11.51871094 51.77992188 -11.59992188 52.68484375 -11.68359375 53.6171875 C-12 56 -12 56 -13 58 C-13.31787855 63.72181393 -13.21424892 69.38409876 -12 75 C-12.66 75 -13.32 75 -14 75 C-14.495 75.99 -14.495 75.99 -15 77 C-18.4001542 58.7848882 -18.4001542 58.7848882 -14 51 C-13.7525 50.01 -13.505 49.02 -13.25 48 C-11.97143386 44.93144126 -11.23672023 44.14273352 -8.75 42.125 C-3.53926265 37.87995364 0.62193358 34.47467864 1.38671875 27.44580078 C1.44303957 23.28432484 1.16497513 19.14909213 0.875 15 C0.79656523 13.54312271 0.72101863 12.0860869 0.6484375 10.62890625 C0.46559545 7.08349023 0.24362729 3.54181917 0 0 Z " fill="#3C96CB" transform="translate(1080,729)"/>
<path d="M0 0 C0 0.99 0 1.98 0 3 C1.32 3.33 2.64 3.66 4 4 C4 4.99 4 5.98 4 7 C4.763125 6.9175 5.52625 6.835 6.3125 6.75 C9 7 9 7 10.8125 9 C11.4003125 9.99 11.4003125 9.99 12 11 C11.67 11.66 11.34 12.32 11 13 C9.02 11.68 7.04 10.36 5 9 C4.34 10.32 3.68 11.64 3 13 C2.855625 12.236875 2.71125 11.47375 2.5625 10.6875 C2.0367406 7.91827092 2.0367406 7.91827092 1 5 C0.34 4.67 -0.32 4.34 -1 4 C-1.12375 4.598125 -1.2475 5.19625 -1.375 5.8125 C-2 8 -2 8 -4 11 C-4.66 11 -5.32 11 -6 11 C-5.67 9.68 -5.34 8.36 -5 7 C-5.99 7.33 -6.98 7.66 -8 8 C-7.67 6.35 -7.34 4.7 -7 3 C-7.66 3 -8.32 3 -9 3 C-9 2.34 -9 1.68 -9 1 C-17.19033227 1.41005616 -25.04043449 1.9053775 -33 4 C-33 3.34 -33 2.68 -33 2 C-23.5695109 -1.67629236 -9.58661638 -4.79330819 0 0 Z " fill="#4A9BCF" transform="translate(936,118)"/>
<path d="M0 0 C0.66 0 1.32 0 2 0 C1.31903133 4.92928457 0.02151563 9.47080155 -1.5 14.1875 C-1.83837891 15.25387695 -1.83837891 15.25387695 -2.18359375 16.34179688 C-3.10335214 19.23440982 -4.0401458 22.12043741 -5 25 C-5.17812624 27.6928496 -5.08727698 30.29441368 -5 33 C-4.67 33.33 -4.34 33.66 -4 34 C-3.91314397 35.56172745 -3.89297781 37.12729344 -3.90234375 38.69140625 C-3.90556641 39.63564453 -3.90878906 40.57988281 -3.91210938 41.55273438 C-3.92048828 42.54595703 -3.92886719 43.53917969 -3.9375 44.5625 C-3.94201172 45.55958984 -3.94652344 46.55667969 -3.95117188 47.58398438 C-3.96299993 50.05604849 -3.97948151 52.52799518 -4 55 C-4.99 55.495 -4.99 55.495 -6 56 C-6.96640026 49.83919831 -7.05201461 43.89404511 -6.9375 37.66015625 C-6.69194733 35.0779517 -6.69194733 35.0779517 -8 34 C-9.31847635 21.90551506 -4.85746128 10.82849076 0 0 Z " fill="#469DCE" transform="translate(707,679)"/>
<path d="M0 0 C1.32 0.66 2.64 1.32 4 2 C-17.61894864 8.72589513 -17.61894864 8.72589513 -28.50390625 6.484375 C-31.10250594 5.98010839 -33.48065725 5.86691332 -36.125 5.875 C-36.97320313 5.87242187 -37.82140625 5.86984375 -38.6953125 5.8671875 C-41.16116566 5.90865263 -41.16116566 5.90865263 -44 7 C-45.89470816 7.0685495 -47.7916834 7.08480372 -49.6875 7.0625 C-50.68136719 7.05347656 -51.67523437 7.04445313 -52.69921875 7.03515625 C-53.83810547 7.01775391 -53.83810547 7.01775391 -55 7 C-50.03251775 2.03251775 -41.13802628 2.81994674 -34.5 2.8125 C-33.44014893 2.8112915 -33.44014893 2.8112915 -32.35888672 2.81005859 C-27.26888198 2.86555901 -27.26888198 2.86555901 -25 4 C-19.24956815 4.50360197 -14.52332798 3.66741977 -9 2 C-7 2 -5 2 -3 2 C-2.01 1.34 -1.02 0.68 0 0 Z " fill="#429ACC" transform="translate(861,920)"/>
<path d="M0 0 C0.99 0 1.98 0 3 0 C3 1.32 3 2.64 3 4 C2.01 4 1.02 4 0 4 C0.02320313 4.98742187 0.04640625 5.97484375 0.0703125 6.9921875 C0.09738281 8.91417969 0.09738281 8.91417969 0.125 10.875 C0.14820313 12.15117187 0.17140625 13.42734375 0.1953125 14.7421875 C0 18 0 18 -2 20 C-2.99225211 22.49081468 -3.91997345 24.97395971 -4.8125 27.5 C-7.13499531 33.90450041 -9.74237319 40.00366038 -13 46 C-14.07421875 44.140625 -14.07421875 44.140625 -15 42 C-13.8125 39.75 -13.8125 39.75 -12 37 C-11.2850461 35.11512155 -10.57255652 33.2291067 -9.890625 31.33203125 C-5.29268293 19.29268293 -5.29268293 19.29268293 -3 17 C-2.7131854 13.73577665 -2.55112395 10.47135509 -2.37890625 7.19921875 C-2.03055617 4.25799491 -1.52254021 2.49647281 0 0 Z " fill="#4297CA" transform="translate(1172,378)"/>
<path d="M0 0 C3.40309085 0.57956569 5.00544952 1.64420302 7.375 4.125 C7.97828125 4.75019531 8.5815625 5.37539063 9.203125 6.01953125 C10.91205841 7.90307308 12.52050864 9.8399681 14.125 11.8125 C16.50874576 14.66663826 18.41974672 15.83883677 22 17 C24.26469003 18.72889751 24.92898241 19.65575444 25.51171875 22.48046875 C25.56972656 23.37378906 25.62773438 24.26710938 25.6875 25.1875 C25.78611328 26.53908203 25.78611328 26.53908203 25.88671875 27.91796875 C25.92410156 28.60503906 25.96148438 29.29210937 26 30 C26.66 30 27.32 30 28 30 C28.66 32.31 29.32 34.62 30 37 C29.01 37.495 29.01 37.495 28 38 C27.66226563 37.11957031 27.32453125 36.23914063 26.9765625 35.33203125 C26.53054688 34.17058594 26.08453125 33.00914062 25.625 31.8125 C24.96371094 30.08966797 24.96371094 30.08966797 24.2890625 28.33203125 C23.86367188 27.23246094 23.43828125 26.13289062 23 25 C22.73960937 24.09636719 22.47921875 23.19273437 22.2109375 22.26171875 C20.50350525 19.07267594 18.23269864 18.59384794 15 17 C12.21056958 14.63998938 9.67617525 12.05047697 7.125 9.4375 C6.43664062 8.75236328 5.74828125 8.06722656 5.0390625 7.36132812 C0 2.26727586 0 2.26727586 0 0 Z " fill="#459BCA" transform="translate(679,539)"/>
<path d="M0 0 C0.886875 0.78375 1.77375 1.5675 2.6875 2.375 C6.33792547 5.40280617 9.52817324 6.77356511 14.25 7.5 C19.89343561 8.99494983 23.65658376 14.51178592 27 19 C27 19.66 27 20.32 27 21 C28.32 21.66 29.64 22.32 31 23 C31 23.99 31 24.98 31 26 C30.34 26 29.68 26 29 26 C29 25.34 29 24.68 29 24 C28.34 24 27.68 24 27 24 C27 23.34 27 22.68 27 22 C26.34 22 25.68 22 25 22 C22.72196072 19.27546503 20.61385195 16.44331277 18.484375 13.6015625 C15.70057825 10.68645459 13.85715165 9.97070794 10 9 C2.05658537 5.90341463 2.05658537 5.90341463 0 3 C0 2.01 0 1.02 0 0 Z " fill="#3C95CC" transform="translate(1042,315)"/>
<path d="M0 0 C-1.32494154 3.97482462 -3.12470843 4.64280413 -6.625 6.875 C-10.17420832 9.15002571 -13.59084303 11.42186027 -16.875 14.0625 C-20 16 -20 16 -23.4375 15.8125 C-24.283125 15.544375 -25.12875 15.27625 -26 15 C-26 14.67 -26 14.34 -26 14 C-24.68322266 13.62488281 -24.68322266 13.62488281 -23.33984375 13.2421875 C-19.85472988 11.94596971 -17.49939484 10.38414988 -14.5625 8.125 C-3.71931818 0 -3.71931818 0 0 0 Z " fill="#3E96CF" transform="translate(890,905)"/>
<path d="M0 0 C0.99 0.33 1.98 0.66 3 1 C-0.00655115 7.46408498 -3.40924772 11.63648603 -9 16 C-10.2065625 17.3303125 -10.2065625 17.3303125 -11.4375 18.6875 C-14.36703611 21.33122771 -16.12374516 21.72956362 -20 22 C-17.60547643 18.00912739 -15.30704484 17.40447114 -11 16 C-10.67 15.01 -10.34 14.02 -10 13 C-9.071875 12.278125 -8.14375 11.55625 -7.1875 10.8125 C-3.46132205 7.88543009 -1.8127575 4.29730161 0 0 Z " fill="#439BCC" transform="translate(413,156)"/>
<path d="M0 0 C0.66 0.33 1.32 0.66 2 1 C2.55783265 3.85114464 2.73362625 5.23178363 2 8 C-0.68243373 11.65385005 -3.77978525 14.81871703 -7 18 C-7.5465625 18.57878906 -8.093125 19.15757812 -8.65625 19.75390625 C-10.33679684 21.31232033 -11.77036277 21.61557979 -14 22 C-13.34 20.68 -12.68 19.36 -12 18 C-11.34 18 -10.68 18 -10 18 C-9.773125 17.443125 -9.54625 16.88625 -9.3125 16.3125 C-7.6407496 13.36703501 -5.41718785 11.35675815 -3 9 C-0.87491756 5.81237635 -0.4979837 3.73487777 0 0 Z " fill="#3992C8" transform="translate(724,651)"/>
<path d="M0 0 C0.33 0.66 0.66 1.32 1 2 C-0.28062485 3.7074998 -1.61767557 5.37373596 -3 7 C-3.66 7 -4.32 7 -5 7 C-5.2475 7.721875 -5.495 8.44375 -5.75 9.1875 C-7 12 -7 12 -9 14.3125 C-11.61049862 17.82035752 -12.1326582 20.7355695 -13 25 C-13.33 25 -13.66 25 -14 25 C-14.91892014 21.89864453 -15.38095272 20.15428855 -15 17 C-12.73908684 13.2916536 -9.91308815 10.20596595 -7 7 C-6.31292969 6.11699219 -5.62585938 5.23398438 -4.91796875 4.32421875 C-3 2 -3 2 0 0 Z " fill="#4393CF" transform="translate(469,96)"/>
<path d="M0 0 C0 0.99 0 1.98 0 3 C-6.88023305 6.59727921 -13.55620912 9.76686274 -21 12 C-21 10.68 -21 9.36 -21 8 C-19.3603125 7.4121875 -19.3603125 7.4121875 -17.6875 6.8125 C-13.11676225 5.11176037 -8.72843996 3.06955591 -4.3203125 0.98828125 C-2 0 -2 0 0 0 Z " fill="#4498CA" transform="translate(814,98)"/>
<path d="M0 0 C0 0.66 0 1.32 0 2 C-2.14271803 3.67589493 -4.41178378 5.08006798 -6.70703125 6.5390625 C-9.05971741 7.99265295 -9.05971741 7.99265295 -11.375 9.8125 C-15.69372166 11.76620742 -20.3090868 11.76175747 -25 12 C-25 11.01 -25 10.02 -25 9 C-22.18691057 8.40328406 -19.56812124 7.97555403 -16.6875 7.8125 C-12.37544556 6.86238631 -10.13776633 5.15462159 -6.796875 2.375 C-4.59498851 0.69007816 -2.7856691 0 0 0 Z " fill="#4699C7" transform="translate(1167,357)"/>
<path d="M0 0 C0.33 0 0.66 0 1 0 C1 1.65 1 3.3 1 5 C1.61875 5.12375 2.2375 5.2475 2.875 5.375 C5 6 5 6 7 8 C10.18819752 7.66083005 12.95781049 7.01406317 16 6 C16.99 7.485 16.99 7.485 18 9 C11.77464789 12.05164319 11.77464789 12.05164319 8.1875 11.8125 C6 11 6 11 4 9 C2.35008418 8.29289322 0.68437744 7.62056011 -1 7 C-1.04254356 5.00045254 -1.04080783 2.99958364 -1 1 C-0.67 0.67 -0.34 0.34 0 0 Z " fill="#429AD0" transform="translate(1069,820)"/>
<path d="M0 0 C6.6 0.33 13.2 0.66 20 1 C19.67 1.99 19.34 2.98 19 4 C16.04142591 4.05379226 13.08382279 4.09357093 10.125 4.125 C8.86236328 4.15013672 8.86236328 4.15013672 7.57421875 4.17578125 C6.76855469 4.18222656 5.96289062 4.18867188 5.1328125 4.1953125 C4.38918457 4.20578613 3.64555664 4.21625977 2.87939453 4.22705078 C1 4 1 4 -1 2 C-0.67 1.34 -0.34 0.68 0 0 Z " fill="#4798C5" transform="translate(644,448)"/>
<path d="M0 0 C5.32405622 2.6734043 9.63843559 4.8845759 13 10 C13.886875 9.690625 14.77375 9.38125 15.6875 9.0625 C18.46709155 8.1709329 21.13136375 7.50622993 24 7 C23 10 23 10 21.22265625 11.16796875 C20.50980469 11.50441406 19.79695313 11.84085937 19.0625 12.1875 C18.35222656 12.53167969 17.64195313 12.87585938 16.91015625 13.23046875 C15 14 15 14 13 14 C13 13.34 13 12.68 13 12 C12.13375 11.62875 12.13375 11.62875 11.25 11.25 C8.68880083 9.82711157 7.0666952 8.0666952 5 6 C4.0925 5.484375 3.185 4.96875 2.25 4.4375 C1.5075 3.963125 0.765 3.48875 0 3 C0 2.01 0 1.02 0 0 Z " fill="#4197CA" transform="translate(1086,365)"/>
<path d="M0 0 C1 3 1 3 -0.07421875 5.3125 C-0.60660156 6.199375 -1.13898438 7.08625 -1.6875 8 C-4.42380339 12.77424629 -6.41203819 17.47141348 -8.140625 22.6875 C-9 25 -9 25 -11 28 C-12.03489265 24.85471233 -12.00011986 23.18729975 -10.7421875 20.13671875 C-10.44570312 19.41419922 -10.14921875 18.69167969 -9.84375 17.94726562 C-9.36421875 16.82868164 -9.36421875 16.82868164 -8.875 15.6875 C-8.57851562 14.95337891 -8.28203125 14.21925781 -7.9765625 13.46289062 C-5.87492179 8.44477818 -3.30110369 4.3234178 0 0 Z " fill="#4193D2" transform="translate(1139,746)"/>
<path d="M0 0 C9.58979656 7.54471026 9.58979656 7.54471026 12 13 C11.8125 16.9375 11.8125 16.9375 11 20 C10.01 20 9.02 20 8 20 C8.37125 18.700625 8.37125 18.700625 8.75 17.375 C9.08147231 12.90012385 7.82010575 11.41381222 5 8 C4.0925 7.29875 3.185 6.5975 2.25 5.875 C1.13625 4.946875 1.13625 4.946875 0 4 C0 2.68 0 1.36 0 0 Z " fill="#3B97C8" transform="translate(1074,340)"/>
<path d="M0 0 C0.99 0.66 1.98 1.32 3 2 C2.33613281 2.59167969 1.67226562 3.18335938 0.98828125 3.79296875 C-4.59008474 8.74301877 -4.59008474 8.74301877 -9.9375 13.9375 C-12.46684571 16.46684571 -14.03880248 17.95529314 -17.6875 18.125 C-18.450625 18.08375 -19.21375 18.0425 -20 18 C-20 17.34 -20 16.68 -20 16 C-19.10410156 15.75894531 -18.20820312 15.51789062 -17.28515625 15.26953125 C-13.70617686 13.8864536 -12.04307026 12.46087085 -9.4375 9.6875 C-8.674375 8.88828125 -7.91125 8.0890625 -7.125 7.265625 C-6.42375 6.51796875 -5.7225 5.7703125 -5 5 C-3.98388176 3.97447325 -2.96414991 2.95248343 -1.9375 1.9375 C-1.298125 1.298125 -0.65875 0.65875 0 0 Z " fill="#3E91CA" transform="translate(1128,691)"/>
<path d="M0 0 C0.66 0.33 1.32 0.66 2 1 C-0.5580927 7.97185099 -3.04148149 14.69569275 -7 21 C-8.1875 19.3125 -8.1875 19.3125 -9 17 C-7.8125 14.75 -7.8125 14.75 -6 12 C-5.4717565 10.65659903 -4.97314842 9.30128075 -4.5 7.9375 C-3.40117258 4.86194599 -2.17562873 2.48643284 0 0 Z " fill="#3A9CCF" transform="translate(1166,403)"/>
<path d="M0 0 C0.66 0.66 1.32 1.32 2 2 C-1.87124194 8.45206991 -6.97229902 14.92538082 -14 18 C-13.45076653 14.29267409 -12.15184361 12.97297458 -9.25 10.6875 C-5.37483198 7.46748628 -2.74860775 4.20880562 0 0 Z " fill="#3D93C9" transform="translate(911,883)"/>
<path d="M0 0 C-0.688 8.256 -0.688 8.256 -4 12 C-4 12.66 -4 13.32 -4 14 C-3.34 14 -2.68 14 -2 14 C-1.34 15.98 -0.68 17.96 0 20 C-0.99 20 -1.98 20 -3 20 C-4.67863509 17.42520116 -6.08259344 14.94291654 -7 12 C-5.8125 8.25 -5.8125 8.25 -4 5 C-3.814375 4.21625 -3.62875 3.4325 -3.4375 2.625 C-3.293125 2.08875 -3.14875 1.5525 -3 1 C-1 0 -1 0 0 0 Z " fill="#42A2CE" transform="translate(722,606)"/>
<path d="M0 0 C-1.25 1.5 -1.25 1.5 -3 3 C-4.32 3 -5.64 3 -7 3 C-7.15662109 3.79857422 -7.15662109 3.79857422 -7.31640625 4.61328125 C-8.19144898 7.66843043 -9.52090901 10.34392738 -10.9375 13.1875 C-11.46214844 14.25355469 -11.98679687 15.31960938 -12.52734375 16.41796875 C-14 19 -14 19 -16 20 C-14.27544081 12.457231 -11.62730093 4.08486729 -4.9375 -0.375 C-3 -1 -3 -1 0 0 Z " fill="#439BCC" transform="translate(1060,540)"/>
<path d="M0 0 C0.66 0.99 1.32 1.98 2 3 C-4.92938497 11.81548975 -4.92938497 11.81548975 -11 13 C-11 13.66 -11 14.32 -11 15 C-12.65 15.66 -14.3 16.32 -16 17 C-14.6230546 12.8691638 -12.42448975 10.78721802 -8.625 8.6875 C-5.02879627 6.37565474 -2.64686634 3.31995263 0 0 Z " fill="#3C92C8" transform="translate(452,131)"/>
<path d="M0 0 C0.66 0.33 1.32 0.66 2 1 C0.53541868 3.38958004 -0.38572809 4.7766284 -3.0625 5.75 C-7.37694663 6.11718695 -11.67306496 6.07561634 -16 6 C-15.67 5.01 -15.34 4.02 -15 3 C-14.08476563 2.86722656 -13.16953125 2.73445313 -12.2265625 2.59765625 C-11.03804687 2.42105469 -9.84953125 2.24445312 -8.625 2.0625 C-7.44164062 1.88847656 -6.25828125 1.71445312 -5.0390625 1.53515625 C-2.09297619 1.16537214 -2.09297619 1.16537214 0 0 Z " fill="#4496CC" transform="translate(670,45)"/>
<path d="M0 0 C1.84765625 0.21875 1.84765625 0.21875 4 1 C6.65435736 4.81138493 8.31060639 9.02024713 7.58203125 13.6640625 C6.84025564 15.85804669 6.02313043 17.92364708 5 20 C4.34 19.34 3.68 18.68 3 18 C3.1640625 16.15234375 3.1640625 16.15234375 3.625 13.9375 C4.4165168 8.45913654 2.60923803 4.73694287 0 0 Z " fill="#459DCD" transform="translate(722,634)"/>
<path d="M0 0 C0.66 0.33 1.32 0.66 2 1 C2.31293706 9.13636364 2.31293706 9.13636364 0 12 C-2.625 12.75 -2.625 12.75 -5 13 C-5 11.68 -5 10.36 -5 9 C-4.01 9 -3.02 9 -2 9 C-1.67 8.34 -1.34 7.68 -1 7 C-1.66 7 -2.32 7 -3 7 C-2.625 4.0625 -2.625 4.0625 -2 1 C-1.34 0.67 -0.68 0.34 0 0 Z " fill="#418AB7" transform="translate(1149,730)"/>
<path d="M0 0 C2.96175123 0.61277612 4.38058783 1.25372522 7 3 C7 3.99 7 4.98 7 6 C4.36 6.66 1.72 7.32 -1 8 C-1.66 7.01 -2.32 6.02 -3 5 C-2.34 5 -1.68 5 -1 5 C-0.67 3.35 -0.34 1.7 0 0 Z " fill="#3D98CD" transform="translate(1041,307)"/>
<path d="M0 0 C0.33 0 0.66 0 1 0 C1.33 2.31 1.66 4.62 2 7 C2.721875 7.20625 3.44375 7.4125 4.1875 7.625 C7.9255306 9.45248163 9.49246917 11.70438806 12 15 C10.68 15 9.36 15 8 15 C8 14.34 8 13.68 8 13 C7.236875 12.731875 6.47375 12.46375 5.6875 12.1875 C3.01321929 11.00584108 1.68318818 10.35646345 0 8 C-1.31506849 2.63013699 -1.31506849 2.63013699 0 0 Z " fill="#3A95C1" transform="translate(982,214)"/>
<path d="M0 0 C2.31 0 4.62 0 7 0 C8.125 5.75 8.125 5.75 7 8 C4 8 4 8 1.8125 6.25 C0 4 0 4 0 0 Z " fill="#3593B8" transform="translate(1193,776)"/>
<path d="M0 0 C0.71285156 0.30035156 1.42570313 0.60070312 2.16015625 0.91015625 C7.95859222 3.21236165 11.90331751 4.625782 18 3 C18.33 3.66 18.66 4.32 19 5 C16.35533301 6.79837355 14.9947896 6.9996994 11.75 6.8125 C7.58952629 5.91106403 3.94375371 4.59133922 0 3 C0 2.01 0 1.02 0 0 Z " fill="#4499CA" transform="translate(883,119)"/>
<path d="M0 0 C0.33 0 0.66 0 1 0 C2.38529821 5.45461169 3.2396943 10.36718401 3 16 C2.34 15.01 1.68 14.02 1 13 C0.01 13.495 0.01 13.495 -1 14 C-1.22142255 12.04310341 -1.4267568 10.08438048 -1.625 8.125 C-1.74101563 7.03445313 -1.85703125 5.94390625 -1.9765625 4.8203125 C-1.98429687 3.88960937 -1.99203125 2.95890625 -2 2 C-1.34 1.34 -0.68 0.68 0 0 Z " fill="#3C90C7" transform="translate(1158,687)"/>
<path d="M0 0 C0.66 0 1.32 0 2 0 C1.01455437 2.65312285 -0.01359656 5.02209441 -1.5 7.4375 C-3.13411412 10.0214379 -3.13411412 10.0214379 -4.0625 13.25 C-5 16 -5 16 -7 17 C-6.67 13.7 -6.34 10.4 -6 7 C-5.34 7 -4.68 7 -4 7 C-3.71125 6.21625 -3.4225 5.4325 -3.125 4.625 C-2 2 -2 2 0 0 Z " fill="#348BC6" transform="translate(1149,441)"/>
<path d="M0 0 C0.33 0.66 0.66 1.32 1 2 C1.61875 2.309375 2.2375 2.61875 2.875 2.9375 C5 4 5 4 6.4375 5.5 C8.4156595 7.39903312 10.43558782 8.09899031 13 9 C13 9.66 13 10.32 13 11 C10.5 11.5 10.5 11.5 7 11 C4.04629878 8.58622266 1.51610335 5.86095001 -1 3 C-0.67 2.01 -0.34 1.02 0 0 Z " fill="#4496CA" transform="translate(437,438)"/>
<path d="M0 0 C0.99 0.33 1.98 0.66 3 1 C2.5359375 1.7425 2.5359375 1.7425 2.0625 2.5 C0.58355618 5.97986781 0.37597149 9.24028509 0 13 C-0.99 13.33 -1.98 13.66 -3 14 C-3.08114106 12.22992286 -3.13925505 10.45877902 -3.1875 8.6875 C-3.22230469 7.70136719 -3.25710938 6.71523438 -3.29296875 5.69921875 C-3 3 -3 3 -1.48828125 1.14453125 C-0.99714844 0.76683594 -0.50601562 0.38914062 0 0 Z " fill="#4A9CCE" transform="translate(351,335)"/>
<path d="M0 0 C2.475 0.495 2.475 0.495 5 1 C5 1.99 5 2.98 5 4 C5.763125 3.9175 6.52625 3.835 7.3125 3.75 C10 4 10 4 11.8125 6 C12.204375 6.66 12.59625 7.32 13 8 C12.67 8.66 12.34 9.32 12 10 C10.02 8.68 8.04 7.36 6 6 C5.34 7.32 4.68 8.64 4 10 C3.855625 9.236875 3.71125 8.47375 3.5625 7.6875 C2.86659538 4.36262238 2.43447177 2.43447177 0 0 Z " fill="#3F93C5" transform="translate(935,121)"/>
<path d="M0 0 C0 4.53642696 -2.24309278 7.49244972 -5 11 C-7.24203788 12.93630544 -9.47864137 14.41797106 -12 16 C-12.33 15.34 -12.66 14.68 -13 14 C-12.278125 13.319375 -11.55625 12.63875 -10.8125 11.9375 C-8.22556422 9.37254951 -6.21531042 6.58424497 -4.2109375 3.55078125 C-3 2 -3 2 0 0 Z " fill="#439BCD" transform="translate(1130,468)"/>
<path d="M0 0 C4.875 4.75 4.875 4.75 6 7 C7.97888961 7.72693904 9.97954558 8.39816251 12 9 C11.67 9.99 11.34 10.98 11 12 C6.613421 11.15642712 4.49794651 10.58732153 1.5625 7.125 C0 4 0 4 0 0 Z " fill="#459ECD" transform="translate(622,444)"/>
<path d="M0 0 C4.60759354 0.48893529 6.86881553 2.21982978 10.25 5.3125 C11.12140625 6.09238281 11.9928125 6.87226563 12.890625 7.67578125 C14.93134521 9.9243526 15.64787896 11.04082895 16 14 C11.31104535 10.61417915 6.98885388 7.21678838 3 3 C2.401875 2.401875 1.80375 1.80375 1.1875 1.1875 C0.795625 0.795625 0.40375 0.40375 0 0 Z " fill="#4091C2" transform="translate(416,423)"/>
<path d="M0 0 C0.99 0 1.98 0 3 0 C3.33 0.99 3.66 1.98 4 3 C2.3125 6.1875 2.3125 6.1875 0 9 C-1.32 9 -2.64 9 -4 9 C-3.3543999 5.51375944 -2.07639763 2.87501211 0 0 Z " fill="#3793BE" transform="translate(1218,764)"/>
<path d="M0 0 C0.66 0.33 1.32 0.66 2 1 C2.10823773 3.24893954 2.18569645 5.49937575 2.25 7.75 C2.29640625 9.00296875 2.3428125 10.2559375 2.390625 11.546875 C2 15 2 15 -0.015625 17.453125 C-0.67046875 17.96359375 -1.3253125 18.4740625 -2 19 C-2.33 18.34 -2.66 17.68 -3 17 C-2.01 15.515 -2.01 15.515 -1 14 C-0.79520818 10.82917115 -0.79520818 10.82917115 -0.9375 7.375 C-0.99143113 5.25058232 -1.02048901 3.12500335 -1 1 C-0.67 0.67 -0.34 0.34 0 0 Z " fill="#4496C8" transform="translate(361,273)"/>
<path d="M0 0 C0.33 0.99 0.66 1.98 1 3 C0.45730469 3.59167969 -0.08539063 4.18335938 -0.64453125 4.79296875 C-1.71767578 5.97826172 -1.71767578 5.97826172 -2.8125 7.1875 C-3.87404297 8.35345703 -3.87404297 8.35345703 -4.95703125 9.54296875 C-6.93335629 11.91984915 -8.48582594 14.31078866 -10 17 C-10.99 16.67 -11.98 16.34 -13 16 C-11.58735645 14.08025364 -10.17008929 12.16422694 -8.75 10.25 C-8.35425781 9.71117187 -7.95851563 9.17234375 -7.55078125 8.6171875 C-5.23036771 5.49794307 -2.82587009 2.67031761 0 0 Z " fill="#3C93CB" transform="translate(381,199)"/>
<path d="M0 0 C0.66 0.33 1.32 0.66 2 1 C0.25194156 5.25809108 -1.91268904 6.42315316 -5.95703125 8.31640625 C-8.60472672 9.20234642 -10.40358984 8.97365381 -13 8 C-13 7.34 -13 6.68 -13 6 C-12.09507812 5.72736328 -12.09507812 5.72736328 -11.171875 5.44921875 C-5.14414802 3.58012094 -5.14414802 3.58012094 0 0 Z " fill="#4296C6" transform="translate(580,53)"/>
<path d="M0 0 C0.33 0 0.66 0 1 0 C1.42765417 6.41481258 -0.14256832 11.88595404 -2 18 C-2.66 18 -3.32 18 -4 18 C-5.07275791 14.68420283 -5.16114084 13.35297517 -3.6875 10.125 C-3.130625 9.09375 -2.57375 8.0625 -2 7 C-1.22503968 4.6844559 -0.61502975 2.36549903 0 0 Z " fill="#4794CC" transform="translate(363,250)"/>
<path d="M0 0 C3.38891322 0.68886787 6.18011613 1.98716486 9.25 3.5625 C10.14203125 4.01753906 11.0340625 4.47257812 11.953125 4.94140625 C12.96632813 5.46541016 12.96632813 5.46541016 14 6 C13.01 6.66 12.02 7.32 11 8 C6.67008904 6.79724696 2.85131241 4.26547789 -1 2 C-0.67 1.34 -0.34 0.68 0 0 Z " fill="#3D92C6" transform="translate(691,89)"/>
<path d="M0 0 C-0.99 0.495 -0.99 0.495 -2 1 C-1.67 1.99 -1.34 2.98 -1 4 C-1.59167969 3.83242187 -2.18335938 3.66484375 -2.79296875 3.4921875 C-9.03306515 1.85701888 -9.03306515 1.85701888 -15 4 C-14.67 3.01 -14.34 2.02 -14 1 C-9.00174442 -1.43817345 -5.29180261 -0.91237976 0 0 Z " fill="#4296CA" transform="translate(802,124)"/>
<path d="M0 0 C1.50433594 0.01353516 1.50433594 0.01353516 3.0390625 0.02734375 C3.80992187 0.03894531 4.58078125 0.05054688 5.375 0.0625 C5.045 1.0525 4.715 2.0425 4.375 3.0625 C-1.565 3.5575 -1.565 3.5575 -7.625 4.0625 C-7.625 3.0725 -7.625 2.0825 -7.625 1.0625 C-4.98041621 -0.25979189 -2.94738699 -0.03427194 0 0 Z " fill="#459DCC" transform="translate(600.625,48.9375)"/>
<path d="M0 0 C0 0.33 0 0.66 0 1 C-0.68707031 0.98839844 -1.37414062 0.97679687 -2.08203125 0.96484375 C-2.98308594 0.95582031 -3.88414062 0.94679688 -4.8125 0.9375 C-5.70582031 0.92589844 -6.59914063 0.91429687 -7.51953125 0.90234375 C-10.13413791 0.88990033 -10.13413791 0.88990033 -13 2 C-14.89470816 2.0685495 -16.7916834 2.08480372 -18.6875 2.0625 C-19.68136719 2.05347656 -20.67523437 2.04445313 -21.69921875 2.03515625 C-22.83810547 2.01775391 -22.83810547 2.01775391 -24 2 C-17.8339023 -4.1660977 -7.60236334 -1.6981224 0 0 Z " fill="#367BD7" transform="translate(830,925)"/>
<path d="M0 0 C2.46800047 1.15173355 4.04783565 2.04783565 6 4 C6.1953125 6.8203125 6.1953125 6.8203125 6.125 10.125 C6.10695313 11.22070312 6.08890625 12.31640625 6.0703125 13.4453125 C6.04710937 14.28835938 6.02390625 15.13140625 6 16 C5.34 15.67 4.68 15.34 4 15 C3.64438275 12.44765849 3.55620247 9.92131348 3.44140625 7.34765625 C3.29574219 6.57292969 3.15007812 5.79820312 3 5 C2.01 4.34 1.02 3.68 0 3 C0 2.01 0 1.02 0 0 Z " fill="#479DCC" transform="translate(1168,358)"/>
<path d="M0 0 C0.66 0.66 1.32 1.32 2 2 C0.3125 4 0.3125 4 -2 6 C-4.625 6.125 -4.625 6.125 -7 6 C-7.66 6.66 -8.32 7.32 -9 8 C-11.625 8.125 -11.625 8.125 -14 8 C-14 7.34 -14 6.68 -14 6 C-11.1184982 4.77754469 -8.34145 3.82141017 -5.3125 3 C-1.95649429 2.27154483 -1.95649429 2.27154483 0 0 Z " fill="#469ACE" transform="translate(435,147)"/>
<path d="M0 0 C1.32 0.66 2.64 1.32 4 2 C4 1.34 4 0.68 4 0 C4.99 0.33 5.98 0.66 7 1 C6.67 1.99 6.34 2.98 6 4 C5.34 4 4.68 4 4 4 C4.66 5.98 5.32 7.96 6 10 C3.60510457 9.25675659 2.29222384 8.52942646 1.06640625 6.30859375 C0.32780077 4.55926499 -0.34049685 2.78065851 -1 1 C-0.67 0.67 -0.34 0.34 0 0 Z " fill="#3E9ACA" transform="translate(952,163)"/>
<path d="M0 0 C0.66 0 1.32 0 2 0 C2.86355778 1.95421035 3.71559934 3.91351347 4.5625 5.875 C5.03816406 6.96554687 5.51382813 8.05609375 6.00390625 9.1796875 C6.33261719 10.11039063 6.66132812 11.04109375 7 12 C6.67 12.66 6.34 13.32 6 14 C2.6951619 11.7967746 2.43341089 11.17432399 1.3125 7.5625 C1.06113281 6.78003906 0.80976562 5.99757813 0.55078125 5.19140625 C0 3 0 3 0 0 Z " fill="#4295C3" transform="translate(971,769)"/>
<path d="M0 0 C0.99 0 1.98 0 3 0 C2.67 1.65 2.34 3.3 2 5 C1.34 5 0.68 5 0 5 C-0.2475 5.61875 -0.495 6.2375 -0.75 6.875 C-2.20628639 9.35068687 -3.37812506 9.95125002 -6 11 C-4.18690997 7.22272911 -2.0926741 3.62730178 0 0 Z " fill="#4298D0" transform="translate(388,190)"/>
<path d="M0 0 C0.33 0.99 0.66 1.98 1 3 C-2.45922629 5.95051654 -5.7838704 8.25855517 -10 10 C-10.99 9.67 -11.98 9.34 -13 9 C-12.22914062 8.51789062 -11.45828125 8.03578125 -10.6640625 7.5390625 C-9.66117188 6.90742187 -8.65828125 6.27578125 -7.625 5.625 C-6.62726563 4.99851562 -5.62953125 4.37203125 -4.6015625 3.7265625 C-1.9751981 2.10730288 -1.9751981 2.10730288 0 0 Z " fill="#4499CC" transform="translate(1038,712)"/>
<path d="M0 0 C0.33 0 0.66 0 1 0 C2.38529821 5.45461169 3.2396943 10.36718401 3 16 C2.01 16.33 1.02 16.66 0 17 C0 11.39 0 5.78 0 0 Z " fill="#378FD6" transform="translate(1047,659)"/>
<path d="M0 0 C3.39460785 1.37928277 4.72525168 2.64656429 6.3125 5.9375 C6.65925781 6.62714844 7.00601563 7.31679687 7.36328125 8.02734375 C8 10 8 10 7 13 C0 4.79310345 0 4.79310345 0 0 Z " fill="#3A9ACB" transform="translate(994,229)"/>
<path d="M0 0 C0.66 0 1.32 0 2 0 C1.68444225 5.20670288 -1.30128397 8.57730756 -5 12 C-5.99 12.33 -6.98 12.66 -8 13 C-6.80465088 10.17462936 -5.43875959 8.32924926 -3.4375 5.9375 C-0.86462201 3.19794312 -0.86462201 3.19794312 0 0 Z " fill="#4196C7" transform="translate(366,218)"/>
<path d="M0 0 C3.64187858 1.21395953 3.91745993 2.09006077 5.6875 5.375 C6.34298828 6.56222656 6.34298828 6.56222656 7.01171875 7.7734375 C8 10 8 10 8 13 C7.34 13 6.68 13 6 13 C4.99491199 11.21118264 3.99607264 9.41885304 3 7.625 C2.1646875 6.12839844 2.1646875 6.12839844 1.3125 4.6015625 C0 2 0 2 0 0 Z " fill="#3D8FC1" transform="translate(963,185)"/>
<path d="M0 0 C0.66 0.33 1.32 0.66 2 1 C0.38585401 4.40764153 -0.51362436 5.77707783 -4 7.375 C-7 8 -7 8 -10 7 C-6.7 4.69 -3.4 2.38 0 0 Z " fill="#3B98C6" transform="translate(481,88)"/>
<path d="M0 0 C0.66 0.33 1.32 0.66 2 1 C1.3125 3.4375 1.3125 3.4375 0 6 C-2.625 6.8125 -2.625 6.8125 -5 7 C-5 5.35 -5 3.7 -5 2 C-2.625 0.9375 -2.625 0.9375 0 0 Z " fill="#3696DC" transform="translate(665,459)"/>
<path d="M0 0 C0.33 0 0.66 0 1 0 C1.99 3.63 2.98 7.26 4 11 C1 11 1 11 -2 9 C-1.125 1.125 -1.125 1.125 0 0 Z " fill="#4392C7" transform="translate(389,394)"/>
<path d="M0 0 C0.99 0 1.98 0 3 0 C3.23509196 4.81938524 2.45184478 8.46298506 1 13 C0.34 12.67 -0.32 12.34 -1 12 C-0.67 8.04 -0.34 4.08 0 0 Z " fill="#398EC3" transform="translate(941,833)"/>
<path d="M0 0 C0.33 4.95 0.66 9.9 1 15 C0.34 15 -0.32 15 -1 15 C-3.29612756 5.58997722 -3.29612756 5.58997722 -3 1 C-1 0 -1 0 0 0 Z " fill="#3A81D7" transform="translate(736,798)"/>
<path d="M0 0 C-0.28875 0.556875 -0.5775 1.11375 -0.875 1.6875 C-2.0413253 4.08494645 -3.0339881 6.51596939 -4 9 C-4.99 9 -5.98 9 -7 9 C-7.37254569 5.64708882 -7.31050198 4.3961577 -5.1875 1.6875 C-3 0 -3 0 0 0 Z " fill="#4493CE" transform="translate(350,314)"/>
<path d="M0 0 C1.79232337 0.30871122 3.58384321 0.62209064 5.375 0.9375 C6.87160156 1.19853516 6.87160156 1.19853516 8.3984375 1.46484375 C11 2 11 2 13 3 C13 3.66 13 4.32 13 5 C12.01 5 11.02 5 10 5 C10 4.34 10 3.68 10 3 C8.72125 3.185625 7.4425 3.37125 6.125 3.5625 C2.25 4.125 2.25 4.125 0 3 C0 2.01 0 1.02 0 0 Z " fill="#4198CA" transform="translate(716,95)"/>
<path d="M0 0 C0.66 0.33 1.32 0.66 2 1 C2 1.66 2 2.32 2 3 C0.71086513 3.67154933 -0.58140204 4.33708859 -1.875 5 C-2.59429688 5.37125 -3.31359375 5.7425 -4.0546875 6.125 C-6 7 -6 7 -8 7 C-6.89300099 3.78970286 -5.98396175 2.99031023 -3 1.1875 C-1.515 0.5996875 -1.515 0.5996875 0 0 Z " fill="#3E8DC6" transform="translate(950,824)"/>
<path d="M0 0 C1.32 0.33 2.64 0.66 4 1 C4.16276042 3.01822917 4.32552083 5.03645833 4.48828125 7.0546875 C4.87393036 9.39519216 4.87393036 9.39519216 8 11 C8 11.66 8 12.32 8 13 C5.13367003 11.94901234 4.16993357 11.33137046 2.75 8.5625 C2 6 2 6 2 3 C1.34 3 0.68 3 0 3 C0 2.01 0 1.02 0 0 Z " fill="#4998CE" transform="translate(369,368)"/>
<path d="M0 0 C0.99 0 1.98 0 3 0 C4.4606285 2.64738916 5 3.89448334 5 7 C1.73045798 6.43628586 0.17424117 5.50037734 -2 3 C-1.34 2.01 -0.68 1.02 0 0 Z " fill="#388AB7" transform="translate(1094,662)"/>
<path d="M0 0 C0.99 0.33 1.98 0.66 3 1 C3.42820102 4.63970867 2.97413512 6.04569463 1.125 9.3125 C0.073125 10.6428125 0.073125 10.6428125 -1 12 C-1.66 12 -2.32 12 -3 12 C-2.690625 11.0925 -2.38125 10.185 -2.0625 9.25 C-0.52182724 4.71076409 -0.52182724 4.71076409 0 0 Z " fill="#419ACE" transform="translate(1050,642)"/>
<path d="M0 0 C2.31 0 4.62 0 7 0 C7 1.32 7 2.64 7 4 C3.7 3.67 0.4 3.34 -3 3 C-2.01 2.67 -1.02 2.34 0 2 C0 1.34 0 0.68 0 0 Z " fill="#3F93CE" transform="translate(456,449)"/>
<path d="M0 0 C1.546875 0.7115625 1.546875 0.7115625 3.125 1.4375 C6.38534162 2.84522388 9.46051083 3.56835498 13 4 C13 4.66 13 5.32 13 6 C5.78287462 6.48929664 5.78287462 6.48929664 2 4.125 C0 2 0 2 0 0 Z " fill="#3F91C8" transform="translate(850,111)"/>
<path d="M0 0 C4.29 0.66 8.58 1.32 13 2 C10 5 10 5 8.02734375 5.21484375 C7.33769531 5.12332031 6.64804687 5.03179687 5.9375 4.9375 C5.24527344 4.86402344 4.55304687 4.79054688 3.83984375 4.71484375 C2 4 2 4 0 0 Z " fill="#4692BF" transform="translate(816,98)"/>
<path d="M0 0 C0.99 0 1.98 0 3 0 C2.42636089 3.87206399 0.65894107 6.18465063 -2 9 C-2.99 9 -3.98 9 -5 9 C-3.626187 6.04101816 -1.96773278 3.59382957 0 1 C0 0.67 0 0.34 0 0 Z " fill="#3F94C9" transform="translate(693,68)"/>
<path d="M0 0 C0.99 0 1.98 0 3 0 C3 1.65 3 3.3 3 5 C2.34 5 1.68 5 1 5 C1 6.98 1 8.96 1 11 C0.34 10.67 -0.32 10.34 -1 10 C-1.125 2.25 -1.125 2.25 0 0 Z " fill="#2E8CC5" transform="translate(1131,680)"/>
<path d="M0 0 C0.99 0.33 1.98 0.66 3 1 C3 3.64 3 6.28 3 9 C1.68 8.67 0.36 8.34 -1 8 C-1.04241723 5.66705225 -1.04092937 3.33297433 -1 1 C-0.67 0.67 -0.34 0.34 0 0 Z " fill="#3794C7" transform="translate(1038,613)"/>
<path d="M0 0 C0.33 1.32 0.66 2.64 1 4 C-3.625 8 -3.625 8 -7 8 C-7 7.01 -7 6.02 -7 5 C-4.625 3.4375 -4.625 3.4375 -2 2 C-1.34 1.34 -0.68 0.68 0 0 Z " fill="#3D93CA" transform="translate(1071,526)"/>
<path d="M0 0 C0.66 0 1.32 0 2 0 C1.79375 1.093125 1.5875 2.18625 1.375 3.3125 C0.59653475 7.0838401 0.59653475 7.0838401 3 10 C1.68 10 0.36 10 -1 10 C-3 7 -3 7 -2.75 5 C-2 3 -2 3 0 0 Z " fill="#4499C8" transform="translate(690,55)"/>
<path d="M0 0 C0.99 0 1.98 0 3 0 C3 2.64 3 5.28 3 8 C1.68 7.34 0.36 6.68 -1 6 C-0.67 4.02 -0.34 2.04 0 0 Z " fill="#359ECF" transform="translate(1083,654)"/>
<path d="M0 0 C0.99 0 1.98 0 3 0 C3.73080266 1.97746603 4.39421747 3.98072489 5 6 C4.67 6.66 4.34 7.32 4 8 C3.01 8 2.02 8 1 8 C0.67 5.36 0.34 2.72 0 0 Z " fill="#4692CC" transform="translate(1039,584)"/>
<path d="M0 0 C2.31 0.33 4.62 0.66 7 1 C6.67 1.66 6.34 2.32 6 3 C5.34 3 4.68 3 4 3 C4 3.66 4 4.32 4 5 C2.35 4.67 0.7 4.34 -1 4 C-0.67 2.68 -0.34 1.36 0 0 Z " fill="#42A1CE" transform="translate(662,511)"/>
<path d="M0 0 C0.66 0 1.32 0 2 0 C2.125 6.625 2.125 6.625 1 10 C0.01 9.67 -0.98 9.34 -2 9 C-1.125 1.125 -1.125 1.125 0 0 Z " fill="#55A5D5" transform="translate(670,504)"/>
<path d="M0 0 C0.86625 0.639375 1.7325 1.27875 2.625 1.9375 C5.9598812 3.97548296 8.16047478 4.63433093 12 5 C11.67 5.66 11.34 6.32 11 7 C9.02 7 7.04 7 5 7 C5 6.34 5 5.68 5 5 C3.35 4.67 1.7 4.34 0 4 C0 2.68 0 1.36 0 0 Z " fill="#388EC8" transform="translate(745,112)"/>
<path d="M0 0 C0.66 0.66 1.32 1.32 2 2 C1.625 4.625 1.625 4.625 1 7 C0.34 7 -0.32 7 -1 7 C-1.12375 7.639375 -1.2475 8.27875 -1.375 8.9375 C-1.58125 9.618125 -1.7875 10.29875 -2 11 C-2.99 11.495 -2.99 11.495 -4 12 C-3.33501617 7.61110675 -1.81242323 4.0188515 0 0 Z " fill="#429BCB" transform="translate(773,902)"/>
<path d="M0 0 C1.76462683 3.08809695 2 4.23312136 2 8 C3.65 8.33 5.3 8.66 7 9 C5.125 10.0625 5.125 10.0625 3 11 C0.38015514 9.69007757 -0.03394425 8.74954328 -1 6 C-0.625 2.75 -0.625 2.75 0 0 Z " fill="#3C8EC2" transform="translate(355,240)"/>
<path d="M0 0 C0.66 0 1.32 0 2 0 C0.47291037 3.43595166 -1.59927045 6.11912454 -4 9 C-4.99 8.67 -5.98 8.34 -7 8 C-5.88200014 6.66079162 -4.75538103 5.32877444 -3.625 4 C-2.68527344 2.88625 -2.68527344 2.88625 -1.7265625 1.75 C-1.15679688 1.1725 -0.58703125 0.595 0 0 Z " fill="#3E8BD1" transform="translate(934,860)"/>
<path d="M0 0 C0.66 0 1.32 0 2 0 C2 1.65 2 3.3 2 5 C0.02 5.99 0.02 5.99 -2 7 C-2.66 6.34 -3.32 5.68 -4 5 C-2.71937515 3.2925002 -1.38232443 1.62626404 0 0 Z " fill="#539FCE" transform="translate(1148,725)"/>
<path d="M0 0 C-0.75 7.75 -0.75 7.75 -3 10 C-3.83241855 6.67032582 -4.2757381 4.24733335 -3 1 C-1 0 -1 0 0 0 Z " fill="#4194C5" transform="translate(722,606)"/>
<path d="M0 0 C-2.31881505 2.67901932 -4.31814468 3.66204403 -7.6875 4.6875 C-8.89986328 5.06455078 -8.89986328 5.06455078 -10.13671875 5.44921875 C-11.05904297 5.72185547 -11.05904297 5.72185547 -12 6 C-11 3 -11 3 -9.00390625 1.796875 C-8.19824219 1.45140625 -7.39257812 1.1059375 -6.5625 0.75 C-5.75941406 0.39421875 -4.95632813 0.0384375 -4.12890625 -0.328125 C-2 -1 -2 -1 0 0 Z " fill="#4598CA" transform="translate(497,82)"/>
<path d="M0 0 C0.66 0.33 1.32 0.66 2 1 C1.21718695 2.33855056 0.42348123 3.67073644 -0.375 5 C-0.81585937 5.7425 -1.25671875 6.485 -1.7109375 7.25 C-2.34902344 8.11625 -2.34902344 8.11625 -3 9 C-3.66 9 -4.32 9 -5 9 C-4.5206753 4.68607774 -3.2542015 2.83430453 0 0 Z " fill="#3E9BCE" transform="translate(1116,795)"/>
<path d="M0 0 C2.00720923 0.28674418 4.0085944 0.61866701 6 1 C5.42655063 3.86724686 5.1385485 4.8614515 3 7 C2.71125 6.38125 2.4225 5.7625 2.125 5.125 C1.06279958 2.86674235 1.06279958 2.86674235 -1 1 C-0.67 0.67 -0.34 0.34 0 0 Z " fill="#3797C6" transform="translate(978,206)"/>
<path d="M0 0 C3.96 0.33 7.92 0.66 12 1 C8.48413301 3.34391133 5.8979123 4.35906449 1.6875 3.5625 C1.130625 3.376875 0.57375 3.19125 0 3 C0 2.01 0 1.02 0 0 Z " fill="#41A0C7" transform="translate(788,929)"/>
<path d="M0 0 C1 3 1 3 0.22265625 4.82421875 C-0.8515625 6.54947917 -1.92578125 8.27473958 -3 10 C-3.66 9.67 -4.32 9.34 -5 9 C-3.90931332 5.22454612 -3.0916909 2.52956528 0 0 Z " fill="#3A90CB" transform="translate(919,872)"/>
<path d="M0 0 C1.98 0 3.96 0 6 0 C6.33 1.98 6.66 3.96 7 6 C5.0625 5.1875 5.0625 5.1875 3 4 C2.67 3.01 2.34 2.02 2 1 C1.34 0.67 0.68 0.34 0 0 Z " fill="#337CA7" transform="translate(1194,776)"/>
<path d="M0 0 C2.475 0.99 2.475 0.99 5 2 C4.01 2.495 4.01 2.495 3 3 C2.34786708 5.02463255 2.34786708 5.02463255 2 7 C1.01 6.67 0.02 6.34 -1 6 C-1.042721 4.33388095 -1.04063832 2.66617115 -1 1 C-0.67 0.67 -0.34 0.34 0 0 Z " fill="#4DACDC" transform="translate(671,498)"/>
<path d="M0 0 C0.66 0.66 1.32 1.32 2 2 C-3.75 7 -3.75 7 -6 7 C-6 6.01 -6 5.02 -6 4 C-3 1.8125 -3 1.8125 0 0 Z " fill="#3FA7D7" transform="translate(1103,491)"/>
<path d="M0 0 C4.05606165 0.46800711 7.46588679 0.87953208 11 3 C6.70700357 4.26264601 4.12168689 3.62950412 0 2 C0 1.34 0 0.68 0 0 Z " fill="#4799CC" transform="translate(1111,371)"/>
<path d="M0 0 C2.99324263 1.0975223 3.84610901 1.67682892 5.25 4.625 C5.4975 5.40875 5.745 6.1925 6 7 C4.1875 6.8125 4.1875 6.8125 2 6 C0.25 3.4375 0.25 3.4375 -1 1 C-0.67 0.67 -0.34 0.34 0 0 Z " fill="#3E8EBD" transform="translate(738,102)"/>
<path d="M0 0 C-1.1875 2 -1.1875 2 -3 4 C-5.6875 4.25 -5.6875 4.25 -8 4 C-8.33 3.01 -8.66 2.02 -9 1 C-2.25 -1.125 -2.25 -1.125 0 0 Z " fill="#3987C7" transform="translate(672,46)"/>
<path d="M0 0 C-3.1254959 2.64465038 -6.08788267 3.84414715 -10 5 C-8.94958421 2.13522966 -8.29875437 1.16086774 -5.5625 -0.3125 C-3 -1 -3 -1 0 0 Z " fill="#3A8DB5" transform="translate(547,439)"/>
<path d="M0 0 C0 0.99 0 1.98 0 3 C-4.61073111 4.29676812 -8.33840089 3.71109139 -13 3 C-13 2.67 -13 2.34 -13 2 C-11.20873548 1.66451233 -9.41697413 1.33167645 -7.625 1 C-6.62726562 0.814375 -5.62953125 0.62875 -4.6015625 0.4375 C-2 0 -2 0 0 0 Z " fill="#4091D0" transform="translate(593,423)"/>
<path d="M0 0 C1.65 0.33 3.3 0.66 5 1 C2.6875 3.0625 2.6875 3.0625 0 5 C-0.99 4.67 -1.98 4.34 -3 4 C-2.01 2.68 -1.02 1.36 0 0 Z " fill="#338AB1" transform="translate(1089,711)"/>
<path d="M0 0 C0.33 0.66 0.66 1.32 1 2 C1.66 2 2.32 2 3 2 C3.66 4.31 4.32 6.62 5 9 C4.01 9.495 4.01 9.495 3 10 C0 3.375 0 3.375 0 0 Z " fill="#3C8FBC" transform="translate(704,567)"/>
<path d="M0 0 C0 0.99 0 1.98 0 3 C-2.31 3.33 -4.62 3.66 -7 4 C-7 3.01 -7 2.02 -7 1 C-2.25 0 -2.25 0 0 0 Z " fill="#3E97CE" transform="translate(500,439)"/>
<path d="M0 0 C0.99 0 1.98 0 3 0 C2.71125 0.556875 2.4225 1.11375 2.125 1.6875 C0.9586747 4.08494645 -0.0339881 6.51596939 -1 9 C-1.66 8.67 -2.32 8.34 -3 8 C-1.125 2.25 -1.125 2.25 0 0 Z " fill="#3999CF" transform="translate(1153,430)"/>
<path d="M0 0 C0.9075 0.78375 1.815 1.5675 2.75 2.375 C5.05190236 4.30052496 7.21577207 5.82205741 10 7 C6.33924624 7.3327958 4.60499012 7.46170299 1.625 5.1875 C0 3 0 3 0 0 Z " fill="#3C8DCB" transform="translate(1042,315)"/>
<path d="M0 0 C5.66153846 2.46153846 5.66153846 2.46153846 7.375 5.1875 C7.58125 5.785625 7.7875 6.38375 8 7 C4.66272214 5.82744291 2.22562513 4.81131596 0 2 C0 1.34 0 0.68 0 0 Z " fill="#3E98C8" transform="translate(1017,276)"/>
<path d="M0 0 C2.50298434 2.93828597 3.46930939 5.17902761 4 9 C3.01 9 2.02 9 1 9 C0.67 6.03 0.34 3.06 0 0 Z " fill="#3690C2" transform="translate(948,131)"/>
<path d="M0 0 C2.46278801 2.46278801 2.99771255 4.70676982 4 8 C1.00675737 6.9024777 0.15389099 6.32317108 -1.25 3.375 C-1.4975 2.59125 -1.745 1.8075 -2 1 C-1.34 0.67 -0.68 0.34 0 0 Z " fill="#449ACC" transform="translate(768,884)"/>
<path d="M0 0 C0.66 0 1.32 0 2 0 C0.87548273 2.9719385 -0.22293791 5.33440687 -2 8 C-2.66 8 -3.32 8 -4 8 C-2.25 2.25 -2.25 2.25 0 0 Z " fill="#3F94D2" transform="translate(1108,810)"/>
<path d="M0 0 C0.66 0 1.32 0 2 0 C1.5020163 3.73487777 1.12508244 5.81237635 -1 9 C-2.0326802 6.21176345 -2.04509293 5.1322726 -1.0625 2.25 C-0.711875 1.5075 -0.36125 0.765 0 0 Z " fill="#3696C6" transform="translate(1129,765)"/>
<path d="M0 0 C1.5625 1.75 1.5625 1.75 3 4 C2.6875 6.25 2.6875 6.25 2 8 C1.34 8 0.68 8 0 8 C-1.125 2.25 -1.125 2.25 0 0 Z " fill="#3FACD7" transform="translate(719,599)"/>
<path d="M0 0 C0.99 0.33 1.98 0.66 3 1 C0.6875 3.5 0.6875 3.5 -2 6 C-2.99 6 -3.98 6 -5 6 C-3.86525052 2.59575156 -3.03188696 1.78346291 0 0 Z " fill="#3A96C0" transform="translate(1122,477)"/>
<path d="M0 0 C2.64 0.99 5.28 1.98 8 3 C7.67 3.66 7.34 4.32 7 5 C4.69 4.34 2.38 3.68 0 3 C0 2.01 0 1.02 0 0 Z " fill="#4499C6" transform="translate(507,440)"/>
<path d="M0 0 C2.31 0.66 4.62 1.32 7 2 C7 2.99 7 3.98 7 5 C4.07120629 4.37240135 1.63904371 3.41377341 -1 2 C-0.67 1.34 -0.34 0.68 0 0 Z " fill="#4497C5" transform="translate(407,417)"/>
<path d="M0 0 C1.9375 0.0625 1.9375 0.0625 4 1 C5.25 4.0625 5.25 4.0625 6 7 C5.01 7 4.02 7 3 7 C2.896875 6.38125 2.79375 5.7625 2.6875 5.125 C2.12474627 2.63473516 2.12474627 2.63473516 -1 1 C-0.67 0.67 -0.34 0.34 0 0 Z " fill="#429BD0" transform="translate(379,381)"/>
<path d="M0 0 C0.99 0.33 1.98 0.66 3 1 C2.01 2.98 1.02 4.96 0 7 C-0.66 7 -1.32 7 -2 7 C-2.6875 5.1875 -2.6875 5.1875 -3 3 C-1.5625 1.25 -1.5625 1.25 0 0 Z " fill="#4497C5" transform="translate(351,335)"/>
<path d="M0 0 C0.33 0.99 0.66 1.98 1 3 C-0.62339805 4.70884005 -2.29319053 6.37446717 -4 8 C-4.66 8 -5.32 8 -6 8 C-4.55746343 4.63408134 -2.66735273 2.48952921 0 0 Z " fill="#3E8EBE" transform="translate(381,199)"/>
<path d="M0 0 C6.625 0.75 6.625 0.75 10 3 C6.18510326 4.46726798 3.70988378 3.43336419 0 2 C0 1.34 0 0.68 0 0 Z " fill="#3C9BC7" transform="translate(871,116)"/>
<path d="M0 0 C0.66 0.99 1.32 1.98 2 3 C1.01 4.98 0.02 6.96 -1 9 C-1.66 8.01 -2.32 7.02 -3 6 C-2.01 4.02 -1.02 2.04 0 0 Z " fill="#3380BB" transform="translate(1124,776)"/>
<path d="M0 0 C0.66 0.99 1.32 1.98 2 3 C0.1875 4.5625 0.1875 4.5625 -2 6 C-2.99 5.67 -3.98 5.34 -5 5 C-3.35 3.35 -1.7 1.7 0 0 Z " fill="#4495D1" transform="translate(990,744)"/>
<path d="M0 0 C3.34373475 0.55728913 6.03312999 1.35173889 9 3 C9 3.33 9 3.66 9 4 C2.25 3.125 2.25 3.125 0 2 C0 1.34 0 0.68 0 0 Z " fill="#459CCB" transform="translate(593,423)"/>
<path d="M0 0 C0.33 0.66 0.66 1.32 1 2 C-0.4375 4.625 -0.4375 4.625 -2 7 C-2.99 6.67 -3.98 6.34 -5 6 C-2.25 1.125 -2.25 1.125 0 0 Z " fill="#408BB6" transform="translate(356,304)"/>
<path d="M0 0 C4.75 0.875 4.75 0.875 7 2 C6.67 2.99 6.34 3.98 6 5 C5.21625 4.67 4.4325 4.34 3.625 4 C1.15667503 2.88133489 1.15667503 2.88133489 -1 3 C-0.67 2.01 -0.34 1.02 0 0 Z " fill="#429ACB" transform="translate(730,99)"/>
<path d="M0 0 C0.33 0.99 0.66 1.98 1 3 C0.01 3.33 -0.98 3.66 -2 4 C-2.33 4.99 -2.66 5.98 -3 7 C-3.99 7.495 -3.99 7.495 -5 8 C-4.64950425 4.75791433 -4.43778819 3.38472296 -1.9375 1.1875 C-1.298125 0.795625 -0.65875 0.40375 0 0 Z " fill="#3799CD" transform="translate(685,77)"/>
<path d="M0 0 C0.66 0.66 1.32 1.32 2 2 C3.32 2 4.64 2 6 2 C5.34 3.32 4.68 4.64 4 6 C2.68 5.67 1.36 5.34 0 5 C-0.5625 3.0625 -0.5625 3.0625 -1 1 C-0.67 0.67 -0.34 0.34 0 0 Z " fill="#469BCC" transform="translate(683,47)"/>
<path d="M0 0 C1.98 0 3.96 0 6 0 C6 0.99 6 1.98 6 3 C4.02 3 2.04 3 0 3 C0 2.01 0 1.02 0 0 Z " fill="#4798C9" transform="translate(607,47)"/>
<path d="M0 0 C0.99 0.66 1.98 1.32 3 2 C-1.30769231 5.07692308 -1.30769231 5.07692308 -4.8125 4.6875 C-5.534375 4.460625 -6.25625 4.23375 -7 4 C-7 3.67 -7 3.34 -7 3 C-5.5459375 2.5359375 -5.5459375 2.5359375 -4.0625 2.0625 C-1.15934208 1.30476658 -1.15934208 1.30476658 0 0 Z " fill="#3B89C5" transform="translate(871,916)"/>
<path d="M0 0 C-0.33 0.99 -0.66 1.98 -1 3 C-2.65 3.33 -4.3 3.66 -6 4 C-6 2.68 -6 1.36 -6 0 C-2.25 -1.125 -2.25 -1.125 0 0 Z " fill="#3A8EB1" transform="translate(1150,739)"/>
<path d="M0 0 C0.99 0.33 1.98 0.66 3 1 C1.02 3.97 1.02 3.97 -1 7 C-2 4 -2 4 -1.0625 1.8125 C-0.5365625 0.9153125 -0.5365625 0.9153125 0 0 Z " fill="#368FD2" transform="translate(997,735)"/>
<path d="M0 0 C0.66 0 1.32 0 2 0 C2 0.99 2 1.98 2 3 C3.32 3.33 4.64 3.66 6 4 C5.67 4.66 5.34 5.32 5 6 C3.68 5.67 2.36 5.34 1 5 C0.67 3.35 0.34 1.7 0 0 Z " fill="#3C8CBE" transform="translate(1151,711)"/>
<path d="M0 0 C0.66 0 1.32 0 2 0 C1.67 1.98 1.34 3.96 1 6 C-0.32 6.33 -1.64 6.66 -3 7 C-2.01 4.69 -1.02 2.38 0 0 Z " fill="#4097CB" transform="translate(707,679)"/>
<path d="M0 0 C0.99 0.33 1.98 0.66 3 1 C2.42655063 3.86724686 2.1385485 4.8614515 0 7 C-0.38133299 5.0085944 -0.71325582 3.00720923 -1 1 C-0.67 0.67 -0.34 0.34 0 0 Z " fill="#52A1D1" transform="translate(1041,596)"/>
<path d="M0 0 C2.5 1.3125 2.5 1.3125 5 3 C5 3.99 5 4.98 5 6 C4.01 6.33 3.02 6.66 2 7 C0.5393715 4.35261084 0 3.10551666 0 0 Z " fill="#297DB8" transform="translate(1043,307)"/>
<path d="M0 0 C0.66 0 1.32 0 2 0 C2.66 1.65 3.32 3.3 4 5 C4.66 5 5.32 5 6 5 C5.67 5.99 5.34 6.98 5 8 C2.5 5.6875 2.5 5.6875 0 3 C0 2.01 0 1.02 0 0 Z " fill="#3B8ECE" transform="translate(971,199)"/>
<path d="M0 0 C0 0.66 0 1.32 0 2 C-2.90600261 3.25664978 -4.79604584 4 -8 4 C-8 3.34 -8 2.68 -8 2 C-4.91190305 0.23537317 -3.76687864 0 0 0 Z " fill="#3E8ECC" transform="translate(911,118)"/>
<path d="M0 0 C2.875 -0.1875 2.875 -0.1875 6 0 C6.66 0.99 7.32 1.98 8 3 C5.36 3 2.72 3 0 3 C0 2.01 0 1.02 0 0 Z " fill="#3B8BCA" transform="translate(675,44)"/>
<path d="M0 0 C0.99 0 1.98 0 3 0 C3.33 0.99 3.66 1.98 4 3 C2.68 3 1.36 3 0 3 C-0.33 3.99 -0.66 4.98 -1 6 C-1.66 5.67 -2.32 5.34 -3 5 C-1.6875 2.5 -1.6875 2.5 0 0 Z " fill="#26759C" transform="translate(1218,764)"/>
<path d="M0 0 C1.98 0 3.96 0 6 0 C6.33 0.66 6.66 1.32 7 2 C4.36 2.33 1.72 2.66 -1 3 C-0.67 2.01 -0.34 1.02 0 0 Z " fill="#479ACF" transform="translate(1093,711)"/>
<path d="M0 0 C1.32 0.66 2.64 1.32 4 2 C3.67 2.99 3.34 3.98 3 5 C0.69 4.34 -1.62 3.68 -4 3 C-2.68 2.01 -1.36 1.02 0 0 Z " fill="#44A1CC" transform="translate(1149,661)"/>
<path d="M0 0 C2.7839183 1.39195915 2.97898997 3.15575779 4 6 C2.68 6 1.36 6 0 6 C-1.125 2.25 -1.125 2.25 0 0 Z " fill="#3B92CF" transform="translate(1033,585)"/>
<path d="M0 0 C0.33 0 0.66 0 1 0 C1.1875 2.375 1.1875 2.375 1 5 C0.01 5.66 -0.98 6.32 -2 7 C-2.33 6.01 -2.66 5.02 -3 4 C-1.625 1.8125 -1.625 1.8125 0 0 Z " fill="#3D92C1" transform="translate(1076,520)"/>
<path d="M0 0 C0.66 0.66 1.32 1.32 2 2 C1.195625 2.61875 0.39125 3.2375 -0.4375 3.875 C-3.03874519 5.74164041 -3.03874519 5.74164041 -4 8 C-4.66 8 -5.32 8 -6 8 C-4.55746343 4.63408134 -2.66735273 2.48952921 0 0 Z " fill="#3A96D3" transform="translate(1095,497)"/>
<path d="M0 0 C1.65 0 3.3 0 5 0 C5 0.99 5 1.98 5 3 C3.02 3 1.04 3 -1 3 C-0.67 2.01 -0.34 1.02 0 0 Z " fill="#439CCF" transform="translate(637,450)"/>
<path d="M0 0 C0.33 0.66 0.66 1.32 1 2 C-1.21934164 5.32901247 -2.34683329 5.75023244 -6 7 C-4.60667426 3.63279613 -3.0210714 2.0140476 0 0 Z " fill="#3B8BCD" transform="translate(469,96)"/>
</svg>
