<svg xmlns="http://www.w3.org/2000/svg" xmlns:xlink="http://www.w3.org/1999/xlink" width="300" zoomAndPan="magnify" viewBox="0 0 224.87999 225" height="300" preserveAspectRatio="xMidYMid meet" version="1.0"><defs><clipPath id="d643c4be04"><path d="M 0 0.0585938 L 224.761719 0.0585938 L 224.761719 224.9375 L 0 224.9375 Z M 0 0.0585938 " clip-rule="nonzero"/></clipPath></defs><g clip-path="url(#d643c4be04)"><path fill="#ffffff" d="M 0 0.0585938 L 224.878906 0.0585938 L 224.878906 224.941406 L 0 224.941406 Z M 0 0.0585938 " fill-opacity="1" fill-rule="nonzero"/><path fill="#ffffff" d="M 0 0.0585938 L 224.878906 0.0585938 L 224.878906 224.941406 L 0 224.941406 Z M 0 0.0585938 " fill-opacity="1" fill-rule="nonzero"/><path fill="#1b93ff" d="M 226.265625 113.195312 C 226.265625 115.046875 226.222656 116.894531 226.132812 118.746094 C 226.039062 120.59375 225.902344 122.441406 225.722656 124.28125 C 225.539062 126.125 225.3125 127.960938 225.042969 129.792969 C 224.769531 131.625 224.453125 133.449219 224.09375 135.265625 C 223.730469 137.082031 223.328125 138.886719 222.875 140.683594 C 222.425781 142.480469 221.933594 144.261719 221.394531 146.035156 C 220.859375 147.804688 220.277344 149.5625 219.652344 151.308594 C 219.03125 153.050781 218.363281 154.777344 217.65625 156.488281 C 216.945312 158.199219 216.195312 159.890625 215.40625 161.5625 C 214.613281 163.238281 213.78125 164.890625 212.910156 166.523438 C 212.035156 168.15625 211.125 169.769531 210.171875 171.355469 C 209.21875 172.945312 208.230469 174.507812 207.199219 176.046875 C 206.171875 177.585938 205.105469 179.101562 204.003906 180.585938 C 202.902344 182.074219 201.761719 183.535156 200.585938 184.964844 C 199.414062 186.394531 198.203125 187.796875 196.960938 189.167969 C 195.714844 190.542969 194.441406 191.882812 193.132812 193.191406 C 191.820312 194.5 190.480469 195.777344 189.109375 197.019531 C 187.738281 198.261719 186.335938 199.472656 184.90625 200.648438 C 183.472656 201.820312 182.015625 202.960938 180.527344 204.0625 C 179.039062 205.167969 177.527344 206.230469 175.988281 207.261719 C 174.449219 208.289062 172.882812 209.28125 171.296875 210.230469 C 169.707031 211.183594 168.097656 212.097656 166.464844 212.96875 C 164.832031 213.839844 163.179688 214.671875 161.503906 215.464844 C 159.832031 216.257812 158.136719 217.007812 156.429688 217.714844 C 154.71875 218.425781 152.992188 219.089844 151.246094 219.714844 C 149.503906 220.335938 147.746094 220.917969 145.972656 221.457031 C 144.203125 221.992188 142.417969 222.488281 140.621094 222.9375 C 138.828125 223.386719 137.019531 223.792969 135.203125 224.152344 C 133.390625 224.515625 131.566406 224.832031 129.734375 225.101562 C 127.902344 225.375 126.066406 225.601562 124.222656 225.78125 C 122.378906 225.964844 120.535156 226.101562 118.683594 226.191406 C 116.835938 226.28125 114.984375 226.328125 113.132812 226.328125 C 111.28125 226.328125 109.433594 226.28125 107.582031 226.191406 C 105.734375 226.101562 103.886719 225.964844 102.042969 225.78125 C 100.203125 225.601562 98.363281 225.375 96.535156 225.101562 C 94.703125 224.832031 92.878906 224.515625 91.0625 224.152344 C 89.246094 223.792969 87.441406 223.386719 85.644531 222.9375 C 83.847656 222.488281 82.0625 221.992188 80.292969 221.457031 C 78.519531 220.917969 76.761719 220.335938 75.019531 219.714844 C 73.277344 219.089844 71.550781 218.425781 69.839844 217.714844 C 68.128906 217.007812 66.4375 216.257812 64.761719 215.464844 C 63.089844 214.671875 61.4375 213.839844 59.804688 212.96875 C 58.167969 212.097656 56.558594 211.183594 54.972656 210.230469 C 53.382812 209.28125 51.820312 208.289062 50.28125 207.261719 C 48.742188 206.230469 47.226562 205.167969 45.738281 204.0625 C 44.253906 202.960938 42.792969 201.820312 41.363281 200.648438 C 39.929688 199.472656 38.53125 198.261719 37.15625 197.019531 C 35.785156 195.777344 34.445312 194.5 33.136719 193.191406 C 31.828125 191.882812 30.550781 190.542969 29.308594 189.167969 C 28.0625 187.796875 26.855469 186.394531 25.679688 184.964844 C 24.503906 183.535156 23.367188 182.074219 22.265625 180.585938 C 21.160156 179.101562 20.09375 177.585938 19.066406 176.046875 C 18.039062 174.507812 17.046875 172.945312 16.09375 171.355469 C 15.144531 169.769531 14.230469 168.15625 13.359375 166.523438 C 12.484375 164.890625 11.652344 163.238281 10.863281 161.5625 C 10.070312 159.890625 9.320312 158.199219 8.613281 156.488281 C 7.902344 154.777344 7.238281 153.050781 6.613281 151.308594 C 5.988281 149.5625 5.410156 147.804688 4.871094 146.035156 C 4.335938 144.261719 3.839844 142.480469 3.390625 140.683594 C 2.941406 138.886719 2.535156 137.082031 2.175781 135.265625 C 1.8125 133.449219 1.496094 131.625 1.222656 129.792969 C 0.953125 127.960938 0.726562 126.125 0.542969 124.28125 C 0.363281 122.441406 0.226562 120.59375 0.136719 118.746094 C 0.046875 116.894531 0 115.046875 0 113.195312 C 0 111.34375 0.046875 109.492188 0.136719 107.640625 C 0.226562 105.792969 0.363281 103.945312 0.542969 102.105469 C 0.726562 100.261719 0.953125 98.425781 1.222656 96.59375 C 1.496094 94.761719 1.8125 92.9375 2.175781 91.121094 C 2.535156 89.304688 2.941406 87.5 3.390625 85.703125 C 3.839844 83.910156 4.335938 82.125 4.871094 80.351562 C 5.410156 78.582031 5.988281 76.824219 6.613281 75.078125 C 7.238281 73.335938 7.902344 71.609375 8.613281 69.898438 C 9.320312 68.1875 10.070312 66.496094 10.863281 64.824219 C 11.652344 63.148438 12.484375 61.496094 13.359375 59.863281 C 14.230469 58.230469 15.144531 56.621094 16.09375 55.03125 C 17.046875 53.441406 18.039062 51.878906 19.066406 50.339844 C 20.09375 48.800781 21.160156 47.289062 22.265625 45.800781 C 23.367188 44.3125 24.503906 42.855469 25.679688 41.421875 C 26.855469 39.992188 28.0625 38.589844 29.308594 37.21875 C 30.550781 35.847656 31.828125 34.503906 33.136719 33.195312 C 34.445312 31.886719 35.785156 30.609375 37.15625 29.367188 C 38.53125 28.125 39.929688 26.914062 41.363281 25.738281 C 42.792969 24.566406 44.253906 23.425781 45.738281 22.324219 C 47.226562 21.222656 48.742188 20.15625 50.28125 19.125 C 51.820312 18.097656 53.382812 17.109375 54.972656 16.15625 C 56.558594 15.203125 58.167969 14.292969 59.804688 13.417969 C 61.4375 12.546875 63.089844 11.714844 64.761719 10.921875 C 66.4375 10.128906 68.128906 9.378906 69.839844 8.671875 C 71.550781 7.964844 73.277344 7.296875 75.019531 6.671875 C 76.761719 6.050781 78.519531 5.46875 80.292969 4.929688 C 82.0625 4.394531 83.847656 3.898438 85.644531 3.449219 C 87.441406 3 89.246094 2.59375 91.0625 2.234375 C 92.878906 1.871094 94.703125 1.554688 96.535156 1.285156 C 98.363281 1.011719 100.203125 0.785156 102.042969 0.605469 C 103.886719 0.421875 105.734375 0.289062 107.582031 0.195312 C 109.433594 0.105469 111.28125 0.0585938 113.132812 0.0585938 C 114.984375 0.0585938 116.835938 0.105469 118.683594 0.195312 C 120.535156 0.289062 122.378906 0.421875 124.222656 0.605469 C 126.066406 0.785156 127.902344 1.011719 129.734375 1.285156 C 131.566406 1.554688 133.390625 1.871094 135.203125 2.234375 C 137.019531 2.59375 138.828125 3 140.621094 3.449219 C 142.417969 3.898438 144.203125 4.394531 145.972656 4.929688 C 147.746094 5.46875 149.503906 6.050781 151.246094 6.671875 C 152.992188 7.296875 154.71875 7.964844 156.429688 8.671875 C 158.136719 9.378906 159.832031 10.128906 161.503906 10.921875 C 163.179688 11.714844 164.832031 12.546875 166.464844 13.417969 C 168.097656 14.292969 169.707031 15.203125 171.296875 16.15625 C 172.882812 17.109375 174.449219 18.097656 175.988281 19.125 C 177.527344 20.15625 179.039062 21.222656 180.527344 22.324219 C 182.015625 23.425781 183.472656 24.566406 184.90625 25.738281 C 186.335938 26.914062 187.738281 28.125 189.109375 29.367188 C 190.480469 30.609375 191.820312 31.886719 193.132812 33.195312 C 194.441406 34.503906 195.714844 35.847656 196.960938 37.21875 C 198.203125 38.589844 199.414062 39.992188 200.585938 41.421875 C 201.761719 42.855469 202.902344 44.3125 204.003906 45.800781 C 205.105469 47.289062 206.171875 48.800781 207.199219 50.339844 C 208.230469 51.878906 209.21875 53.441406 210.171875 55.03125 C 211.125 56.621094 212.035156 58.230469 212.910156 59.863281 C 213.78125 61.496094 214.613281 63.148438 215.40625 64.824219 C 216.195312 66.496094 216.945312 68.1875 217.65625 69.898438 C 218.363281 71.609375 219.03125 73.335938 219.652344 75.078125 C 220.277344 76.824219 220.859375 78.582031 221.394531 80.351562 C 221.933594 82.125 222.425781 83.910156 222.875 85.703125 C 223.328125 87.5 223.730469 89.304688 224.09375 91.121094 C 224.453125 92.9375 224.769531 94.761719 225.042969 96.59375 C 225.3125 98.425781 225.539062 100.261719 225.722656 102.105469 C 225.902344 103.945312 226.039062 105.792969 226.132812 107.640625 C 226.222656 109.492188 226.265625 111.34375 226.265625 113.195312 Z M 226.265625 113.195312 " fill-opacity="1" fill-rule="nonzero"/></g><path fill="#59fe72" d="M 4.460938 92.132812 C 10.417969 61.167969 29.3125 34.820312 55.246094 18.855469 L 55.5 19.398438 L 56.296875 20.386719 L 53.140625 21.660156 L 53.523438 23.445312 L 51.738281 25.835938 L 48.585938 25.835938 L 48.585938 27.425781 L 52.757812 27.425781 L 53.652344 26.25 L 55.722656 26.152344 L 56.519531 23.667969 L 57.316406 22.777344 L 58.8125 20.515625 L 60.5 19.71875 L 61.679688 19.8125 L 61.871094 20.992188 L 59.992188 22.679688 L 59.800781 24.65625 L 60.789062 26.152344 L 63.050781 26.757812 L 64.546875 24.878906 L 65.949219 25.164062 L 65.664062 27.332031 L 63.6875 27.617188 L 64.292969 28.703125 L 64.292969 29.976562 L 63.210938 31.25 L 61.425781 31.539062 L 60.023438 32.332031 L 60.628906 34.914062 L 62.125 35.902344 L 60.152344 37.175781 L 58.460938 36.285156 L 56.679688 36.570312 L 57.953125 38.355469 L 58.046875 39.4375 L 55.5625 38.738281 L 53.875 36.953125 L 50.71875 37.144531 L 49.03125 39.535156 L 44.1875 42.59375 L 42.117188 44.855469 L 42.214844 48.328125 L 43.011719 48.421875 L 45.273438 50.492188 L 47.949219 51.992188 L 50.625 52.882812 L 50.53125 54.953125 L 50.019531 56.738281 L 50.53125 58.140625 L 51.804688 59.320312 L 53.589844 57.820312 L 53.683594 55.847656 L 53.875 53.871094 L 55.148438 52.375 L 57.21875 51.992188 L 58.304688 50.589844 L 59.195312 49.507812 L 58.8125 48.007812 L 59.195312 45.714844 L 60.277344 44.726562 L 60.085938 43.132812 L 61.265625 40.457031 L 61.648438 38.292969 L 62.921875 38.578125 L 64.195312 39.757812 L 67.667969 39.054688 L 69.453125 40.839844 L 70.347656 42.242188 L 70.347656 44.410156 L 71.84375 45.683594 L 74.234375 46.382812 L 75.921875 45.109375 L 76.8125 43.707031 L 78.597656 44.089844 L 78.503906 46.765625 L 80.382812 49.441406 L 79.777344 51.925781 L 82.355469 53.328125 L 85.128906 53.042969 L 85.925781 54.636719 L 87.199219 55.242188 L 87.804688 57.820312 L 87.613281 60.402344 L 86.625 61.996094 L 87.328125 63.96875 L 89.589844 64.160156 L 90.480469 65.945312 L 91.277344 68.335938 L 90.289062 69.832031 L 88.601562 69.738281 L 86.433594 68.460938 L 85.035156 67.953125 L 81.371094 68.238281 L 81.082031 66.359375 L 81.371094 64.671875 L 83.34375 62.792969 L 83.855469 61.613281 L 82.167969 60.816406 L 80.285156 62.3125 L 78.214844 62.695312 L 74.933594 62.3125 L 73.53125 63.015625 L 68.878906 63.109375 L 67.191406 64.289062 L 68.179688 65.179688 L 70.058594 63.90625 L 72.035156 64.894531 L 72.417969 66.488281 L 71.714844 68.082031 L 72.097656 69.257812 L 75.667969 69.066406 L 78.535156 69.164062 L 78.628906 72.445312 L 77.546875 73.242188 L 74.871094 73.527344 L 73.277344 74.929688 L 71.398438 75.027344 L 70.886719 76.300781 L 68.625 75.695312 L 68.019531 75.183594 L 68.308594 73.6875 L 66.617188 73.179688 L 63.75 74.578125 L 61.585938 76.460938 L 60.882812 78.945312 L 61.265625 81.207031 L 56.996094 81.492188 L 55.59375 83.085938 L 54.894531 85.0625 L 53.300781 85.0625 L 52.21875 86.242188 L 50.71875 88.917969 L 50.71875 91.878906 L 49.320312 92.773438 L 46.640625 93.757812 L 44.0625 95.832031 L 41.894531 98.507812 L 41.703125 102.363281 L 42.691406 104.335938 L 42.5 107.011719 L 43.105469 110.070312 L 41.832031 111.761719 L 40.75 111.570312 L 39.570312 109.59375 L 39.1875 107.90625 L 37.914062 106.023438 L 37.914062 103.953125 L 35.746094 101.882812 L 32.273438 101.597656 L 30.777344 103.191406 L 30.777344 104.589844 L 30.488281 104.972656 L 27.71875 104.589844 L 27.015625 102.808594 L 23.863281 103.414062 L 21.472656 105.675781 L 20.964844 109.722656 L 21.347656 113.003906 L 20.835938 114.59375 L 21.027344 117.878906 L 22.90625 121.921875 L 25.871094 122.816406 L 27.144531 121.921875 L 27.335938 119.851562 L 28.324219 118.355469 L 31.796875 117.75 L 33.867188 118.546875 L 32.878906 119.726562 L 32.273438 123.992188 L 32.273438 127.753906 L 34.664062 128.742188 L 36.828125 127.339844 L 38.007812 128.519531 L 40.175781 131.097656 L 38.996094 132.277344 L 38.996094 135.242188 L 40.589844 138.011719 L 43.167969 139.191406 L 44.570312 138.808594 L 46.960938 138.011719 L 48.140625 139.988281 L 50.304688 139.796875 L 50.496094 138.394531 L 52.472656 136.226562 L 54.449219 135.050781 L 55.628906 133.457031 L 57.601562 132.46875 L 57.601562 135.050781 L 58.78125 135.847656 L 60.949219 135.464844 L 63.335938 137.054688 L 65.503906 137.246094 L 67.667969 138.234375 L 69.644531 137.054688 L 71.238281 136.261719 L 73.023438 137.4375 L 76.398438 139.828125 L 81.335938 143.398438 L 84.300781 144.796875 L 88.664062 144.417969 L 91.4375 146.996094 L 94.589844 151.363281 L 94.78125 153.335938 L 93.984375 156.492188 L 95.769531 154.898438 L 97.554688 155.695312 L 97.746094 159.070312 L 98.542969 156.109375 L 102.714844 156.714844 L 106.476562 158.878906 L 109.628906 158.273438 L 113.800781 159.261719 L 117.753906 162.417969 L 120.332031 163.023438 L 120.523438 165.601562 L 118.742188 170.160156 L 114.980469 174.714844 L 113.199219 177.296875 L 113.386719 182.648438 L 110.425781 186.214844 L 108.449219 187.203125 L 104.882812 188 L 102.90625 189.402344 L 100.929688 192.363281 L 100.550781 195.933594 L 98.765625 197.910156 L 97.363281 200.296875 L 95.195312 202.6875 L 93.605469 203.675781 L 93.605469 204.855469 L 93.414062 207.433594 L 91.246094 208.613281 L 91.246094 212.785156 L 95.003906 217.34375 L 98.382812 221.707031 L 96.089844 221.324219 L 95.195312 221.613281 L 94.589844 220.71875 L 93.191406 219.921875 L 89.8125 218.234375 L 87.644531 216.960938 L 86.054688 213.996094 L 82.199219 210.238281 L 79.710938 208.070312 L 78.121094 206.796875 L 77.417969 203.230469 L 77.226562 201.253906 L 75.953125 198.992188 L 74.457031 197.113281 L 73.851562 195.421875 L 73.148438 191.25 L 70.664062 185.515625 L 68.085938 180.960938 L 65.597656 178.886719 L 62.222656 177.804688 L 58.941406 175.925781 L 53.683594 169.296875 L 49.414062 164.839844 L 46.546875 161.175781 L 47.246094 159.773438 L 46.453125 157.894531 L 46.832031 153.847656 L 48.714844 150.980469 L 49.699219 147.699219 L 48.011719 144.035156 L 47.820312 143.652344 L 47.121094 141.484375 L 45.242188 140.785156 L 44.15625 142.058594 L 43.074219 142.855469 L 41.578125 142.566406 L 39.792969 141.773438 L 39.410156 140.179688 L 38.519531 139.285156 L 37.816406 139.382812 L 36.542969 138.679688 L 35.269531 136.992188 L 33.101562 134.222656 L 32.59375 132.53125 L 30.617188 131.925781 L 27.558594 130.75 L 27.273438 129.761719 L 24.691406 128.261719 L 23.417969 128.453125 L 21.441406 128.453125 L 18.765625 126.671875 L 16.089844 125.492188 L 14.210938 123.804688 L 12.328125 122.210938 L 12.710938 120.042969 L 11.308594 116.285156 L 11.308594 114.214844 L 10.226562 113.128906 L 9.335938 110.867188 L 8.632812 106.40625 L 8.632812 108.667969 L 8.730469 111.824219 L 9.527344 114.882812 L 7.933594 114.882812 L 7.933594 113.480469 L 6.53125 109.910156 L 6.023438 106.4375 L 5.128906 102.871094 L 4.84375 98.21875 L 5.035156 95.542969 L 4.140625 93.566406 L 4.109375 92.132812 Z M 157.832031 54.0625 L 157.546875 54.890625 L 157.386719 55.941406 L 157.929688 57.089844 L 157.640625 57.917969 L 157.578125 58.746094 L 157.832031 59.703125 L 158.183594 60.304688 L 158.980469 60.050781 L 160.605469 59.703125 L 161.433594 58.648438 L 162.324219 58.300781 L 163.027344 57.664062 L 163.28125 56.832031 L 162.578125 55.941406 L 162.769531 54.890625 L 162.386719 53.933594 L 162.386719 53.042969 L 161.65625 52.882812 L 161.113281 52.722656 L 160.316406 53.328125 L 159.777344 53.585938 L 158.882812 54.09375 L 158.597656 53.902344 L 157.863281 54.0625 Z M 207.726562 170.414062 L 206.707031 171.527344 L 203.648438 174.492188 L 202.246094 177.070312 L 199.664062 180.226562 L 196.097656 183.09375 L 193.609375 185.484375 L 192.816406 188.445312 L 190.425781 190.421875 L 186.855469 193.097656 L 183.480469 195.359375 L 181.980469 196.953125 L 179.113281 199.117188 L 176.535156 200.902344 L 174.367188 202.175781 L 169.90625 201.796875 L 170.003906 200.519531 L 171.882812 197.75 L 174.144531 195.074219 L 174.144531 192.398438 L 175.546875 190.007812 L 177.042969 188.03125 L 178.320312 186.246094 L 178.414062 185.960938 L 178.921875 182.394531 L 179.527344 179.335938 L 181.21875 176.753906 L 184.179688 175.257812 L 185.265625 172.769531 L 186.058594 171.371094 L 186.855469 168.40625 L 187.367188 164.550781 L 187.460938 160.792969 L 186.285156 158.914062 L 185.996094 156.746094 L 187.078125 154.769531 L 187.972656 152.988281 L 187.972656 150.597656 L 188.671875 149.003906 L 186.699219 147.824219 L 184.117188 149.003906 L 182.621094 146.136719 L 179.753906 145.246094 L 176.882812 146.933594 L 173.601562 146.742188 L 168.761719 146.230469 L 166.976562 148.113281 L 163.3125 146.933594 L 160.539062 144.542969 L 157.769531 142.566406 L 157.257812 139.191406 L 154.773438 136.707031 L 152.894531 134.636719 L 152.511719 132.148438 L 152.703125 129.570312 L 154.679688 126.605469 L 154.679688 124.441406 L 152.417969 118.800781 L 152.703125 116.632812 L 156.273438 111.472656 L 159.425781 105.132812 L 162.804688 104.941406 L 164.394531 102.777344 L 164.777344 100.386719 L 163.183594 99.207031 L 164.777344 98.027344 L 165.382812 95.863281 L 168.15625 94.875 L 168.953125 92.613281 L 169.558594 91.210938 L 171.945312 91.816406 L 173.828125 92.996094 L 176.3125 92.613281 L 178.699219 90.222656 L 183.640625 88.726562 L 189.46875 88.628906 L 192.242188 89.234375 L 193.324219 90.734375 L 192.816406 92.898438 L 192.910156 95.289062 L 196.476562 96.5625 L 199.15625 97.644531 L 200.9375 99.621094 L 204.890625 100.132812 L 206.671875 97.871094 L 206.769531 96.371094 L 209.160156 97.074219 L 209.859375 98.855469 L 212.917969 99.144531 L 215.59375 99.144531 L 217.472656 98.953125 L 217.472656 95.480469 L 217.28125 91.210938 L 214.128906 90.222656 L 210.179688 89.9375 L 209.988281 86.558594 L 209.09375 85.476562 L 208.585938 83.308594 L 206.101562 82.320312 L 205.589844 83.820312 L 207.46875 85.410156 L 207.183594 88.695312 L 206.800781 89.488281 L 204.539062 87.003906 L 203.359375 84.042969 L 202.179688 83.246094 L 201.289062 82.066406 L 201.289062 79.804688 L 199.21875 78.210938 L 196.925781 76.523438 L 194.949219 75.027344 L 194.4375 73.75 L 193.261719 73.242188 L 191.984375 73.847656 L 192.878906 75.535156 L 195.042969 78.117188 L 197.625 79.390625 L 199.886719 81.460938 L 200.683594 82.164062 L 199.792969 82.863281 L 199.792969 83.851562 L 199.695312 85.921875 L 198.707031 86.71875 L 198.515625 88.214844 L 197.816406 88.820312 L 197.117188 88.023438 L 195.042969 88.121094 L 195.140625 86.527344 L 196.414062 85.921875 L 198.101562 86.015625 L 198.390625 85.03125 L 196.703125 83.339844 L 195.011719 81.460938 L 193.515625 79.964844 L 192.113281 79.582031 L 190.136719 77 L 188.164062 74.835938 L 186.570312 75.121094 L 185.867188 76.109375 L 183 76.394531 L 181.21875 76.203125 L 181.503906 78.976562 L 180.898438 80.761719 L 179.210938 81.75 L 178.320312 82.832031 L 178.128906 85.316406 L 177.042969 87.195312 L 177.042969 88.28125 L 174.878906 88.882812 L 173.1875 88.882812 L 171.214844 89.871094 L 170.511719 90.574219 L 169.238281 89.679688 L 168.441406 88.789062 L 163.597656 88.597656 L 164.109375 86.71875 L 162.613281 85.445312 L 163.3125 83.753906 L 163.503906 81.078125 L 163.121094 80.1875 L 163.121094 77.796875 L 162.929688 76.90625 L 163.632812 75.917969 L 165.796875 75.40625 L 169.269531 76.011719 L 171.753906 75.917969 L 172.742188 75.21875 L 174.144531 75.503906 L 174.429688 74.804688 L 174.050781 71.839844 L 172.167969 69.578125 L 170.671875 68.304688 L 168.601562 68.496094 L 168.21875 67.601562 L 167.519531 66.519531 L 168.410156 65.4375 L 170.386719 65.4375 L 171.5625 64.257812 L 173.539062 64.257812 L 174.050781 63.175781 L 174.144531 62.089844 L 175.832031 61.390625 L 177.617188 60.304688 L 177.332031 58.332031 L 177.714844 56.546875 L 179.59375 56.261719 L 180.582031 55.972656 L 180.675781 54 L 179.976562 53.011719 L 179.179688 52.308594 L 178.574219 51.609375 L 178.957031 48.644531 L 179.847656 48.550781 L 180.039062 49.730469 L 180.421875 49.125 L 180.613281 50.207031 L 181.503906 51.289062 L 182.777344 52.085938 L 182.492188 52.882812 L 182.777344 54.570312 L 183.160156 55.175781 L 185.644531 54.890625 L 186.824219 54.378906 L 187.621094 54.890625 L 188.511719 54.285156 L 189.691406 53.296875 L 191.570312 53.808594 L 192.273438 53.296875 L 191.667969 51.320312 L 190.488281 50.046875 L 190.394531 48.867188 L 191.191406 48.679688 L 192.175781 48.296875 L 191.570312 47.691406 L 190.488281 47.691406 L 189.5 47.085938 L 189.5 46.097656 L 189.597656 45.300781 L 191.191406 44.695312 L 192.082031 44.410156 L 191.796875 43.324219 L 189.53125 43.835938 L 188.035156 43.929688 L 186.855469 42.527344 L 185.074219 41.445312 L 183.289062 40.171875 L 183.289062 38.992188 L 183.480469 36.601562 L 183.097656 34.914062 L 182.207031 33.640625 L 181.917969 32.144531 L 181.535156 30.867188 L 181.441406 29.371094 L 180.738281 30.644531 L 180.546875 32.8125 L 181.632812 34.214844 L 181.441406 36.285156 L 181.152344 37.6875 L 181.152344 39.375 L 182.554688 41.351562 L 183.542969 42.335938 L 184.945312 44.3125 L 184.945312 45.394531 L 185.453125 46.894531 L 185.265625 47.882812 L 185.964844 49.28125 L 185.773438 50.367188 L 184.59375 51.640625 L 183.511719 51.355469 L 183.226562 50.175781 L 182.9375 48.488281 L 181.058594 47.785156 L 179.878906 46.382812 L 179.082031 45.492188 L 178.382812 46 L 177.679688 46.988281 L 177.074219 48.074219 L 174.910156 47.277344 L 172.839844 45.585938 L 171.054688 42.71875 L 170.351562 42.113281 L 170.066406 39.851562 L 171.851562 37.175781 L 172.042969 35.996094 L 170.957031 32.429688 L 171.339844 29.371094 L 171.339844 27.875 L 171.148438 25.292969 L 172.328125 23.890625 L 173.507812 23.285156 L 175.003906 24.464844 L 178.382812 25.738281 L 181.25 26.25 L 181.34375 26.214844 C 207.152344 46.480469 223.75 77.957031 223.75 113.289062 C 223.75 118.640625 223.367188 123.929688 222.636719 129.089844 L 221.773438 125.269531 L 221.582031 120.710938 L 221.203125 117.941406 L 221.011719 113.988281 L 220.628906 110.613281 L 219.640625 108.828125 L 219.035156 107.042969 L 217.855469 104.65625 L 217.855469 108.222656 L 219.035156 110.804688 L 219.832031 114.753906 L 219.832031 117.527344 L 219.640625 122.082031 L 221.042969 127.242188 L 222.03125 129.632812 L 222.253906 131.992188 C 219.894531 145.882812 214.925781 158.914062 207.914062 170.507812 Z M 208.9375 70.597656 L 208.839844 72.191406 L 209.539062 73.019531 L 209.285156 74.453125 L 208.902344 75.503906 L 209.160156 76.777344 L 209.253906 77.957031 L 210.785156 79.230469 L 211.292969 79.773438 L 211.835938 78.816406 L 212.664062 77.859375 L 214.160156 78.371094 L 215.050781 78.976562 L 215.148438 79.582031 L 215.59375 79.644531 L 216.230469 79.039062 L 216.613281 78.339844 L 216.453125 76.046875 L 215.179688 75.3125 L 212.949219 73.71875 L 213.140625 72.890625 L 212.695312 71.042969 L 212.25 72.03125 L 211.960938 72.859375 L 211.324219 72.605469 L 210.816406 72.0625 L 210.558594 71.074219 L 209.921875 70.4375 L 209.574219 70.4375 L 208.9375 70.535156 Z M 160.253906 47.914062 L 160.09375 48.804688 L 160.699219 49.316406 L 160.605469 50.398438 L 161.785156 50.558594 L 162.484375 50.75 L 162.421875 51.257812 L 163.058594 52.054688 L 163.757812 52.054688 L 163.757812 53.105469 L 164.746094 53.457031 L 166.179688 53.519531 L 165.988281 55.242188 L 165.636719 57.121094 L 165.351562 57.566406 L 165.414062 58.839844 L 166.210938 60.082031 L 166.371094 61.167969 L 166.277344 61.996094 L 165.894531 62.441406 L 165.605469 63.398438 L 166.402344 63.554688 L 166.464844 62.824219 L 167.105469 62.089844 L 168.953125 62.089844 L 169.492188 61.390625 L 170.640625 60.945312 L 171.820312 61.007812 L 172.773438 60.910156 L 173.222656 60.5625 L 174.496094 59.925781 L 174.304688 57.886719 L 173.410156 57.25 L 171.722656 56.800781 L 171.023438 56.003906 L 170.957031 55.050781 L 168.917969 54.667969 L 168.539062 53.425781 L 168.089844 52.722656 L 167.582031 51.925781 L 166.878906 51.578125 L 166.816406 50.683594 L 166.722656 49.539062 L 166.433594 48.996094 L 165.03125 48.804688 L 164.078125 48.167969 L 163.535156 47.53125 L 162.644531 47.246094 L 162.039062 46.734375 L 161.496094 47.277344 L 160.253906 47.976562 Z M 132.472656 33.640625 L 131.960938 30.964844 L 134.351562 30.070312 L 137.507812 31.15625 L 139.386719 30.644531 L 143.144531 30.550781 L 144.738281 32.046875 L 145.121094 33.542969 L 144.609375 35.328125 L 143.113281 36.410156 L 138.75 36.125 L 138.367188 36.507812 L 135.59375 36.222656 L 134.414062 34.339844 L 132.441406 33.640625 Z M 144.355469 7.070312 C 147.925781 8.121094 151.429688 9.363281 154.835938 10.734375 L 154.074219 12.039062 L 152.195312 12.230469 L 150.410156 12.136719 L 148.242188 10.0625 L 145.28125 10.445312 L 144.292969 8.472656 L 144.484375 7.386719 L 144.386719 7.070312 Z M 76.652344 8.695312 C 83.027344 6.496094 89.652344 4.839844 96.472656 3.789062 L 96.40625 4.425781 L 95.515625 5.605469 L 93.539062 6.113281 L 91.46875 6.496094 L 90.578125 7.675781 L 87.421875 8.058594 L 85.925781 9.457031 L 84.746094 10.734375 L 83.152344 10.542969 L 81.464844 12.804688 L 81.179688 12.898438 L 76.429688 12.898438 L 76.144531 11.625 L 76.75 10.03125 L 76.71875 8.628906 Z M 109.375 42.976562 L 107.207031 44.25 L 105.136719 44.25 L 104.054688 42.179688 L 101.792969 41.890625 L 100.390625 41 L 97.523438 37.429688 L 95.929688 34.148438 L 94.75 32.175781 L 95.039062 31.664062 L 95.832031 29.59375 L 95.453125 27.808594 L 97.425781 27.203125 L 98.828125 27.203125 L 99.53125 26.214844 L 98.925781 25.230469 L 97.9375 25.929688 L 96.34375 25.546875 L 96.535156 23.761719 L 98.222656 23.667969 L 98.605469 23.285156 L 98.414062 22.394531 L 96.820312 21.789062 L 96.023438 21.40625 L 96.40625 20.417969 L 97.203125 19.71875 L 96.917969 17.933594 L 96.214844 15.449219 L 93.828125 14.554688 L 91.566406 14.363281 L 88.984375 13.984375 L 87.902344 12.707031 L 87.902344 10.636719 L 89.398438 9.554688 L 92.773438 8.851562 L 94.65625 8.664062 L 95.453125 6.6875 L 97.617188 6.6875 L 98.320312 7.292969 L 100.101562 6.019531 L 103.066406 5.414062 L 105.550781 6.589844 L 106.347656 5.605469 L 110.203125 4.519531 L 111.988281 3.820312 L 117.625 3.820312 L 120.683594 3.914062 L 121.480469 4.808594 L 122.5625 5.09375 L 125.144531 5.09375 L 127.40625 4.710938 L 127.917969 6.589844 L 127.3125 7.867188 L 128.109375 10.351562 L 130.273438 11.339844 L 129.765625 12.515625 L 129.765625 13.917969 L 130.148438 14.207031 L 133.523438 14.90625 L 132.027344 17.296875 L 132.535156 19.175781 L 131.929688 20.578125 L 132.21875 22.171875 L 132.3125 24.433594 L 130.148438 25.929688 L 128.554688 28 L 125.589844 28.382812 L 121.640625 27.585938 L 121.128906 28.480469 L 119.953125 30.453125 L 117.179688 31.855469 L 112.527344 32.367188 L 112.242188 34.246094 L 111.0625 35.839844 L 110.554688 37.910156 L 109.851562 38.800781 L 109.054688 39.503906 L 109.34375 43.070312 Z M 64.613281 20.386719 L 64.515625 22.457031 L 64.230469 23.0625 L 66.203125 24.464844 L 66.714844 24.464844 L 69.996094 23.285156 L 70.984375 24.972656 L 72.765625 26.949219 L 72.765625 27.332031 L 72.257812 29.308594 L 72.160156 29.816406 L 71.460938 31.21875 L 70.855469 31.21875 L 69.773438 32.015625 L 69.167969 32.90625 L 67.667969 32.621094 L 66.96875 33.320312 L 65.886719 34.308594 L 67.289062 34.820312 L 68.179688 34.214844 C 68.53125 34.246094 68.5 34.183594 68.5625 34.40625 L 70.058594 35.105469 L 69.867188 36.699219 L 69.867188 36.984375 L 70.570312 37.878906 L 73.148438 38.070312 L 73.945312 38.769531 L 75.125 39.46875 L 75.636719 38.195312 L 77.132812 37.113281 L 79.109375 36.125 L 79.203125 35.136719 L 77.324219 33.734375 L 77.417969 33.351562 L 78.3125 31.28125 L 81.59375 30.199219 L 81.59375 30.484375 L 80.988281 32.972656 L 81.6875 33.480469 L 81.976562 33.480469 L 83.855469 31.984375 L 85.449219 30.996094 L 85.542969 29.210938 L 82.769531 28.703125 L 82.769531 28.191406 L 82.261719 27.203125 L 80.765625 26.820312 L 80.957031 26.121094 L 81.242188 25.230469 L 81.527344 24.050781 L 79.363281 21.46875 L 78.375 21.660156 L 76.496094 19.589844 L 76.496094 19.207031 L 76.6875 17.136719 L 74.617188 17.136719 L 72.542969 16.851562 L 70.570312 17.835938 L 68.6875 18.539062 L 67 20.417969 L 66.300781 20.226562 L 64.613281 20.515625 Z M 35.808594 116.253906 L 36.863281 114.628906 L 38.390625 115.359375 L 39.472656 115.457031 L 40.207031 114.5625 L 43.328125 115.007812 L 44.03125 116.1875 L 46.355469 116.792969 L 48.234375 117.878906 L 49.667969 118.578125 L 51.167969 119.757812 L 51.996094 120.457031 L 51.261719 121.160156 L 48.648438 121.445312 L 46.578125 121.0625 L 45.144531 119.085938 L 42.628906 118.386719 L 41.640625 118.640625 L 40.589844 117.460938 L 39.089844 116.824219 L 37.945312 117.71875 L 37.117188 118.355469 L 35.875 117.527344 L 35.808594 116.285156 Z M 51.644531 122.972656 L 53.171875 123.039062 L 53.96875 122.144531 L 55.246094 120.96875 L 55.402344 120.902344 L 57.730469 121.160156 L 59.703125 122.65625 L 60.882812 123.804688 L 58.84375 124.855469 L 57.570312 124.664062 L 57.285156 125.203125 L 56.007812 125.140625 L 54.925781 124.058594 L 52.855469 124.410156 L 52.472656 123.960938 L 51.964844 123.578125 L 51.675781 123.039062 Z M 42.375 79.644531 L 42.46875 78.050781 L 43.742188 77.257812 L 44.03125 77.257812 L 46.898438 77.636719 L 47.183594 75.949219 L 49.0625 75.566406 L 50.753906 74.867188 L 51.550781 76.363281 L 49.382812 76.652344 L 48.300781 76.554688 L 47.503906 78.339844 L 46.609375 79.230469 L 44.347656 78.53125 L 44.0625 79.519531 L 42.375 79.613281 Z M 34.152344 68.460938 L 33.644531 69.355469 L 35.714844 70.152344 L 36.605469 68.972656 L 38.582031 68.082031 L 38.675781 68.589844 L 38.675781 69.992188 L 39.378906 69.992188 L 39.378906 70.5 L 38.867188 71.488281 L 38.167969 72.09375 L 37.179688 73.59375 L 36.894531 75.183594 L 35.90625 76.554688 L 35.300781 78.847656 L 36.988281 78.5625 L 36.988281 76.300781 L 38.675781 74.613281 L 38.867188 73.527344 L 40.367188 72.921875 L 40.269531 71.234375 L 41.449219 70.628906 L 41.640625 70.914062 L 41.925781 71.902344 L 41.925781 73.304688 L 42.628906 73.59375 L 42.339844 74.769531 C 42.339844 75.152344 42.277344 75.058594 42.4375 75.375 L 43.328125 76.269531 L 43.933594 75.980469 L 44.539062 75.183594 L 44.539062 73.6875 L 45.71875 72.890625 L 46.609375 73.972656 L 47.214844 72.890625 L 46.515625 71.488281 L 44.636719 71.488281 L 44.636719 70.597656 L 42.753906 69.417969 L 42.46875 67.253906 L 40.492188 66.871094 L 40.398438 66.265625 L 39.125 65.085938 L 38.519531 66.074219 L 37.625 67.15625 L 35.652344 67.539062 L 34.855469 68.527344 L 34.152344 68.527344 Z M 34.152344 68.460938 " fill-opacity="1" fill-rule="evenodd"/></svg>