<?xml version="1.0" encoding="UTF-8"?>
<svg version="1.1" xmlns="http://www.w3.org/2000/svg" width="1500" height="1000">
<path d="M0 0 C0.23783203 1.61841797 0.23783203 1.61841797 0.48046875 3.26953125 C3.40347022 22.3844508 8.58433651 40.14928373 16 58 C16.24685547 58.59445923 16.49371094 59.18891846 16.74804688 59.8013916 C25.39377588 80.55514385 35.21432997 100.47257073 45.90644836 120.2407074 C49.14300137 126.23487984 52.2633914 132.283211 55.3125 138.375 C55.7259668 139.19323242 56.13943359 140.01146484 56.56542969 140.85449219 C61.87925683 151.53081599 66.07895513 162.5791408 69.875 173.875 C70.19748718 174.83045212 70.19748718 174.83045212 70.52648926 175.8052063 C73.85747981 185.73967218 76.48607772 195.71094963 78.75 205.9375 C83.70414587 228.18653085 92.89680388 246.1674671 107 264 C107.64066406 264.84433594 108.28132813 265.68867188 108.94140625 266.55859375 C112.07360399 270.67848235 115.29486406 274.3727498 119 278 C124.17862573 283.10369385 129.28732776 288.19297991 134.0078125 293.7265625 C135.63969931 295.58883333 137.29936293 297.40476819 138.9921875 299.2109375 C139.7958374 300.06981567 139.7958374 300.06981567 140.61572266 300.94604492 C141.68213084 302.08238935 142.75197068 303.21552586 143.82568359 304.3449707 C146.01787965 306.68571174 147.89191012 308.81957725 149.546875 311.58203125 C151.31889229 314.53062992 153.54924511 316.59380429 156 319 C193.75121677 365.84457556 228.74725752 431.34189704 222.18847656 493.28271484 C220.72003773 505.84835572 218.66703603 517.88479241 215 530 C214.76861328 530.77375977 214.53722656 531.54751953 214.29882812 532.34472656 C202.80717136 569.82496754 181.59475619 604.75454723 160.09887695 637.21386719 C156.75506942 642.26508178 153.54158251 647.3638989 150.44946289 652.57299805 C148.11332814 656.48465639 145.68491887 660.33680801 143.25 664.1875 C142.72760742 665.01499756 142.20521484 665.84249512 141.66699219 666.69506836 C138.59931112 671.53511477 135.46549724 676.31979449 132.25 681.0625 C127.60169876 687.9322243 123.26999365 694.99080858 118.9375 702.0625 C118.23471681 703.20782361 117.5318367 704.35308775 116.82885742 705.49829102 C113.18385633 711.43560011 113.18385633 711.43560011 109.54785156 717.37841797 C94.4866871 741.96819346 74.32894073 753.18907116 47 760 C23.02951361 765.53863511 -2.9375091 764.07099544 -27 760 C-27.69303223 759.88785156 -28.38606445 759.77570312 -29.10009766 759.66015625 C-54.04221308 755.54860937 -86.31965854 747.15370325 -104 728 C-104.804375 727.2575 -105.60875 726.515 -106.4375 725.75 C-112.01425568 719.76518902 -115.89953432 712.52781519 -119.89624023 705.43554688 C-126.10600254 694.44196118 -132.707908 684.50859652 -141 675 C-141.65484375 674.21882812 -142.3096875 673.43765625 -142.984375 672.6328125 C-146.69516689 668.25816334 -150.72363027 664.24636349 -154.8125 660.2265625 C-156.82181636 658.18136549 -158.66476747 656.07557975 -160.5 653.875 C-162.94808043 651.00757246 -165.47936973 648.75526787 -168.5 646.5 C-172.13277734 643.77998078 -174.93594632 640.94234431 -177.828125 637.46484375 C-182.91074055 631.69662358 -188.53187528 626.39986796 -194 621 C-194.7425 621.928125 -195.485 622.85625 -196.25 623.8125 C-201.204114 629.69887712 -201.204114 629.69887712 -205.5859375 630.43359375 C-213.0701039 630.44407578 -216.78187985 629.14472443 -222.2265625 623.82421875 C-226.17675768 619.80169605 -229.99623646 615.66218074 -233.828125 611.52734375 C-237.1544909 607.94788479 -240.52756763 604.43925626 -244 601 C-245.00649874 599.97261675 -246.01162455 598.94388731 -247.015625 597.9140625 C-253.02647091 591.78220524 -258.9953904 586.00695129 -266 581 C-266.69480469 580.46503906 -267.38960937 579.93007813 -268.10546875 579.37890625 C-287.12305637 565.20572994 -309.68491154 557.37523552 -333 554 C-334.89105469 553.72349609 -334.89105469 553.72349609 -336.8203125 553.44140625 C-384.83077629 547.63807063 -427.15337323 568.89228658 -463.97265625 597.29296875 C-490.88609855 617.89469467 -521.56626513 628.16043884 -553.82415771 637.13276672 C-562.07882035 639.42995442 -570.22492687 641.92544277 -578.31640625 644.74609375 C-580.27599715 645.41314431 -582.24227976 646.06693424 -584.23754883 646.61816406 C-591.4145869 648.60130244 -597.89025307 651.59726373 -604.5625 654.875 C-605.63435547 655.39191406 -606.70621094 655.90882813 -607.81054688 656.44140625 C-613.33600109 659.12471551 -618.76266693 661.90222771 -624.07177734 664.9934082 C-631.91840233 669.08958886 -639.91804298 668.82353961 -648.125 666.25 C-657.36607023 662.9371635 -664.12355702 657.61504927 -669 649 C-673.49094961 638.83529924 -671.45236205 629.15892063 -669.9375 618.5 C-664.87158665 580.96618742 -683.48220891 544.94544435 -703.13525391 514.18798828 C-711.50181149 501.01107591 -719.11511982 487.2800323 -725.921875 473.234375 C-727.47845947 470.02527342 -729.10899061 466.8617148 -730.765625 463.703125 C-741.20211513 443.63842624 -750.65049284 422.30790176 -755 400 C-755.22042969 399.02546875 -755.44085937 398.0509375 -755.66796875 397.046875 C-760.29185494 374.33087037 -755.59563253 352.64122398 -743.25 333.1875 C-738.41351436 326.33581201 -732.80635811 319.95319842 -726 315 C-725.34 315 -724.68 315 -724 315 C-724 314.34 -724 313.68 -724 313 C-721.68694155 311.12161025 -719.37539207 309.39271902 -716.9375 307.6875 C-716.18307617 307.15914551 -715.42865234 306.63079102 -714.65136719 306.08642578 C-696.04188633 293.32102756 -675.52284232 282.57646145 -654.375 274.6875 C-618.57264015 261.29478051 -589.04667054 244.21931933 -572 209 C-569.37913392 203.14640667 -567.07264069 197.16394163 -564.75 191.1875 C-564.14666502 189.65396941 -563.54250047 188.12076492 -562.9375 186.58789062 C-559.85687103 178.77541684 -559.85687103 178.77541684 -556.83227539 170.94116211 C-549.87777215 152.93617897 -536.34312533 139.19597217 -523 125.6875 C-521.62968628 124.29047852 -521.62968628 124.29047852 -520.23168945 122.86523438 C-512.00493466 114.64803788 -503.13705263 107.83751315 -492.9375 102.25 C-491.91245361 101.68442383 -491.91245361 101.68442383 -490.86669922 101.10742188 C-477.85397884 94.03361973 -468.00657258 91.74480034 -453.4375 95.375 C-428.33220287 101.40689977 -405.24847284 100.11882372 -382.6796875 87.08203125 C-375.83519731 82.69700621 -369.91067329 77.55365276 -364 72 C-362.50742705 70.63765153 -361.00799303 69.28275997 -359.5 67.9375 C-358.8709375 67.36902344 -358.241875 66.80054688 -357.59375 66.21484375 C-356 65 -356 65 -354 65 C-353.34 63.68 -352.68 62.36 -352 61 C-351.34 61 -350.68 61 -350 61 C-349.78730469 60.29488281 -349.57460938 59.58976562 -349.35546875 58.86328125 C-347.6480286 55.25649846 -345.16872575 52.88647434 -342.3125 50.1875 C-341.21676756 49.12573998 -340.12300854 48.06193953 -339.03125 46.99609375 C-338.5053125 46.48288574 -337.979375 45.96967773 -337.4375 45.44091797 C-335.62663166 43.62574389 -333.96075342 41.71313202 -332.3125 39.75 C-320.98231567 26.48539395 -304.44692801 15.8869063 -287 13.25 C-285.66800005 13.14753847 -284.33433036 13.06545772 -283 13 C-282.21367188 12.92523438 -281.42734375 12.85046875 -280.6171875 12.7734375 C-267.01850325 12.03732639 -253.12671019 16.65754827 -240.25 20.625 C-220.50998814 26.60978098 -197.95921493 29.7171812 -178.12109375 22.77734375 C-174.38130124 21.84590607 -171.73762152 22.13989673 -168 23 C-162.88043682 27.42773032 -162.27072643 33.47580685 -161.77734375 39.8984375 C-161.3263123 55.15506649 -168.23614371 64.36379595 -177.2578125 75.8828125 C-183.3442458 83.82063236 -189 93.70819997 -189 104 C-186.04989381 117.55130078 -175.88653709 125.16553944 -165.33984375 133.19140625 C-162.71899058 135.21720762 -160.17413871 137.32225724 -157.625 139.4375 C-141.63960087 152.53051338 -124.19533353 163.28507489 -106 173 C-105.36433105 173.34579102 -104.72866211 173.69158203 -104.07373047 174.04785156 C-93.81116839 179.6137081 -82.91998566 184.6953325 -71 184 C-61.46005071 179.32737178 -58.02169337 170.28095155 -54.4921875 160.87890625 C-49.10453057 144.1707009 -47.03444957 126.76068801 -44.57543945 109.4453125 C-42.85224437 97.37863249 -41.02462157 85.37935149 -38.44921875 73.4609375 C-38.25376968 72.553508 -38.05832062 71.64607849 -37.85694885 70.71115112 C-33.74362954 52.37677429 -26.65726498 33.55204222 -16 18 C-15.23233979 16.57185293 -14.48055453 15.1349793 -13.75 13.6875 C-6.25446429 0 -6.25446429 0 0 0 Z " fill="#02B2E4" transform="translate(1018,104)"/>
<path d="M0 0 C0.33 0 0.66 0 1 0 C1 1.98 1 3.96 1 6 C1.66 6 2.32 6 3 6 C3.40313619 15.72006152 2.66769302 24.83179364 0.97924805 34.4128418 C-0.12269784 41.07759981 -0.34444142 47.63142816 1.66577148 54.16333008 C1.77606689 54.76943115 1.8863623 55.37553223 2 56 C1.34 56.66 0.68 57.32 0 58 C-3.65030052 48.86393711 -2.92470782 41.11411292 -1.4765625 31.5390625 C0.1066269 20.96152171 0.19514835 10.67895159 0 0 Z " fill="#78D4ED" transform="translate(349,695)"/>
<path d="M0 0 C0.33 0 0.66 0 1 0 C0.85552017 1.50013097 0.70932785 3.00009702 0.5625 4.5 C0.48128906 5.3353125 0.40007812 6.170625 0.31640625 7.03125 C0.07556772 9.29096951 -0.21308338 11.5456496 -0.5234375 13.796875 C-1.06757145 18.12138851 -1.19127175 22.39457206 -1.1875 26.75 C-1.18814453 27.5342334 -1.18878906 28.3184668 -1.18945312 29.12646484 C-1.13921658 34.69472934 -0.52703892 39.96011308 0.5546875 45.4296875 C1.17472479 49.0084992 1.13931953 52.37769226 1 56 C-7.03554408 42.06007788 -5.41643976 20.69150202 -1.75390625 5.6875 C-1.21805226 3.77730548 -0.6273741 1.8821223 0 0 Z " fill="#7ED6EE" transform="translate(265,456)"/>
<path d="M0 0 C0.99 0.33 1.98 0.66 3 1 C2.18208984 1.47566406 2.18208984 1.47566406 1.34765625 1.9609375 C-4.30084837 5.45625147 -8.36377723 9.40337511 -12.68359375 14.421875 C-15.7268482 17.80897101 -19.07388082 20.74960542 -22.4921875 23.75 C-26.49034065 27.33712806 -30.24397986 31.16232724 -34 35 C-34 32 -34 32 -31.62109375 29.36328125 C-30.56653199 28.33947404 -29.50488742 27.32292853 -28.4375 26.3125 C-27.32353752 25.2325107 -26.21154949 24.15048105 -25.1015625 23.06640625 C-24.56305664 22.54062988 -24.02455078 22.01485352 -23.46972656 21.47314453 C-21.64783748 19.6470185 -19.97002909 17.72568041 -18.3125 15.75 C-13.14727569 9.70290813 -7.01181249 3.83980208 0 0 Z " fill="#6FD0EE" transform="translate(704,128)"/>
<path d="M0 0 C0 0.33 0 0.66 0 1 C-1.38445313 1.12955078 -1.38445313 1.12955078 -2.796875 1.26171875 C-10.84169675 2.12820647 -18.58745321 3.4587631 -26.4375 5.4375 C-27.66001465 5.74530396 -27.66001465 5.74530396 -28.90722656 6.05932617 C-33.70461284 7.30647102 -38.3417426 8.77069066 -42.97680664 10.53149414 C-45.32642135 11.07558858 -46.73571938 10.75433672 -49 10 C-32.4408588 3.39395963 -17.95051596 -0.79977546 0 0 Z " fill="#7EDCF2" transform="translate(656,656)"/>
<path d="M0 0 C0.33 0 0.66 0 1 0 C1.17444825 1.58249487 1.33892422 3.16608813 1.5 4.75 C1.5928125 5.63171875 1.685625 6.5134375 1.78125 7.421875 C2.38761053 17.34020087 1.73653079 26.90231335 0.5 36.75 C0.35691406 37.9359375 0.21382812 39.121875 0.06640625 40.34375 C-0.28273707 43.23000148 -0.63829033 46.11530122 -1 49 C-1.33 49 -1.66 49 -2 49 C-2.02745125 46.54158803 -2.04705165 44.08349467 -2.0625 41.625 C-2.07506836 40.60599609 -2.07506836 40.60599609 -2.08789062 39.56640625 C-2.1097581 34.88676753 -1.76128634 30.33622739 -1.25610352 25.68603516 C-0.78641931 20.75994782 -0.62932267 15.81836452 -0.4375 10.875 C-0.39431641 9.823125 -0.35113281 8.77125 -0.30664062 7.6875 C-0.20181491 5.12509373 -0.09964645 2.56261201 0 0 Z " fill="#8FDFF2" transform="translate(1239,565)"/>
<path d="M0 0 C8.30079957 10.04963271 14.02469605 27.1343718 13 40 C11.49014139 37.17931873 10.486846 34.49198814 9.66796875 31.40234375 C9.42900879 30.52312256 9.19004883 29.64390137 8.94384766 28.73803711 C8.56945557 27.35177124 8.56945557 27.35177124 8.1875 25.9375 C6.27485878 18.99898786 4.22899899 12.46685656 0.8828125 6.05859375 C0 4 0 4 0 0 Z " fill="#77D7EE" transform="translate(336,654)"/>
<path d="M0 0 C0.73046875 1.74609375 0.73046875 1.74609375 1 4 C-0.51171875 6.03515625 -0.51171875 6.03515625 -2.6875 8.0625 C-3.39261719 8.73410156 -4.09773438 9.40570313 -4.82421875 10.09765625 C-10.4312115 15 -10.4312115 15 -15 15 C-15.33 15.99 -15.66 16.98 -16 18 C-19 20 -19 20 -21.1875 19.625 C-22.0846875 19.315625 -22.0846875 19.315625 -23 19 C-22.34515625 18.55011719 -21.6903125 18.10023438 -21.015625 17.63671875 C-13.43922624 12.29685579 -6.71239454 6.37267475 0 0 Z " fill="#44C2E9" transform="translate(430,339)"/>
<path d="M0 0 C0.33 0 0.66 0 1 0 C2.09375231 14.61374608 -3.38974092 27.81589116 -9 41 C-9.66 41 -10.32 41 -11 41 C-9.32918773 35.22686817 -7.49066937 29.54630278 -5.5 23.875 C-2.80492995 16.0643438 -1.31591708 8.1415683 0 0 Z " fill="#7AD7F0" transform="translate(970,237)"/>
<path d="M0 0 C0.33 0.66 0.66 1.32 1 2 C0.26245117 3.64135742 0.26245117 3.64135742 -0.95703125 5.60546875 C-1.4058667 6.33523926 -1.85470215 7.06500977 -2.31713867 7.81689453 C-2.81060791 8.59919434 -3.30407715 9.38149414 -3.8125 10.1875 C-4.30790283 10.98526855 -4.80330566 11.78303711 -5.3137207 12.60498047 C-10.04569969 20.17885126 -14.97895329 27.61546709 -20 35 C-20.33 33.68 -20.66 32.36 -21 31 C-20.34 31 -19.68 31 -19 31 C-18.67 29.68 -18.34 28.36 -18 27 C-17.34 27 -16.68 27 -16 27 C-15.89816406 26.26910156 -15.79632812 25.53820312 -15.69140625 24.78515625 C-14.92446001 21.69570616 -13.82790811 19.98244577 -11.9375 17.4375 C-9.05215166 13.46864949 -6.27499005 9.46304106 -3.5625 5.375 C-2.54349609 3.83972656 -2.54349609 3.83972656 -1.50390625 2.2734375 C-0.75947266 1.14808594 -0.75947266 1.14808594 0 0 Z " fill="#7DD8F0" transform="translate(1167,755)"/>
<path d="M0 0 C0.33 3.63 0.66 7.26 1 11 C-2 9 -2 9 -2.6875 6.875 C-2.790625 6.25625 -2.89375 5.6375 -3 5 C-8.05663427 8.42066436 -10.83507897 12.91002391 -14 18 C-14.33 17.01 -14.66 16.02 -15 15 C-13.65663507 12.86012666 -12.31308841 10.96692584 -10.75 9 C-10.34136719 8.46632813 -9.93273437 7.93265625 -9.51171875 7.3828125 C-3.80013993 0 -3.80013993 0 0 0 Z " fill="#72D5F1" transform="translate(1018,104)"/>
<path d="M0 0 C0.33 0.66 0.66 1.32 1 2 C0.42795287 3.67632859 -0.15357412 5.35028864 -0.79272461 7.00219727 C-3.598304 14.28353447 -4.72127669 19.42836486 -2 27 C-1.62875 28.19625 -1.2575 29.3925 -0.875 30.625 C-0.58625 31.40875 -0.2975 32.1925 0 33 C-3.54717289 30.75345717 -4.7038718 28.96196392 -6 25 C-7.23358907 16.05323297 -5.10279443 8.92310138 -1 1 C-0.67 0.67 -0.34 0.34 0 0 Z " fill="#7BDCEF" transform="translate(833,188)"/>
<path d="M0 0 C0.33 0 0.66 0 1 0 C1.22333691 7.24604198 1.01431828 14.36470718 0.1875 21.5625 C0.11740723 22.24054688 0.04731445 22.91859375 -0.02490234 23.6171875 C-0.51806886 27.54676977 -1.28627448 30.07809827 -4 33 C-3.33432507 21.91306929 -1.63964829 10.97623447 0 0 Z " fill="#78D4EC" transform="translate(975,203)"/>
<path d="M0 0 C0.66 0.33 1.32 0.66 2 1 C-1.75 4 -1.75 4 -4 4 C-4.20625 4.5775 -4.4125 5.155 -4.625 5.75 C-6 8 -6 8 -8.75 9.78125 C-12.18721791 12.12781222 -14.62950303 14.63348992 -17.375 17.75 C-18.24898438 18.73484375 -19.12296875 19.7196875 -20.0234375 20.734375 C-20.67570312 21.48203125 -21.32796875 22.2296875 -22 23 C-22.99 22.67 -23.98 22.34 -25 22 C-17.14586033 13.8362811 -9.50759842 6.24785039 0 0 Z " fill="#72D2EE" transform="translate(517,211)"/>
<path d="M0 0 C3.31674883 4.97512325 5.35455363 10.57200608 7.6875 16.0625 C8.21150391 17.27228516 8.73550781 18.48207031 9.27539062 19.72851562 C9.76587891 20.88158203 10.25636719 22.03464844 10.76171875 23.22265625 C11.21506592 24.28234619 11.66841309 25.34203613 12.13549805 26.43383789 C12.42078369 27.28067139 12.70606934 28.12750488 13 29 C12.67 29.66 12.34 30.32 12 31 C9.30971624 25.67820082 6.64399111 20.34494195 4 15 C3.53078125 14.05769531 3.0615625 13.11539063 2.578125 12.14453125 C0.5711292 7.91965966 -0.49157427 4.79284913 0 0 Z " fill="#7CDCEF" transform="translate(1030,154)"/>
<path d="M0 0 C4.5484792 9.0969584 3.94117715 19.44117427 1 29 C0.67 29 0.34 29 0 29 C0 19.43 0 9.86 0 0 Z " fill="#7FD9F0" transform="translate(853,132)"/>
<path d="M0 0 C0.66 0.33 1.32 0.66 2 1 C-2.2320599 5.94656352 -6.39549486 10.61790649 -11.5546875 14.61328125 C-13.24872042 16.23863716 -14.06164738 17.86365351 -15 20 C-15.66 20 -16.32 20 -17 20 C-15.56349127 15.57812117 -13.33322582 12.82846981 -10.1875 9.4375 C-9.33542969 8.50808594 -8.48335938 7.57867187 -7.60546875 6.62109375 C-5.19291124 4.19406813 -2.71786213 2.07377272 0 0 Z " fill="#73D2EE" transform="translate(292,419)"/>
<path d="M0 0 C-3.77096301 2.51397534 -7.59685434 3.70348578 -11.875 5.125 C-13.07962891 5.54072266 -13.07962891 5.54072266 -14.30859375 5.96484375 C-18.30326795 7.30078916 -21.72717016 8.39787484 -26 8 C-22.90538257 5.93692171 -20.03333405 4.75728366 -16.5625 3.4375 C-14.86287109 2.78587891 -14.86287109 2.78587891 -13.12890625 2.12109375 C-8.48999646 0.45896253 -4.94878797 -0.11247245 0 0 Z " fill="#7DD8F1" transform="translate(457,742)"/>
<path d="M0 0 C-3.2221324 1.51545463 -6.45373127 3.00955711 -9.6875 4.5 C-10.59951172 4.92925781 -11.51152344 5.35851562 -12.45117188 5.80078125 C-13.33740234 6.20683594 -14.22363281 6.61289062 -15.13671875 7.03125 C-15.94842529 7.40830078 -16.76013184 7.78535156 -17.59643555 8.17382812 C-20.20752678 9.07133272 -22.25875616 9.15359499 -25 9 C-21.82121308 5.82121308 -17.72516128 4.55021628 -13.625 2.8125 C-12.76132812 2.43158203 -11.89765625 2.05066406 -11.0078125 1.65820312 C-10.1725 1.30306641 -9.3371875 0.94792969 -8.4765625 0.58203125 C-7.71424316 0.25436768 -6.95192383 -0.0732959 -6.16650391 -0.41088867 C-3.70473929 -1.08028669 -2.3808567 -0.82887333 0 0 Z " fill="#7CD9EE" transform="translate(369,379)"/>
<path d="M0 0 C1 3 1 3 0.33496094 4.76171875 C-0.02823242 5.39722656 -0.39142578 6.03273438 -0.765625 6.6875 C-1.16136719 7.38617187 -1.55710937 8.08484375 -1.96484375 8.8046875 C-2.38894531 9.52914062 -2.81304688 10.25359375 -3.25 11 C-3.65863281 11.72445312 -4.06726562 12.44890625 -4.48828125 13.1953125 C-6.40803339 16.54098987 -8.16584709 19.34744508 -11 22 C-10.125 17.25 -10.125 17.25 -9 15 C-8.34 15 -7.68 15 -7 15 C-6.89816406 14.28457031 -6.79632812 13.56914063 -6.69140625 12.83203125 C-5.91567222 9.65458961 -4.67015917 7.45238165 -2.9375 4.6875 C-2.38964844 3.80449219 -1.84179688 2.92148437 -1.27734375 2.01171875 C-0.85582031 1.34785156 -0.43429687 0.68398438 0 0 Z " fill="#77DBF3" transform="translate(1207,689)"/>
<path d="M0 0 C3.07100006 3.63970378 4.84878366 7.68118756 6.75 12 C7.07871094 12.7115625 7.40742187 13.423125 7.74609375 14.15625 C9.40274281 17.90293311 10.29082087 20.09078035 9 24 C7.48772266 20.75557521 5.99236563 17.50362598 4.5 14.25 C4.07074219 13.32960938 3.64148437 12.40921875 3.19921875 11.4609375 C2.79316406 10.57148438 2.38710937 9.68203125 1.96875 8.765625 C1.40317383 7.54020996 1.40317383 7.54020996 0.82617188 6.29003906 C0 4 0 4 0 0 Z " fill="#7BD8EE" transform="translate(1073,244)"/>
<path d="M0 0 C-3.37148985 2.2476599 -5.9237222 2.79798837 -9.875 3.625 C-11.08929687 3.88539063 -12.30359375 4.14578125 -13.5546875 4.4140625 C-16.47090842 4.91001844 -19.05617097 5.12312593 -22 5 C-22 4.34 -22 3.68 -22 3 C-7.40318907 -0.44419134 -7.40318907 -0.44419134 0 0 Z " fill="#7CD8EF" transform="translate(1076,860)"/>
<path d="M0 0 C4.1526781 7.43871034 5.4951472 16.58249763 5 25 C4.67 25 4.34 25 4 25 C3.87625 23.96875 3.7525 22.9375 3.625 21.875 C3.05873728 18.36417115 2.18695201 15.33830253 1 12 C-0.32606461 8.02180616 -0.06926839 4.15610343 0 0 Z " fill="#7FDBEF" transform="translate(1234,540)"/>
<path d="M0 0 C2.56139016 3.84208524 3.20985157 7.47278786 4.1875 11.9375 C4.47270508 13.15469727 4.47270508 13.15469727 4.76367188 14.39648438 C4.93833984 15.18216797 5.11300781 15.96785156 5.29296875 16.77734375 C5.4530542 17.49140381 5.61313965 18.20546387 5.77807617 18.94116211 C6.02304943 21.21383485 5.67946622 22.83235338 5 25 C2.38045551 16.65400942 0.35765714 8.76260002 0 0 Z " fill="#87DEF1" transform="translate(1091,291)"/>
<path d="M0 0 C0 5.83999448 -4.85162284 11.5059681 -8.578125 15.83203125 C-9.67882757 16.92957088 -10.83239411 17.97392209 -12 19 C-11.39386998 15.87586715 -10.39972557 13.86630076 -8.49609375 11.328125 C-8.00302734 10.66425781 -7.50996094 10.00039063 -7.00195312 9.31640625 C-6.48568359 8.63449219 -5.96941406 7.95257812 -5.4375 7.25 C-4.65729492 6.20392578 -4.65729492 6.20392578 -3.86132812 5.13671875 C-2.57985819 3.42025444 -1.29067202 1.70955569 0 0 Z " fill="#8EDEF4" transform="translate(1127,819)"/>
<path d="M0 0 C0.99 0.33 1.98 0.66 3 1 C0.59223944 2.99020654 -1.82762278 4.96512077 -4.25 6.9375 C-4.93191406 7.50146484 -5.61382813 8.06542969 -6.31640625 8.64648438 C-6.98027344 9.18466797 -7.64414062 9.72285156 -8.328125 10.27734375 C-8.9355957 10.77484131 -9.54306641 11.27233887 -10.16894531 11.78491211 C-12.11631483 13.07718652 -13.71646131 13.57459173 -16 14 C-12.59644821 10.52218889 -9.10082022 7.2555101 -5.375 4.125 C-3.96347656 2.92230469 -3.96347656 2.92230469 -2.5234375 1.6953125 C-1.69070313 1.13585937 -0.85796875 0.57640625 0 0 Z " fill="#7DDAEF" transform="translate(559,694)"/>
<path d="M0 0 C-2.36630654 2.61109688 -4.18315085 3.89877662 -7.7109375 4.3359375 C-10.5290946 4.37292119 -13.20704039 4.38678668 -16 4 C-16.66 3.34 -17.32 2.68 -18 2 C-17.25234375 1.95101562 -16.5046875 1.90203125 -15.734375 1.8515625 C-14.74953125 1.77679687 -13.7646875 1.70203125 -12.75 1.625 C-11.28820312 1.52058594 -11.28820312 1.52058594 -9.796875 1.4140625 C-7.01876116 1.15371419 -7.01876116 1.15371419 -4.828125 -0.1015625 C-3 -1 -3 -1 0 0 Z " fill="#78D6EF" transform="translate(820,730)"/>
<path d="M0 0 C2.78992366 2.48740182 4.44594313 5.24218857 6.25 8.5 C6.79140625 9.4590625 7.3328125 10.418125 7.890625 11.40625 C9 14 9 14 8 17 C6.65546882 14.92317952 5.32444163 12.83957514 4 10.75 C3.6184375 10.16347656 3.236875 9.57695312 2.84375 8.97265625 C0.72252389 5.6014219 0 4.09419282 0 0 Z " fill="#6DD4ED" transform="translate(1199,461)"/>
<path d="M0 0 C2.12600304 3.18900456 3.02136239 5.90414569 4.125 9.5625 C4.47820312 10.71878906 4.83140625 11.87507812 5.1953125 13.06640625 C6 16 6 16 6 18 C5.34 18 4.68 18 4 18 C-0.59225513 6.66287016 -0.59225513 6.66287016 0 0 Z " fill="#6ED6EF" transform="translate(1022,131)"/>
<path d="M0 0 C3.80199928 1.51908323 5.77187204 3.77448786 8.3125 6.9375 C9.03050781 7.81277344 9.74851562 8.68804688 10.48828125 9.58984375 C10.98714844 10.38519531 11.48601563 11.18054688 12 12 C11.67 12.99 11.34 13.98 11 15 C9.16374012 12.68977044 7.33088988 10.37697874 5.5 8.0625 C4.71302734 7.0734668 4.71302734 7.0734668 3.91015625 6.06445312 C0 1.11328125 0 1.11328125 0 0 Z " fill="#76DDF0" transform="translate(877,778)"/>
<path d="M0 0 C-2.93270882 1.5613959 -5.82068273 2.66538899 -9 3.625 C-10.2684375 4.01558594 -10.2684375 4.01558594 -11.5625 4.4140625 C-14 5 -14 5 -18 5 C-18 4.34 -18 3.68 -18 3 C-11.79485526 0.86380263 -6.57315478 -0.36517527 0 0 Z " fill="#7CD9F1" transform="translate(475,737)"/>
<path d="M0 0 C0 0.33 0 0.66 0 1 C-2.58067563 1.69918305 -5.16372847 2.38461049 -7.75 3.0625 C-8.47960937 3.26166016 -9.20921875 3.46082031 -9.9609375 3.66601562 C-13.71031044 4.63744407 -16.30274238 5.15449387 -20 4 C-13.16088115 1.44672896 -7.33813334 -0.5644718 0 0 Z " fill="#8DE0F4" transform="translate(735,118)"/>
<path d="M0 0 C0.66 0.33 1.32 0.66 2 1 C-0.3842096 4.57631441 -2.17940153 5.12574414 -6 7 C-8.39240819 8.59653693 -10.68675057 10.28819542 -13 12 C-13.33 11.34 -13.66 10.68 -14 10 C-9.38 6.7 -4.76 3.4 0 0 Z " fill="#89DAEF" transform="translate(308,407)"/>
<path d="M0 0 C0.33 0 0.66 0 1 0 C1.3690205 12.66970387 1.3690205 12.66970387 -1 18 C-1.33 18 -1.66 18 -2 18 C-2.27560214 11.79895188 -1.22899346 6.06815522 0 0 Z " fill="#78D5EF" transform="translate(978,184)"/>
<path d="M0 0 C1.65 0 3.3 0 5 0 C2.10181338 2.29158942 -0.83140544 4.07862366 -4.125 5.75 C-4.99382812 6.19859375 -5.86265625 6.6471875 -6.7578125 7.109375 C-7.49773437 7.40328125 -8.23765625 7.6971875 -9 8 C-9.66 7.67 -10.32 7.34 -11 7 C-8.48169253 3.87729874 -7.2738451 3.05476902 -3.25 2.25 C-1.64125 2.12625 -1.64125 2.12625 0 2 C0 1.34 0 0.68 0 0 Z " fill="#87DEF4" transform="translate(414,755)"/>
<path d="M0 0 C-2.39060851 1.59373901 -4.30828179 2.65297076 -6.9375 3.6875 C-7.60652344 3.95949219 -8.27554687 4.23148438 -8.96484375 4.51171875 C-11.32830338 5.0787676 -12.7192799 4.76024003 -15 4 C-14.01 4 -13.02 4 -12 4 C-12 3.34 -12 2.68 -12 2 C-7.82262526 0.40861915 -4.46839215 -0.21278058 0 0 Z " fill="#80DAF1" transform="translate(500,729)"/>
<path d="M0 0 C4.62 2.31 9.24 4.62 14 7 C14 7.33 14 7.66 14 8 C12.35 8 10.7 8 9 8 C9 7.34 9 6.68 9 6 C8.01 6 7.02 6 6 6 C6 5.34 6 4.68 6 4 C4.35 3.67 2.7 3.34 1 3 C0.67 2.01 0.34 1.02 0 0 Z " fill="#74D8F1" transform="translate(896,269)"/>
<path d="M0 0 C3.29963329 1.09987776 3.61064772 1.45586748 5.25 4.3125 C5.60578125 4.90675781 5.9615625 5.50101563 6.328125 6.11328125 C7 8 7 8 6 12 C4.02 8.04 2.04 4.08 0 0 Z " fill="#69D5EE" transform="translate(894,801)"/>
<path d="M0 0 C0.99 0.33 1.98 0.66 3 1 C3 1.99 3 2.98 3 4 C3.99 4.33 4.98 4.66 6 5 C6.33 6.98 6.66 8.96 7 11 C3.18699218 7.7129243 1.77027754 4.60272162 0 0 Z " fill="#6CD7EF" transform="translate(310,609)"/>
<path d="M0 0 C0 0.66 0 1.32 0 2 C-2.75 4.1875 -2.75 4.1875 -6 6 C-8.203125 5.61328125 -8.203125 5.61328125 -10 5 C-8.71186658 4.16121545 -7.41936744 3.32913217 -6.125 2.5 C-5.40570313 2.0359375 -4.68640625 1.571875 -3.9453125 1.09375 C-2 0 -2 0 0 0 Z " fill="#66D0EC" transform="translate(320,401)"/>
<path d="M0 0 C1.12894876 0.93274109 2.25300876 1.87140122 3.375 2.8125 C4.00148438 3.33457031 4.62796875 3.85664063 5.2734375 4.39453125 C7 6 7 6 9 9 C6.6875 8.8125 6.6875 8.8125 4 8 C2.06208579 5.36997358 1.03295481 3.09886444 0 0 Z " fill="#7ED9F0" transform="translate(1136,382)"/>
<path d="M0 0 C1.79068573 2.6860286 2.66055791 4.6626589 3.625 7.6875 C3.88539062 8.49574219 4.14578125 9.30398437 4.4140625 10.13671875 C4.60742188 10.75160156 4.80078125 11.36648437 5 12 C2 11 2 11 0.8125 8.8125 C-0.07334979 5.74609689 -0.14770318 3.17561845 0 0 Z " fill="#88E0F1" transform="translate(1030,154)"/>
<path d="M0 0 C0.66 0 1.32 0 2 0 C3.80230168 3.82989106 4.19622241 6.78121808 4 11 C1.55160412 7.32740617 0 4.45351799 0 0 Z " fill="#6CCDE8" transform="translate(269,523)"/>
<path d="M0 0 C2.45823172 3.68734758 3.01242616 6.69699971 4 11 C3.01 10.67 2.02 10.34 1 10 C-0.1577506 6.52674819 -0.06866652 3.63932552 0 0 Z " fill="#82DCF1" transform="translate(1228,520)"/>
<path d="M0 0 C0.66 0.33 1.32 0.66 2 1 C-0.25 3.5625 -0.25 3.5625 -3 6 C-4.32 5.67 -5.64 5.34 -7 5 C-4.69 3.35 -2.38 1.7 0 0 Z " fill="#69D1EE" transform="translate(414,353)"/>
<path d="M0 0 C0.33 0 0.66 0 1 0 C1.08131463 1.43655854 1.13933559 2.8744483 1.1875 4.3125 C1.23970703 5.51326172 1.23970703 5.51326172 1.29296875 6.73828125 C0.93801608 9.47851584 0.10633718 10.29171079 -2 12 C-1 3.42857143 -1 3.42857143 0 0 Z " fill="#7CD2EA" transform="translate(981,171)"/>
<path d="M0 0 C0.99 0.33 1.98 0.66 3 1 C0.525 4.465 0.525 4.465 -2 8 C-2.33 6.68 -2.66 5.36 -3 4 C-2.34 4 -1.68 4 -1 4 C-0.67 2.68 -0.34 1.36 0 0 Z " fill="#7EDBF3" transform="translate(1149,782)"/>
<path d="M0 0 C0.33 0 0.66 0 1 0 C0.67 2.97 0.34 5.94 0 9 C-0.99 9.33 -1.98 9.66 -3 10 C-2.01 6.7 -1.02 3.4 0 0 Z " fill="#68D1EF" transform="translate(989,147)"/>
<path d="M0 0 C0.66 0.33 1.32 0.66 2 1 C1.34 3.97 0.68 6.94 0 10 C-0.33 10 -0.66 10 -1 10 C-1.125 3.375 -1.125 3.375 0 0 Z " fill="#6ED3EC" transform="translate(1230,633)"/>
</svg>
