<?xml version="1.0" encoding="UTF-8"?>
<svg version="1.1" xmlns="http://www.w3.org/2000/svg" width="1500" height="1000">
<path d="M0 0 C2.4375 1.0625 2.4375 1.0625 4 2 C4 4.1875 4 4.1875 3 7 C0.11961214 9.34229342 -3.18819372 12 -7 12 C-7 12.66 -7 13.32 -7 14 C-6.01 14.33 -5.02 14.66 -4 15 C-4 15.66 -4 16.32 -4 17 C-2.89591797 16.58427734 -2.89591797 16.58427734 -1.76953125 16.16015625 C-0.79371094 15.79792969 0.18210937 15.43570313 1.1875 15.0625 C2.15042969 14.70285156 3.11335937 14.34320313 4.10546875 13.97265625 C6.7368278 13.08843438 9.26894908 12.47431414 12 12 C12.28875 10.948125 12.5775 9.89625 12.875 8.8125 C13.77225193 5.77181289 14.76423419 2.91287656 16 0 C17.32 0 18.64 0 20 0 C20.20753906 0.53109375 20.41507813 1.0621875 20.62890625 1.609375 C22.58099278 6.08528888 24.34597778 9.06312517 28.91796875 11.32421875 C32.85154244 12.60096969 36.88863652 12.83455278 41 13 C43 18.625 43 18.625 43 22 C43.69996094 21.83757813 44.39992188 21.67515625 45.12109375 21.5078125 C48.15998993 20.97177925 50.97852282 20.86720233 54.0625 20.875 C55.59583984 20.87113281 55.59583984 20.87113281 57.16015625 20.8671875 C59.61649932 20.98206462 61.65768316 21.29224959 64 22 C64 21.34 64 20.68 64 20 C71.42187001 18.98131196 75.7095394 21.76332882 81.94921875 25.6640625 C84.8779126 27.31747472 84.8779126 27.31747472 87.64453125 26.3359375 C88.42183594 25.89507812 89.19914063 25.45421875 90 25 C92.89214163 23.48692976 95.41705754 22.57586982 98.625 21.9375 C100.98190335 21.46377026 102.84656316 21.07671842 105 20 C107.18750469 19.97966463 109.37557382 20.0082397 111.5625 20.0625 C115.88769705 20.11109772 119.70167873 20.02248063 123.875 18.875 C128.43523583 17.64296631 131.5541483 18.54499399 136 20 C136.33 21.65 136.66 23.3 137 25 C137.66 25 138.32 25 139 25 C139.33 26.32 139.66 27.64 140 29 C140.66 29 141.32 29 142 29 C142 29.66 142 30.32 142 31 C142.639375 31.309375 143.27875 31.61875 143.9375 31.9375 C146 33 146 33 147 34 C147.14001682 38.27051305 147.16665907 41.87965644 146 46 C146.63164063 45.835 147.26328125 45.67 147.9140625 45.5 C155.84746109 44.03677951 161.15108083 46.28663222 167.66796875 50.5390625 C172.44917856 53.92740769 177.05462529 57.88522748 180 63 C179.72265625 65.80078125 179.72265625 65.80078125 179 68 C180.02867187 67.83177734 180.02867187 67.83177734 181.078125 67.66015625 C185.39914163 68.16273439 187.6029406 70.58393041 190.75 73.4375 C191.63365234 74.2119043 191.63365234 74.2119043 192.53515625 75.00195312 C196.40290179 78.40290179 196.40290179 78.40290179 198 80 C199.33234068 80.10458591 200.66995329 80.14334326 202.00634766 80.15429688 C202.85879059 80.16521362 203.71123352 80.17613037 204.58950806 80.18737793 C205.52161102 80.19773071 206.45371399 80.2080835 207.4140625 80.21875 C209.39328368 80.26326367 211.37245106 80.31022339 213.3515625 80.359375 C216.46733436 80.43529821 219.58061426 80.49968961 222.69726562 80.52148438 C235.22623513 80.62622817 244.66924422 81.35596276 254.97290039 88.88867188 C259.09315995 91.7624524 263.18086444 92.86369856 268 94 C270 95 270 95 271.0625 97.3125 C273.22413881 100.31090223 274.08407785 100.5570613 277.4375 101.75 C280.89384571 103.19060936 282.63461585 104.20809689 284.25 107.625 C286.29610538 113.19339637 287.73280328 119.03665116 289.16308594 124.79150391 C289.35805664 125.54866699 289.55302734 126.30583008 289.75390625 127.0859375 C289.92220947 127.7670459 290.0905127 128.4481543 290.26391602 129.14990234 C291.14974481 131.37637351 292.15752141 132.48096331 294 134 C295.03125 134.4125 296.0625 134.825 297.125 135.25 C298.07375 135.8275 299.0225 136.405 300 137 C300.8125 140.4375 300.8125 140.4375 301 144 C301.30835215 145.33933112 301.63591577 146.6747334 302 148 C300.48016736 149.37610601 298.95907486 150.75082062 297.4375 152.125 C296.53128906 152.94484375 295.62507813 153.7646875 294.69140625 154.609375 C292.45942016 156.59192288 290.19034211 158.49229882 287.875 160.375 C286.92625 161.24125 285.9775 162.1075 285 163 C285 163.99 285 164.98 285 166 C285.66 166 286.32 166 287 166 C287.33 165.01 287.66 164.02 288 163 C288.99 163 289.98 163 291 163 C291.33 163.66 291.66 164.32 292 165 C292.144375 163.906875 292.28875 162.81375 292.4375 161.6875 C293.16846726 159.03774369 293.6130173 158.22251505 296.03125 156.83203125 C302.14945219 154.71648406 302.14945219 154.71648406 306 156 C305.67 157.65 305.34 159.3 305 161 C309.49656104 163.24828052 313.07872966 163.16682272 318 163 C318 163.66 318 164.32 318 165 C318.763125 164.79375 319.52625 164.5875 320.3125 164.375 C323 164 323 164 326 166 C326.33 166.99 326.66 167.98 327 169 C328.1446875 168.9690625 328.1446875 168.9690625 329.3125 168.9375 C332 169 332 169 335 170 C335.969375 169.79375 336.93875 169.5875 337.9375 169.375 C341 169 341 169 343.0625 170.3125 C343.701875 170.869375 344.34125 171.42625 345 172 C348.04462146 173.4811672 350.28182427 174.02866009 353.6875 174.375 C357 175 357 175 358.4375 177.0625 C358.623125 177.701875 358.80875 178.34125 359 179 C359.7425 178.7525 360.485 178.505 361.25 178.25 C364 178 364 178 366.3125 179.8125 C368 182 368 182 368 184 C368.4125 183.484375 368.825 182.96875 369.25 182.4375 C371 181 371 181 373 181.125 C377.63577012 183.15314943 380.04694668 187.46853146 382 192 C382.48401112 196.19476306 382.37104692 197.44342962 380 201 C380.7734375 200.48308594 381.546875 199.96617187 382.34375 199.43359375 C391.91936463 193.37772856 391.91936463 193.37772856 396.1875 193.75 C399.95182987 194.65809607 403.13592638 196.61062816 406.3359375 198.74609375 C414.59785942 202.63476961 423.50323333 202.17279514 432.40820312 201.83398438 C438.17455888 201.71147572 441.87929875 202.31444886 447 205 C447.92683594 205.47179687 448.85367188 205.94359375 449.80859375 206.4296875 C465.21000239 214.89702955 465.21000239 214.89702955 471 221 C471.825 221.66 472.65 222.32 473.5 223 C476 225 476 225 478.3125 227.5625 C484.25559473 232.95274871 492.1801738 233.77608162 499.828125 235.25390625 C504.37402875 236.32320134 506.32636962 237.08861772 509.125 240.875 C510.053125 242.421875 510.053125 242.421875 511 244 C511.391875 244.639375 511.78375 245.27875 512.1875 245.9375 C513.35276789 248.89548773 513.6136078 251.85366355 514 255 C514.47717047 258.18113645 515.17236647 260.36541693 516.5625 263.3125 C519.92754254 271.94456564 517.61265336 281.67519007 514 290 C511.22919509 294.75996757 507.58137428 298.84150667 504 303 C502.57842353 304.82952887 501.1613308 306.66255587 499.75 308.5 C497.61425704 311.17182302 495.59164596 313.48630685 492.875 315.5625 C489.62601473 318.31707447 487.76011673 321.17968691 485.4921875 324.74609375 C483.73299257 327.40330703 481.75561819 329.7288843 479.640625 332.10546875 C476.94180112 335.22196776 474.45112928 338.50496535 471.9296875 341.765625 C470.08031143 343.90700782 468.39794762 345.50498327 466 347 C463.75 346.6875 463.75 346.6875 462 346 C460.14881598 351.45270935 459.84759232 355.96764949 460.0625 361.6875 C460.21671589 369.27430193 459.12410733 375.70120565 457 383 C456.04658882 387.71408859 455.99110778 392.26137321 456.0625 397.0625 C456.07213688 404.76236983 454.90201727 409.08481713 449.875 415 C446.63061292 418.77211632 446.63061292 418.77211632 445.625 423.5625 C445.810625 425.2640625 445.810625 425.2640625 446 427 C445.47020814 433.66552081 443.06662293 437.82942466 438.75390625 442.859375 C436.92685372 444.97507375 436.92685372 444.97507375 435.5390625 447.5 C433.89630135 450.16844451 432.04122769 452.05780883 429.8125 454.25 C426.83112675 457.3808951 426.83112675 457.3808951 425.7265625 461.40625 C425.86386037 462.93178186 426.00927496 464.45661214 426.1640625 465.98046875 C426 468 426 468 424.6484375 469.67578125 C421.75754851 471.85932506 419.6930364 472.92627272 416.0625 473.3125 C415.381875 473.209375 414.70125 473.10625 414 473 C413.938125 473.763125 413.87625 474.52625 413.8125 475.3125 C413 478 413 478 410.84375 479.65625 C407.53032098 481.22193624 405.32974817 481.30757412 401.6875 481.1875 C400.61886719 481.16042969 399.55023437 481.13335937 398.44921875 481.10546875 C397.23685547 481.05326172 397.23685547 481.05326172 396 481 C396 480.34 396 479.68 396 479 C395.01 479.33 394.02 479.66 393 480 C391.2696753 479.86861832 389.54055846 479.72092567 387.8125 479.5625 C384.35122755 479.51689694 382.59246294 479.57901247 379.74609375 481.6015625 C377.75798959 483.6791508 375.87381629 485.81926552 374 488 C369.91821527 492.0425368 366.94977714 493.19101925 361.1875 493.375 C354.13498472 493.66628036 350.34746501 496.69152552 345 501 C343.86295481 501.7019391 342.71848037 502.3922018 341.5625 503.0625 C338.8189675 504.8336702 338.8189675 504.8336702 337.625 507.8125 C335.98705406 511.02539395 334.71203053 512.29425629 332 514.5625 C327.9211669 517.98152186 325.25965495 520.50731248 324.6875 526 C324.84397579 528.95623783 324.84397579 528.95623783 326 531.3125 C329.13006128 539.72453969 326.39496769 549.98787624 323 558 C320.89757881 560.28593423 318.84069426 561.79841074 316.23828125 563.4765625 C308.67176536 568.62654714 304.34791628 578.84920583 299.9375 586.625 C299.298125 587.73875 298.65875 588.8525 298 590 C297.65710938 590.64710938 297.31421875 591.29421875 296.9609375 591.9609375 C294.14062776 596.96842621 290.85217038 600.02583328 286.18359375 603.359375 C283.92064477 604.95554326 283.92064477 604.95554326 282.03515625 607.140625 C279.68231198 609.29024856 278.12308724 609.65299031 275 610 C274.89945313 610.65484375 274.79890625 611.3096875 274.6953125 611.984375 C273.12640031 619.59252455 269.75903538 624.36224758 264.63671875 630.0625 C261.50196145 633.55485184 258.65476686 637.22818507 255.7890625 640.94140625 C253.20709276 643.9123627 251.43243705 645.83722306 247.421875 646.29296875 C246.09929687 646.24076172 246.09929687 646.24076172 244.75 646.1875 C243.85796875 646.16042969 242.9659375 646.13335938 242.046875 646.10546875 C241.03367187 646.05326172 241.03367187 646.05326172 240 646 C240 646.66 240 647.32 240 648 C229.88749108 649.72127811 222.1792142 648.83964788 212.4375 645.5 C211.42880859 645.16613281 210.42011719 644.83226562 209.38085938 644.48828125 C206.91634143 643.67066866 204.4565727 642.84112129 202 642 C203.25771448 642.96706618 204.51879149 643.92976016 205.78125 644.890625 C206.48314453 645.42719727 207.18503906 645.96376953 207.90820312 646.51660156 C210.14971869 648.18612628 210.14971869 648.18612628 213.5 649.75 C216 652 216 652 216.19140625 654.22265625 C216.10399743 655.97877888 215.99926552 657.7341089 215.87890625 659.48828125 C216.01970136 662.40864441 216.62779298 663.31662283 218.5 665.5 C221.51016846 669.10878151 221.61163545 672.11857911 221.35546875 676.72265625 C220.87937348 679.77280504 219.84125221 681.52383323 218 684 C217.17503746 685.49318219 216.36374426 686.99395754 215.5625 688.5 C212.20669731 694.79074563 209.13712848 698.35767337 202.5 701.25 C201.3759375 701.75015625 200.251875 702.2503125 199.09375 702.765625 C196.66892752 703.73310468 194.52760206 704.44045451 192 705 C190.24043998 705.48651429 188.4808878 705.97305704 186.72143555 706.45996094 C165.67541296 712.22513765 165.67541296 712.22513765 156 709 C156.66 709.99 157.32 710.98 158 712 C158.125 714.6875 158.125 714.6875 158 717 C157.34 717.33 156.68 717.66 156 718 C156.02094727 718.58491211 156.04189453 719.16982422 156.06347656 719.77246094 C156.14680115 722.43146465 156.19870897 725.09019355 156.25 727.75 C156.28351563 728.67039062 156.31703125 729.59078125 156.3515625 730.5390625 C156.4501978 737.34489817 156.4501978 737.34489817 154.21484375 740.59765625 C151.22431345 742.49113134 148.48587722 742.67114366 145 743 C144.67 743.33 144.34 743.66 144 744 C136.95576882 744.64376102 131.42234897 743.9082335 125 741 C124.86463371 743.41854446 124.76579721 745.82949783 124.6875 748.25 C124.64560547 748.93191406 124.60371094 749.61382813 124.56054688 750.31640625 C124.45252862 752.612851 124.45252862 752.612851 125 756 C127.36128056 758.51705372 127.36128056 758.51705372 130 760 C130.7425 759.690625 131.485 759.38125 132.25 759.0625 C134.50692176 758.1905075 136.6450153 757.52332993 139 757 C139.77842938 760.40562852 140.09978121 763.50765756 140 767 C139.41347656 767.23847656 138.82695313 767.47695313 138.22265625 767.72265625 C135.54326759 769.26248066 134.26050426 770.95380963 132.4375 773.4375 C128.3252818 778.99677939 128.3252818 778.99677939 126 781 C125.34 781 124.68 781 124 781 C121.71708934 786.13654899 121.86815252 790.79048936 122.02734375 796.29296875 C122 799 122 799 121 802 C118.10441123 803.49166694 115.15132255 804.21072996 112 804.9375 C108.55694524 805.74954122 105.98365599 807.06939907 103 809 C102.34 809 101.68 809 101 809 C100.855625 810.093125 100.71125 811.18625 100.5625 812.3125 C100 816 100 816 99 819 C100.423125 819.8971875 100.423125 819.8971875 101.875 820.8125 C105 823 105 823 107 826 C107 826.99 107 827.98 107 829 C107.75925781 829.06316406 108.51851562 829.12632812 109.30078125 829.19140625 C112.34256919 829.56620502 115.09030013 830.03010004 118 831 C120.42720201 834.53678008 120.85646558 837.28232791 121.6875 841.4375 C120.63141199 846.90995607 117.10483771 849.45929912 113 853 C112.16275391 853.78310547 112.16275391 853.78310547 111.30859375 854.58203125 C108.33443509 857.27663453 106.02247764 858.6450755 102 859 C102.04125 859.845625 102.0825 860.69125 102.125 861.5625 C101.98810491 865.32711502 101.04892147 868.39433244 100 872 C99.83071457 874.79244045 99.83071457 874.79244045 100 877 C99.154375 877.309375 98.30875 877.61875 97.4375 877.9375 C92.68351241 880.25209062 89.98073146 884.79346478 87 889 C89.88622508 893.03252724 92.70061017 896.83680642 96.375 900.1875 C99 903 99 903 99.375 905.875 C99.25125 906.57625 99.1275 907.2775 99 908 C98.34 908 97.68 908 97 908 C98.98409224 912.71347802 100.86960462 916.93048601 104 921 C104 921.99 104 922.98 104 924 C104.639375 924.2475 105.27875 924.495 105.9375 924.75 C108.35159365 925.73534435 110.69722303 926.78267209 113.0625 927.875 C118.56319902 930.34659787 124.25897455 932.17375163 130 934 C130 934.66 130 935.32 130 936 C131.32 936.33 132.64 936.66 134 937 C133.265625 938.9296875 133.265625 938.9296875 132 941 C130.046875 941.7578125 130.046875 941.7578125 127.75 942.125 C125.050616 942.58110281 122.70475329 943.10776305 120.12109375 944.05078125 C116.66869707 945.10075921 113.90906505 945.16692988 110.3125 945.0625 C105.57104603 944.92518362 105.57104603 944.92518362 101 946 C102.65 946.66 104.3 947.32 106 948 C106 948.66 106 949.32 106 950 C106.99 950.33 107.98 950.66 109 951 C108.67 951.99 108.34 952.98 108 954 C107.319375 953.855625 106.63875 953.71125 105.9375 953.5625 C103.7440048 953.142469 101.53029413 952.82562812 99.3125 952.5625 C96 952 96 952 94 950 C93.67 950.66 93.34 951.32 93 952 C89.81390075 951.64598897 88.20933322 951.16972964 85.6875 949.125 C84 947 84 947 84 944 C76.84224277 941.71387222 70.51806849 940.55967929 63 941 C63 939.68 63 938.36 63 937 C64.32 936.34 65.64 935.68 67 935 C65.68 932.69 64.36 930.38 63 928 C62.4121875 928.928125 62.4121875 928.928125 61.8125 929.875 C59.63514951 932.42775574 58.24107207 933.17088854 55 934 C50.68154865 933.73009679 47.32381672 932.83502014 44 930 C43.6875 926.8125 43.6875 926.8125 44 924 C42.4840625 923.4121875 42.4840625 923.4121875 40.9375 922.8125 C36.81128945 921.03570321 33.48402506 918.84410209 30 916 C30 915.01 30 914.02 30 913 C33.12290635 913.48578543 35.99580359 913.9986012 39 915 C38.67 910.38 38.34 905.76 38 901 C37.01 901 36.02 901 35 901 C33.9923048 899.2335343 32.99408286 897.46166177 32 895.6875 C31.443125 894.70136719 30.88625 893.71523438 30.3125 892.69921875 C29 890 29 890 29 887 C29.66 887 30.32 887 31 887 C30.34 885.35 29.68 883.7 29 882 C25.64541845 881.23477199 25.64541845 881.23477199 22 881 C20.03568595 882.29264699 20.03568595 882.29264699 19 884 C17.0625 883.375 17.0625 883.375 15 882 C14.3125 879.1875 14.3125 879.1875 14 876 C13.67449498 874.33178677 13.34153937 872.66500443 13 871 C12.66666667 869.33333333 12.33333333 867.66666667 12 866 C16.75 864.875 16.75 864.875 19 866 C18.67 863.03 18.34 860.06 18 857 C16.68 856.67 15.36 856.34 14 856 C14.33 854.02 14.66 852.04 15 850 C15.66 850 16.32 850 17 850 C16.37240135 847.07120629 15.41377341 844.63904371 14 842 C14.66 841.01 15.32 840.02 16 839 C16.66 839 17.32 839 18 839 C18.99 836.525 18.99 836.525 20 834 C18.54536519 833.61090015 17.08608793 833.23911971 15.625 832.875 C14.81289063 832.66617188 14.00078125 832.45734375 13.1640625 832.2421875 C12.44992187 832.16226563 11.73578125 832.08234375 11 832 C10.34 832.66 9.68 833.32 9 834 C6.73725212 833.64644564 5.04911148 833.02455574 3 832 C3 830.68 3 829.36 3 828 C3.66 828 4.32 828 5 828 C5.12375 827.195625 5.2475 826.39125 5.375 825.5625 C5.58125 824.716875 5.7875 823.87125 6 823 C6.66 822.67 7.32 822.34 8 822 C7.34 820.68 6.68 819.36 6 818 C7.62339805 816.29115995 9.29319053 814.62553283 11 813 C11.66 813 12.32 813 13 813 C13.66 813.66 14.32 814.32 15 815 C18.08347826 815.16681109 18.08347826 815.16681109 21 815 C21 816.32 21 817.64 21 819 C21.99 819 22.98 819 24 819 C24.33 819.66 24.66 820.32 25 821 C25.33 819.68 25.66 818.36 26 817 C25.360625 816.773125 24.72125 816.54625 24.0625 816.3125 C22 815 22 815 21.125 812.8125 C21 810 21 810 22 806.5625 C23.05455374 802.80565231 22.78506198 800.75085169 22 797 C22.33 796.34 22.66 795.68 23 795 C23.144375 794.278125 23.28875 793.55625 23.4375 792.8125 C24 790 24 790 25.125 786.5625 C26.06122586 782.75072327 25.75903698 780.79518491 25 777 C24.79738173 772.92592558 24.77436472 769.06048579 25.625 765.0625 C25.74875 764.381875 25.8725 763.70125 26 763 C25.34 762.34 24.68 761.68 24 761 C23.875 757.875 23.875 757.875 24 755 C22.68 755.66 21.36 756.32 20 757 C20.14033111 758.97956441 20.2874123 760.95865141 20.4375 762.9375 C20.51871094 764.03964844 20.59992188 765.14179687 20.68359375 766.27734375 C20.70418084 768.91109903 20.70418084 768.91109903 22 770 C22.28330948 772.92753129 22.49491086 775.15568472 22 778 C19.9375 780.125 19.9375 780.125 17 781 C14.64946327 780.39678697 12.31257543 779.73544802 10 779 C9.77383538 775.25085209 9.57217338 771.50077551 9.375 767.75 C9.31054688 766.68652344 9.24609375 765.62304688 9.1796875 764.52734375 C9.128125 763.50253906 9.0765625 762.47773437 9.0234375 761.421875 C8.97106934 760.47924805 8.91870117 759.53662109 8.86474609 758.56542969 C9.00906945 755.82797505 9.71235101 754.37511861 11 752 C10.70644577 750.32586894 10.36546468 748.659917 10 747 C10.03584471 744.30888919 10.13201979 741.68000749 10.3125 739 C10.34794922 738.30132813 10.38339844 737.60265625 10.41992188 736.8828125 C10.67488982 732.84899124 11.40693452 729.68953965 13 726 C13.832839 720.17012702 12.61003533 715.18929013 10.80078125 709.67578125 C8.63063745 702.42432515 7.31258281 694.56158913 8 687 C8.44859375 686.59910156 8.8971875 686.19820312 9.359375 685.78515625 C11.91469323 683.00472666 12.57707513 679.56188825 13.5625 676 C13.78301025 675.22817383 14.00352051 674.45634766 14.23071289 673.66113281 C15.57498608 668.85174509 16.58426899 664.09545391 17.328125 659.15625 C17.89729291 656.48248446 18.61410516 654.05216605 19.484375 651.46875 C24.55143271 636.16790667 24.45450096 622.87924703 22.359375 607.00390625 C22.15577599 605.46099998 21.95263393 603.91803332 21.75 602.375 C21.65211182 601.64595459 21.55422363 600.91690918 21.45336914 600.16577148 C20.7779451 594.31321215 21.69783489 589.4556818 23.32421875 583.78125 C24.52688125 578.83156387 23.59851522 574.79554567 22 570 C21.57583694 564.0617172 22.58769891 559.36708591 24.2734375 553.6796875 C24.92023143 551.29420022 25.31261557 549.07756942 25.5625 546.625 C25.9684261 543.2616123 26.74672825 541.09631844 28 538 C28.52287741 535.57297738 28.97045531 533.13585955 29.42578125 530.6953125 C30.1803455 527.15348032 31.26801314 523.75669333 32.4140625 520.32421875 C33.05486162 517.78238226 33.17079694 515.61139537 33 513 C32.67 512.67 32.34 512.34 32 512 C30.53014369 500.62222337 29.79694566 488.50618419 32.46484375 477.28125 C33.66059354 472.1840392 34.12779644 467.34044763 34.1328125 462.10546875 C34.13474609 460.17864258 34.13474609 460.17864258 34.13671875 458.21289062 C34.13462402 457.55264893 34.1325293 456.89240723 34.13037109 456.2121582 C34.12496915 454.17586986 34.13035919 452.1397976 34.13671875 450.10351562 C34.13542969 448.82541016 34.13414062 447.54730469 34.1328125 446.23046875 C34.13168457 445.05895264 34.13055664 443.88743652 34.12939453 442.68041992 C34.30489332 440.08083027 34.30489332 440.08083027 33 439 C32.71484961 437.40591974 32.48548215 435.80176569 32.28125 434.1953125 C32.08982422 432.73158203 32.08982422 432.73158203 31.89453125 431.23828125 C31.76433594 430.21089844 31.63414062 429.18351562 31.5 428.125 C31.24225564 426.10642782 30.98195018 424.08818055 30.71875 422.0703125 C30.60466797 421.17070801 30.49058594 420.27110352 30.37304688 419.34423828 C30.04227828 416.85482335 30.04227828 416.85482335 29 414 C27.67661368 413.31379969 26.34050052 412.65213539 25 412 C21.95020349 409.59909637 19.23740859 407.24958339 16.5625 404.4375 C10.75560043 398.91386382 3.79338995 396.72437824 -3.68359375 394.37695312 C-8.88383811 392.65137475 -12.65728468 390.34899665 -17 387 C-19.67451447 385.36078146 -21.6799535 384.8439451 -24.8125 384.125 C-29.10121526 383.1205797 -32.23731717 381.2718085 -36 379 C-37.15435547 378.63261719 -37.15435547 378.63261719 -38.33203125 378.2578125 C-42.04616539 376.50678586 -44.2935558 373.91056012 -47 370.875 C-47.52819336 370.28605957 -48.05638672 369.69711914 -48.60058594 369.09033203 C-55.09145602 361.74624938 -58.65969733 357.30106382 -58.17578125 347.125 C-58.11777344 346.42375 -58.05976562 345.7225 -58 345 C-58.8971875 344.566875 -58.8971875 344.566875 -59.8125 344.125 C-64.01326623 341.96460594 -65.65901518 339.9991824 -68 336 C-68.47566406 335.55527344 -68.95132813 335.11054688 -69.44140625 334.65234375 C-71.95579392 331.98671472 -73.12763733 328.68722018 -74.62109375 325.375 C-76.12814698 322.77928225 -77.61320217 321.75596764 -80 320 C-81.203125 318.01171875 -81.203125 318.01171875 -82.25 315.6875 C-84.48738422 310.98290962 -86.94822142 306.46867476 -89.56323242 301.96337891 C-91.7315966 298.22495752 -93.85309925 294.46572211 -95.9375 290.6796875 C-96.45368896 289.75196533 -96.96987793 288.82424316 -97.50170898 287.8684082 C-98.51808531 286.04122016 -99.52587643 284.20922154 -100.52368164 282.37182617 C-103.32828127 277.36513146 -106.20354002 273.39472341 -110.48828125 269.5559082 C-112.13879845 267.85714429 -112.97382072 266.27584894 -113.9375 264.125 C-117.23953879 258.33512377 -123.77822728 255.84406522 -129.48046875 252.8828125 C-133 251 -133 251 -135 249 C-134.46428571 245.46428571 -134.46428571 245.46428571 -133 244 C-132.66143172 238.67326964 -132.66143172 238.67326964 -135 234 C-136.72482074 229.82411822 -137.26228963 227.33829015 -136 223 C-132.12866354 217.17616341 -126.71030993 212.91564109 -121 209 C-121.59511905 206.51595471 -121.59511905 206.51595471 -123 204 C-125.60802075 202.87560566 -125.60802075 202.87560566 -128.5625 202 C-131.5546875 200.5546875 -131.5546875 200.5546875 -134 198 C-135.77676569 191.23691907 -135.31310466 183.93263591 -135 177 C-131.535 175.02 -131.535 175.02 -128 173 C-128.12375 172.29875 -128.2475 171.5975 -128.375 170.875 C-127.81845541 166.60815815 -125.15146124 164.72939054 -122 162 C-122.33 161.01 -122.66 160.02 -123 159 C-123.4375 155.5625 -123.4375 155.5625 -123 152 C-118.74555757 148.07282238 -113.45776774 146.6009452 -108 145 C-108.309375 144.071875 -108.309375 144.071875 -108.625 143.125 C-108.74875 142.42375 -108.8725 141.7225 -109 141 C-106.64046906 138.64046906 -105.22104383 138.50858587 -102 138 C-101.96261719 137.38511719 -101.92523438 136.77023438 -101.88671875 136.13671875 C-101.82097656 135.32847656 -101.75523437 134.52023438 -101.6875 133.6875 C-101.60048828 132.48673828 -101.60048828 132.48673828 -101.51171875 131.26171875 C-100.89662377 128.54309284 -100.22365407 127.65271586 -98 126 C-95.87890625 125.26171875 -95.87890625 125.26171875 -93.5625 124.6875 C-90.11719806 123.60245361 -89.08390476 123.09251037 -86.5625 120.3125 C-84.77526863 116.5235695 -83.84760634 113.09676397 -83 109 C-83.9590625 108.443125 -83.9590625 108.443125 -84.9375 107.875 C-87.67788995 105.38373641 -87.77294027 103.63295562 -88 100 C-87.505 98.515 -87.505 98.515 -87 97 C-85.38335757 78.77222238 -85.38335757 78.77222238 -91.78515625 62.234375 C-93 60 -93 60 -92.89453125 57.3359375 C-91.68438513 54.17581795 -89.6367436 53.39645307 -86.72265625 51.89453125 C-84.67809547 50.83284323 -83.3041006 49.917795 -82 48 C-81.9574074 46.33387766 -81.95394713 44.66603029 -82 43 C-79.56401192 41.68462636 -77.1263175 40.37260857 -74.6875 39.0625 C-73.65206055 38.50272461 -73.65206055 38.50272461 -72.59570312 37.93164062 C-71.92861328 37.57392578 -71.26152344 37.21621094 -70.57421875 36.84765625 C-69.96151123 36.51773682 -69.34880371 36.18781738 -68.7175293 35.84790039 C-67 35 -67 35 -64 34 C-63.94392578 33.11248047 -63.94392578 33.11248047 -63.88671875 32.20703125 C-63.41841134 26.57815987 -62.80067813 22.67890952 -58.5625 18.625 C-53.43101217 14.44378769 -48.44163944 14 -42 14 C-41.67 13.34 -41.34 12.68 -41 12 C-40.43152344 12.03480469 -39.86304688 12.06960937 -39.27734375 12.10546875 C-38.50519531 12.13253906 -37.73304688 12.15960938 -36.9375 12.1875 C-36.18339844 12.22230469 -35.42929687 12.25710937 -34.65234375 12.29296875 C-28.50381831 11.61382382 -23.06007233 8.02195091 -17.8125 4.9375 C-6.83061811 -1.46370388 -6.83061811 -1.46370388 0 0 Z M-7 28.9375 C-7.99 29.9584375 -7.99 29.9584375 -9 31 C-9.99 31.495 -9.99 31.495 -11 32 C-9.92598892 34.91517292 -9.22189824 36.77810176 -7 39 C-3.46537413 38.99510849 -3.46537413 38.99510849 0 38 C1.51294288 36.06402968 1.51294288 36.06402968 2 34 C1.21654285 32.82780457 0.42297164 31.66236332 -0.375 30.5 C-0.81585937 29.8503125 -1.25671875 29.200625 -1.7109375 28.53125 C-2.13632812 28.0259375 -2.56171875 27.520625 -3 27 C-5.22468387 26.76806826 -5.22468387 26.76806826 -7 28.9375 Z M124 29 C124 29.99 124 30.98 124 32 C128.95 31.67 133.9 31.34 139 31 C134.93069012 27.84317942 134.93069012 27.84317942 130.375 27.75 C129.59898437 27.76546875 128.82296875 27.7809375 128.0234375 27.796875 C125.93233803 27.88564845 125.93233803 27.88564845 124 29 Z M323 171 C322.67 172.32 322.34 173.64 322 175 C322.66 175 323.32 175 324 175 C323.67 173.68 323.34 172.36 323 171 Z M321 175 C320.67 176.32 320.34 177.64 320 179 C320.66 179 321.32 179 322 179 C321.67 177.68 321.34 176.36 321 175 Z M290 585 C290.33 585.66 290.66 586.32 291 587 C291.33 586.34 291.66 585.68 292 585 C291.34 585 290.68 585 290 585 Z M288 590 C284.78796065 592.49825283 281.82506863 595.0702992 279 598 C279.33 598.99 279.66 599.98 280 601 C283.3 597.7 286.6 594.4 290 591 C289.34 590.67 288.68 590.34 288 590 Z M276 605 C277 607 277 607 277 607 Z M25 844 C24.67 844.99 24.34 845.98 24 847 C24.66 847.66 25.32 848.32 26 849 C26.66 848.34 27.32 847.68 28 847 C27.01 846.01 26.02 845.02 25 844 Z M24 877 C28 878 28 878 28 878 Z M73 914 C71.68 915.32 70.36 916.64 69 918 C69.33 918.33 69.66 918.66 70 919 C70.07205511 920.68608966 70.08386068 922.37500659 70.0625 924.0625 C70.05347656 924.98160156 70.04445313 925.90070312 70.03515625 926.84765625 C70.01775391 927.91306641 70.01775391 927.91306641 70 929 C70.99 928.67 71.98 928.34 73 928 C73.39180108 926.42074025 73.76280736 924.83631206 74.125 923.25 C74.43824219 921.92742188 74.43824219 921.92742188 74.7578125 920.578125 C75.03088304 917.67124507 74.53508028 916.43338652 73 914 Z M45 916 C46 919 46 919 46 919 Z M80 923 C80 924.32 80 925.64 80 927 C81.32 926.67 82.64 926.34 84 926 C83.34 925.01 82.68 924.02 82 923 C81.34 923 80.68 923 80 923 Z " fill="#3EA6DD" transform="translate(576,24)"/>
<path d="M0 0 C1.8125 0.0234375 1.8125 0.0234375 4 0.375 C7.47011742 0.86193583 10.74697857 1.02664875 14.25 0.9375 C18.04028062 0.87891761 20.50215658 1.50092425 24 3 C26.7336432 2.70480232 26.7336432 2.70480232 29 2 C29 2.99 29 3.98 29 5 C29.66 5 30.32 5 31 5 C31 5.99 31 6.98 31 8 C27.37 8.33 23.74 8.66 20 9 C19.67 10.32 19.34 11.64 19 13 C17.34795544 13.70211894 15.68076231 14.36971413 14 15 C13.67 15.99 13.34 16.98 13 18 C11.35 17.67 9.7 17.34 8 17 C8 15.68 8 14.36 8 13 C3.05 13.66 -1.9 14.32 -7 15 C-7.33 14.01 -7.66 13.02 -8 12 C-6.60804085 9.2160817 -4.84424221 9.02101003 -2 8 C-2.04125 7.05125 -2.0825 6.1025 -2.125 5.125 C-2 2 -2 2 0 0 Z " fill="#3FA5DF" transform="translate(751,913)"/>
<path d="M0 0 C0.33 1.98 0.66 3.96 1 6 C-2.3 6 -5.6 6 -9 6 C-9 6.66 -9 7.32 -9 8 C-9.66 8 -10.32 8 -11 8 C-11.66 7.01 -12.32 6.02 -13 5 C-16.05429073 3.78715124 -16.05429073 3.78715124 -19 3 C-19 2.34 -19 1.68 -19 1 C-12.05412624 -2.40740977 -7.40916417 -1.8931504 0 0 Z " fill="#48AEE7" transform="translate(712,44)"/>
<path d="M0 0 C0.99 0.33 1.98 0.66 3 1 C-3.18078693 7.00302094 -7.58444774 9.89653176 -16.3359375 9.76953125 C-19.47941227 10.04147408 -20.56395454 11.10817746 -23 13 C-23.99 12.67 -24.98 12.34 -26 12 C-23.1614847 8.92494175 -21.44695235 7.17833586 -17.2109375 6.65625 C-16.19257812 6.6253125 -15.17421875 6.594375 -14.125 6.5625 C-8.48140372 6.35919032 -5.71423368 4.99995144 -1.62109375 1.1796875 C-1.08613281 0.79039062 -0.55117188 0.40109375 0 0 Z " fill="#2F9CD6" transform="translate(950,508)"/>
<path d="M0 0 C0.66 0.33 1.32 0.66 2 1 C2 1.66 2 2.32 2 3 C4.31 3 6.62 3 9 3 C9.66 4.65 10.32 6.3 11 8 C10.01 8.495 10.01 8.495 9 9 C9 8.01 9 7.02 9 6 C4.05 6.66 -0.9 7.32 -6 8 C-6.33 7.01 -6.66 6.02 -7 5 C-5.60683123 2.21366246 -3.84019484 2.06507306 -1 1 C-0.67 0.67 -0.34 0.34 0 0 Z " fill="#35A1D9" transform="translate(750,920)"/>
<path d="M0 0 C0.598125 0.226875 1.19625 0.45375 1.8125 0.6875 C1.8125 1.6775 1.8125 2.6675 1.8125 3.6875 C0.8225 3.3575 -0.1675 3.0275 -1.1875 2.6875 C-2.69583188 7.41360657 -3.47740732 11.71417709 -3.74609375 16.671875 C-4.28842703 19.14837033 -5.27792553 20.07836525 -7.1875 21.6875 C-7.6434897 6.25984865 -7.6434897 6.25984865 -3.8125 0.6875 C-2.1875 -0.3125 -2.1875 -0.3125 0 0 Z " fill="#2EA3DD" transform="translate(1039.1875,367.3125)"/>
<path d="M0 0 C-5.0940919 7.68490153 -5.0940919 7.68490153 -8.875 9 C-9.57625 9 -10.2775 9 -11 9 C-11.33 6.69 -11.66 4.38 -12 2 C-10.56656 1.46809459 -9.12804633 0.94984742 -7.6875 0.4375 C-6.48673828 0.00244141 -6.48673828 0.00244141 -5.26171875 -0.44140625 C-3 -1 -3 -1 0 0 Z " fill="#329EDD" transform="translate(882,180)"/>
<path d="M0 0 C0 0.99 0 1.98 0 3 C0.66 3 1.32 3 2 3 C2 3.99 2 4.98 2 6 C0.39620659 6.05416188 -1.20811406 6.09286638 -2.8125 6.125 C-3.70582031 6.14820313 -4.59914063 6.17140625 -5.51953125 6.1953125 C-8 6 -8 6 -11 4 C-7.88789178 0.88789178 -4.34860953 0 0 0 Z " fill="#3BA6E0" transform="translate(780,915)"/>
<path d="M0 0 C0 0.99 0 1.98 0 3 C-0.825 3.78375 -1.65 4.5675 -2.5 5.375 C-5.25854622 7.74105711 -5.25854622 7.74105711 -5.3125 10.8125 C-5.1578125 11.8953125 -5.1578125 11.8953125 -5 13 C-6.32 13.33 -7.64 13.66 -9 14 C-9 11.03 -9 8.06 -9 5 C-6.03 3.35 -3.06 1.7 0 0 Z " fill="#2E9EDE" transform="translate(503,62)"/>
<path d="M0 0 C2.97 0.495 2.97 0.495 6 1 C5.67 1.99 5.34 2.98 5 4 C2.9375 4.6875 2.9375 4.6875 1 5 C0.855625 5.639375 0.71125 6.27875 0.5625 6.9375 C0 9 0 9 -1 10 C-2.99958364 10.04080783 -5.00045254 10.04254356 -7 10 C-6.67 8.68 -6.34 7.36 -6 6 C-3.03 6.495 -3.03 6.495 0 7 C0 4.69 0 2.38 0 0 Z " fill="#3AA4E1" transform="translate(595,883)"/>
<path d="M0 0 C0 0.99 0 1.98 0 3 C-4.51718381 4.36884358 -7.58774263 3.47075246 -12 2 C-12 1.01 -12 0.02 -12 -1 C-7.84708071 -2.43754898 -3.91862041 -1.95931021 0 0 Z " fill="#6EC1EF" transform="translate(709,44)"/>
<path d="M0 0 C0.99 0 1.98 0 3 0 C3.77842938 3.40562852 4.09978121 6.50765756 4 10 C3.4225 10.20625 2.845 10.4125 2.25 10.625 C-0.81410544 12.49750888 -2.15539968 14.96958519 -4 18 C-4.66 17.34 -5.32 16.68 -6 16 C-5.57847656 15.57589844 -5.15695312 15.15179687 -4.72265625 14.71484375 C-0.76753928 10.48054205 0.7628617 7.80988828 1 2 C0.34 1.67 -0.32 1.34 -1 1 C-0.67 0.67 -0.34 0.34 0 0 Z " fill="#32A4E1" transform="translate(712,781)"/>
<path d="M0 0 C0.99 0.66 1.98 1.32 3 2 C3 2.66 3 3.32 3 4 C0.36 3.67 -2.28 3.34 -5 3 C-5.12375 3.598125 -5.2475 4.19625 -5.375 4.8125 C-6 7 -6 7 -8 10 C-8.66 10 -9.32 10 -10 10 C-10 8.68 -10 7.36 -10 6 C-9.34 6 -8.68 6 -8 6 C-7.87625 5.195625 -7.7525 4.39125 -7.625 3.5625 C-7.41875 2.716875 -7.2125 1.87125 -7 1 C-4.47454232 -0.26272884 -2.80127043 -0.20497101 0 0 Z " fill="#3198D7" transform="translate(908,193)"/>
<path d="M0 0 C7.26 0 14.52 0 22 0 C22 0.33 22 0.66 22 1 C14.58851545 2.28297723 7.52719602 3.25515919 0 3 C0 2.01 0 1.02 0 0 Z " fill="#34A1D6" transform="translate(774,105)"/>
<path d="M0 0 C0.375 3.1875 0.375 3.1875 0 7 C-1.81188028 9.1403498 -3.65801167 10.38988302 -6 12 C-7.34027654 7.97917037 -6.75986696 6.89023222 -5 3 C-2.51724138 0 -2.51724138 0 0 0 Z " fill="#41ACEA" transform="translate(713,783)"/>
<path d="M0 0 C0.66 0.33 1.32 0.66 2 1 C2.24849534 3.93703525 2.47448285 6.87286332 2.6875 9.8125 C2.76033203 10.64587891 2.83316406 11.47925781 2.90820312 12.33789062 C2.96298828 13.14033203 3.01777344 13.94277344 3.07421875 14.76953125 C3.13182373 15.50792236 3.18942871 16.24631348 3.2487793 17.00708008 C2.92886446 19.56985222 1.95066193 20.38819592 0 22 C0.03255208 19.98177083 0.06510417 17.96354167 0.09765625 15.9453125 C0.12649242 13.91814596 0.12649242 13.91814596 -1 12 C-0.91219597 9.95501575 -0.75758462 7.91255052 -0.5625 5.875 C-0.46066406 4.77929688 -0.35882812 3.68359375 -0.25390625 2.5546875 C-0.17011719 1.71164062 -0.08632813 0.86859375 0 0 Z " fill="#329FDA" transform="translate(609,523)"/>
<path d="M0 0 C3 1 3 1 4 3 C4.66 2.67 5.32 2.34 6 2 C6.33 3.32 6.66 4.64 7 6 C6.34 6 5.68 6 5 6 C5 6.66 5 7.32 5 8 C3.02 7.34 1.04 6.68 -1 6 C-0.67 4.02 -0.34 2.04 0 0 Z " fill="#369FD8" transform="translate(591,874)"/>
<path d="M0 0 C0.86625 0.4640625 0.86625 0.4640625 1.75 0.9375 C3.91206917 2.06399552 3.91206917 2.06399552 6.0625 2.4375 C8.40586999 3.11783322 9.41902573 4.18187959 11 6 C10.34 6.66 9.68 7.32 9 8 C8.34 7.34 7.68 6.68 7 6 C5.0068433 5.97624074 5.0068433 5.97624074 2.875 6.375 C0.956875 6.684375 0.956875 6.684375 -1 7 C-0.67 6.01 -0.34 5.02 0 4 C-0.33 3.34 -0.66 2.68 -1 2 C-0.67 1.34 -0.34 0.68 0 0 Z " fill="#2D9ED3" transform="translate(753,90)"/>
<path d="M0 0 C0 0.99 0 1.98 0 3 C-0.99 3 -1.98 3 -3 3 C-3.2475 3.598125 -3.495 4.19625 -3.75 4.8125 C-5.19482573 7.34094503 -6.48280545 8.55070617 -9 10 C-9.99 9.67 -10.98 9.34 -12 9 C-4.8 1.6 -4.8 1.6 0 0 Z " fill="#36A0D6" transform="translate(526,38)"/>
<path d="M0 0 C1.98 0.66 3.96 1.32 6 2 C6 2.66 6 3.32 6 4 C7.32 4.33 8.64 4.66 10 5 C9.1875 6.9375 9.1875 6.9375 8 9 C7.01 9.33 6.02 9.66 5 10 C4 7 4 7 5 4 C3.68 4 2.36 4 1 4 C1 3.34 1 2.68 1 2 C0.34 1.67 -0.32 1.34 -1 1 C-0.67 0.67 -0.34 0.34 0 0 Z " fill="#2B9FD6" transform="translate(700,956)"/>
<path d="M0 0 C-0.55704728 3.23087421 -1.33187535 5.02361137 -4 7 C-5.32 7 -6.64 7 -8 7 C-7.25 4.0625 -7.25 4.0625 -6 1 C-3.81903388 0.04582732 -2.35817766 0 0 0 Z " fill="#369DD6" transform="translate(860,626)"/>
<path d="M0 0 C1.06032743 3.18098228 0.9708943 4.36533728 0.3125 7.5625 C0.16425781 8.34753906 0.01601563 9.13257813 -0.13671875 9.94140625 C-1 12 -1 12 -3.08203125 13.27734375 C-3.71496094 13.51582031 -4.34789062 13.75429688 -5 14 C-4.74279326 12.41439607 -4.46861201 10.83154076 -4.1875 9.25 C-3.96126953 7.92742187 -3.96126953 7.92742187 -3.73046875 6.578125 C-2.94585752 3.8089089 -1.85404641 2.1740599 0 0 Z " fill="#2F9CDA" transform="translate(1021,448)"/>
<path d="M0 0 C4.29 0.66 8.58 1.32 13 2 C12.01 3.485 12.01 3.485 11 5 C8.03 4.67 5.06 4.34 2 4 C2 3.34 2 2.68 2 2 C1.34 2 0.68 2 0 2 C0 1.34 0 0.68 0 0 Z " fill="#34A0D6" transform="translate(1063,257)"/>
<path d="M0 0 C0.33 1.65 0.66 3.3 1 5 C-3.29 4.34 -7.58 3.68 -12 3 C-12 2.34 -12 1.68 -12 1 C-10.37512529 0.83211627 -8.75009558 0.66573213 -7.125 0.5 C-6.22007812 0.4071875 -5.31515625 0.314375 -4.3828125 0.21875 C-2 0 -2 0 0 0 Z " fill="#32ACE4" transform="translate(715,49)"/>
<path d="M0 0 C0.66 0 1.32 0 2 0 C2 3.63 2 7.26 2 11 C1.01 11.33 0.02 11.66 -1 12 C-1.02687279 10.18757948 -1.04633715 8.37504767 -1.0625 6.5625 C-1.07410156 5.55316406 -1.08570313 4.54382813 -1.09765625 3.50390625 C-1 1 -1 1 0 0 Z " fill="#359FD5" transform="translate(600,624)"/>
<path d="M0 0 C3.74086417 1.24695472 5.25795253 3.19266568 8 6 C8.9075 6.70125 9.815 7.4025 10.75 8.125 C13 10 13 10 14 13 C10.5442173 11.44166808 7.72724126 9.39989555 4.75 7.0625 C3.85796875 6.37285156 2.9659375 5.68320313 2.046875 4.97265625 C1.37140625 4.32167969 0.6959375 3.67070312 0 3 C0 2.01 0 1.02 0 0 Z " fill="#2F9FDB" transform="translate(1039,239)"/>
<path d="M0 0 C0.598125 0.226875 1.19625 0.45375 1.8125 0.6875 C1.8125 1.6775 1.8125 2.6675 1.8125 3.6875 C0.8225 3.3575 -0.1675 3.0275 -1.1875 2.6875 C-1.8475 4.9975 -2.5075 7.3075 -3.1875 9.6875 C-4.1775 9.3575 -5.1675 9.0275 -6.1875 8.6875 C-5.58623418 3.27610759 -5.58623418 3.27610759 -3.875 0.75 C-2.1875 -0.3125 -2.1875 -0.3125 0 0 Z " fill="#2995D2" transform="translate(1039.1875,367.3125)"/>
<path d="M0 0 C5.68748885 1.25124755 8.72847508 3.04102568 13 7 C12.34 7.66 11.68 8.32 11 9 C10.154375 8.21625 9.30875 7.4325 8.4375 6.625 C5.12074083 3.83068977 2.20395906 2.92487099 -2 2 C-1.34 1.34 -0.68 0.68 0 0 Z " fill="#349CD8" transform="translate(581,419)"/>
<path d="M0 0 C0.66 0.33 1.32 0.66 2 1 C2.46192125 5.92715996 0.8275283 9.50732625 -1 14 C-1.66 14 -2.32 14 -3 14 C-2.69249629 11.85344499 -2.3788634 9.70776715 -2.0625 7.5625 C-1.88847656 6.36753906 -1.71445312 5.17257812 -1.53515625 3.94140625 C-1 1 -1 1 0 0 Z " fill="#2E9BD2" transform="translate(603,566)"/>
<path d="M0 0 C0.66 0 1.32 0 2 0 C2 1.32 2 2.64 2 4 C3.32 4 4.64 4 6 4 C6 4.99 6 5.98 6 7 C4.02 7 2.04 7 0 7 C-0.38133299 5.0085944 -0.71325582 3.00720923 -1 1 C-0.67 0.67 -0.34 0.34 0 0 Z " fill="#34A2D9" transform="translate(698,52)"/>
<path d="M0 0 C3.375 0.3125 3.375 0.3125 7 1 C9 4 9 4 9 8 C8.01 7.67 7.02 7.34 6 7 C6 6.01 6 5.02 6 4 C4.02 3.34 2.04 2.68 0 2 C0 1.34 0 0.68 0 0 Z " fill="#2996C7" transform="translate(687,854)"/>
<path d="M0 0 C0.99 0 1.98 0 3 0 C4.0625 2.375 4.0625 2.375 5 5 C4.67 5.66 4.34 6.32 4 7 C3.01 7 2.02 7 1 7 C1 6.34 1 5.68 1 5 C0.01 5 -0.98 5 -2 5 C-2 4.34 -2 3.68 -2 3 C-1.34 3 -0.68 3 0 3 C0 2.01 0 1.02 0 0 Z " fill="#349ED6" transform="translate(582,850)"/>
<path d="M0 0 C0.33 0.99 0.66 1.98 1 3 C-0.65 3.33 -2.3 3.66 -4 4 C-4.33 4.99 -4.66 5.98 -5 7 C-5.99 6.34 -6.98 5.68 -8 5 C-8.33 5.66 -8.66 6.32 -9 7 C-9.33 6.01 -9.66 5.02 -10 4 C-9.236875 3.71125 -8.47375 3.4225 -7.6875 3.125 C-0.22222222 0 -0.22222222 0 0 0 Z " fill="#43B0E9" transform="translate(645,938)"/>
<path d="M0 0 C0.66 0.99 1.32 1.98 2 3 C1.1875 5.8125 1.1875 5.8125 0 9 C-0.36920191 10.99369031 -0.71325582 12.99279077 -1 15 C-1.66 15 -2.32 15 -3 15 C-2.69052329 13.06201479 -2.37731166 11.12462574 -2.0625 9.1875 C-1.88847656 8.10855469 -1.71445312 7.02960937 -1.53515625 5.91796875 C-1 3 -1 3 0 0 Z " fill="#3197D7" transform="translate(607,549)"/>
<path d="M0 0 C1.485 0.99 1.485 0.99 3 2 C4.485 2.4640625 4.485 2.4640625 6 2.9375 C8.87001217 3.95396265 10.11128681 4.69157276 12 7 C9.17478049 7 7.50090876 6.66083182 4.875 5.75 C3.81925781 5.40195313 3.81925781 5.40195313 2.7421875 5.046875 C1 4 1 4 0.2578125 1.890625 C0.17273438 1.26671875 0.08765625 0.6428125 0 0 Z " fill="#2D95D5" transform="translate(847,123)"/>
<path d="M0 0 C0 0.66 0 1.32 0 2 C2.31 2.33 4.62 2.66 7 3 C7 3.66 7 4.32 7 5 C4.83032311 5.95465783 3.43671207 6.14401212 1.17578125 5.3984375 C-0.5684743 4.64129615 -2.28627131 3.82390802 -4 3 C-4 2.34 -4 1.68 -4 1 C-2 0 -2 0 0 0 Z " fill="#57B5E9" transform="translate(697,44)"/>
<path d="M0 0 C0 0.66 0 1.32 0 2 C-1.65 1.67 -3.3 1.34 -5 1 C-4.67 1.99 -4.34 2.98 -4 4 C-6.91517292 2.92598892 -8.77810176 2.22189824 -11 0 C-6.98195309 -0.84098656 -3.98196457 -1.05404945 0 0 Z " fill="#3794D2" transform="translate(622,943)"/>
<path d="M0 0 C0.66 0.33 1.32 0.66 2 1 C1.67 2.98 1.34 4.96 1 7 C-1.96175123 6.38722388 -3.38058783 5.74627478 -6 4 C-4.02 2.68 -2.04 1.36 0 0 Z " fill="#3398CA" transform="translate(664,929)"/>
<path d="M0 0 C3.36165169 4.08200562 6.62658062 8.25316124 9 13 C4.01693407 10.50846704 2.30160471 9.33553818 0 4 C0 2.68 0 1.36 0 0 Z " fill="#35A0D8" transform="translate(493,334)"/>
<path d="M0 0 C2.67085649 0.91810692 3.75773089 1.55583997 5.125 4.0625 C5.41375 4.701875 5.7025 5.34125 6 6 C6.66 6.33 7.32 6.66 8 7 C7.67 7.99 7.34 8.98 7 10 C4 7 1 4 -2 1 C-1.34 0.67 -0.68 0.34 0 0 Z " fill="#37A0D9" transform="translate(457,280)"/>
<path d="M0 0 C2.75566251 2.75566251 2.45934233 5.21539633 3 9 C3.66 9.66 4.32 10.32 5 11 C4.01 11.495 4.01 11.495 3 12 C1.68 11.34 0.36 10.68 -1 10 C-0.67 6.7 -0.34 3.4 0 0 Z " fill="#33A0DB" transform="translate(443,212)"/>
<path d="M0 0 C0.66 0 1.32 0 2 0 C2 0.66 2 1.32 2 2 C2.66 2 3.32 2 4 2 C2.9441902 4.78349856 1.99481748 6.00409146 -0.375 7.875 C-3 9 -3 9 -5.3125 8.1875 C-5.869375 7.795625 -6.42625 7.40375 -7 7 C-4.69 6.34 -2.38 5.68 0 5 C0 3.35 0 1.7 0 0 Z " fill="#369ED8" transform="translate(894,202)"/>
<path d="M0 0 C0.66 0 1.32 0 2 0 C2 0.66 2 1.32 2 2 C2.66 2.33 3.32 2.66 4 3 C1.24075815 4.80411967 0.11027897 5.0127245 -3.25 4.625 C-4.1575 4.41875 -5.065 4.2125 -6 4 C-6 3.01 -6 2.02 -6 1 C-3.03 1.495 -3.03 1.495 0 2 C0 1.34 0 0.68 0 0 Z " fill="#2F9BD6" transform="translate(640,44)"/>
<path d="M0 0 C0.66 0.99 1.32 1.98 2 3 C1.01 4.98 0.02 6.96 -1 9 C-1.99 8.67 -2.98 8.34 -4 8 C-3.40138258 5.64828869 -2.73075648 3.3140622 -2 1 C-1.34 0.67 -0.68 0.34 0 0 Z " fill="#3A9DD4" transform="translate(652,944)"/>
<path d="M0 0 C5.75 0.875 5.75 0.875 8 2 C8 2.66 8 3.32 8 4 C5.69 4 3.38 4 1 4 C0.67 2.68 0.34 1.36 0 0 Z " fill="#2E9ADA" transform="translate(606,937)"/>
<path d="M0 0 C-2.64 1.98 -5.28 3.96 -8 6 C-8.66 5.67 -9.32 5.34 -10 5 C-9 2 -9 2 -6.6875 0.25 C-4 -1 -4 -1 0 0 Z " fill="#3397DE" transform="translate(558,32)"/>
<path d="M0 0 C0 0.66 0 1.32 0 2 C-3.67410785 3.17571451 -7.16929183 3.07366746 -11 3 C-11.33 2.34 -11.66 1.68 -12 1 C-7.9472484 0.01751476 -4.16138263 -0.08159574 0 0 Z " fill="#31AEE2" transform="translate(621,940)"/>
<path d="M0 0 C2 1 4 2 6 3 C5.67 3.99 5.34 4.98 5 6 C4.01 6 3.02 6 2 6 C1.01 6.495 1.01 6.495 0 7 C0.33 5.68 0.66 4.36 1 3 C0.34 3 -0.32 3 -1 3 C-0.67 2.01 -0.34 1.02 0 0 Z " fill="#2D9FE3" transform="translate(774,660)"/>
<path d="M0 0 C0.66 0.66 1.32 1.32 2 2 C1.04882866 3.1725131 0.08882991 4.33787015 -0.875 5.5 C-1.40867187 6.1496875 -1.94234375 6.799375 -2.4921875 7.46875 C-2.98976563 7.9740625 -3.48734375 8.479375 -4 9 C-4.66 9 -5.32 9 -6 9 C-5.52797514 4.75177626 -3.03344482 2.80010291 0 0 Z " fill="#34A1D7" transform="translate(1050,359)"/>
<path d="M0 0 C0.33 0.66 0.66 1.32 1 2 C1.99 2.33 2.98 2.66 4 3 C3.67 3.99 3.34 4.98 3 6 C1.35 5.67 -0.3 5.34 -2 5 C-1.34 3.35 -0.68 1.7 0 0 Z " fill="#2AA5E4" transform="translate(681,972)"/>
<path d="M0 0 C1.98 0 3.96 0 6 0 C6.33 1.65 6.66 3.3 7 5 C6.01 5.495 6.01 5.495 5 6 C4.67 4.35 4.34 2.7 4 1 C3.34 1 2.68 1 2 1 C2 1.66 2 2.32 2 3 C1.01 3 0.02 3 -1 3 C-0.67 2.01 -0.34 1.02 0 0 Z " fill="#2997E0" transform="translate(594,870)"/>
<path d="M0 0 C1.98 0.99 1.98 0.99 4 2 C3.67 4.97 3.34 7.94 3 11 C2.67 11 2.34 11 2 11 C0.80712589 7.12315913 0 4.08378077 0 0 Z " fill="#2790CB" transform="translate(788,674)"/>
<path d="M0 0 C-1.65 1.65 -3.3 3.3 -5 5 C-5.66 4.67 -6.32 4.34 -7 4 C-7 3.01 -7 2.02 -7 1 C-3.375 -1.125 -3.375 -1.125 0 0 Z " fill="#369FEA" transform="translate(882,180)"/>
<path d="M0 0 C2.31 0 4.62 0 7 0 C6.67 1.32 6.34 2.64 6 4 C4.02 4 2.04 4 0 4 C0 2.68 0 1.36 0 0 Z " fill="#39B2F0" transform="translate(639,961)"/>
<path d="M0 0 C3.41099168 0 6.63088314 0.49145406 10 1 C6.73454239 2.88391785 3.71888239 3.49287967 0 4 C0 2.68 0 1.36 0 0 Z " fill="#277FDC" transform="translate(744,924)"/>
<path d="M0 0 C0 0.99 0 1.98 0 3 C-4.22222222 6 -4.22222222 6 -7 6 C-6.75 4.125 -6.75 4.125 -6 2 C-3.85331506 0.61504198 -2.56128588 0 0 0 Z " fill="#31A3DF" transform="translate(970,218)"/>
<path d="M0 0 C2.475 0.99 2.475 0.99 5 2 C4.40072174 5.35595828 3.15377564 7.37801226 1 10 C1.33 7.36 1.66 4.72 2 2 C1.34 2 0.68 2 0 2 C0 1.34 0 0.68 0 0 Z " fill="#2D9BD0" transform="translate(897,188)"/>
<path d="M0 0 C0.33 1.32 0.66 2.64 1 4 C-0.98 5.32 -2.96 6.64 -5 8 C-5.66 7.34 -6.32 6.68 -7 6 C-2.25 2 -2.25 2 0 2 C0 1.34 0 0.68 0 0 Z " fill="#2E94D6" transform="translate(579,26)"/>
<path d="M0 0 C2.38564077 0.57584432 4.66682784 1.22227595 7 2 C6.67 2.99 6.34 3.98 6 5 C5.01 5 4.02 5 3 5 C2.67 4.34 2.34 3.68 2 3 C1.01 3.495 1.01 3.495 0 4 C0 2.68 0 1.36 0 0 Z " fill="#2F9ADC" transform="translate(642,954)"/>
<path d="M0 0 C0.99 0 1.98 0 3 0 C3 0.99 3 1.98 3 3 C3.66 3 4.32 3 5 3 C4.67 3.99 4.34 4.98 4 6 C2.68 5.34 1.36 4.68 0 4 C0 2.68 0 1.36 0 0 Z " fill="#30AFE0" transform="translate(777,915)"/>
<path d="M0 0 C0.125 2.875 0.125 2.875 0 6 C-0.66 6.66 -1.32 7.32 -2 8 C-4 5 -4 5 -4 2 C-1 0 -1 0 0 0 Z " fill="#35ADE4" transform="translate(609,909)"/>
<path d="M0 0 C1.1725131 0.95117134 2.33787015 1.91117009 3.5 2.875 C4.47453125 3.67550781 4.47453125 3.67550781 5.46875 4.4921875 C5.9740625 4.98976563 6.479375 5.48734375 7 6 C7 6.66 7 7.32 7 8 C4.13792848 6.71700242 1.9754912 5.469364 0 3 C0 2.01 0 1.02 0 0 Z " fill="#2A95CF" transform="translate(661,913)"/>
<path d="M0 0 C0.99 0.33 1.98 0.66 3 1 C2.0479279 2.00596297 1.08812654 3.00461563 0.125 4 C-0.40867187 4.556875 -0.94234375 5.11375 -1.4921875 5.6875 C-3 7 -3 7 -5 7 C-3.70700306 4.11562221 -2.34058637 2.12780579 0 0 Z " fill="#2F9FD0" transform="translate(692,870)"/>
<path d="M0 0 C6.875 3.75 6.875 3.75 8 6 C4.62537285 5.45276317 2.91765 4.9451 0 3 C0 2.01 0 1.02 0 0 Z " fill="#2F9DDB" transform="translate(779,668)"/>
<path d="M0 0 C0.99 0 1.98 0 3 0 C3 0.66 3 1.32 3 2 C3.66 2 4.32 2 5 2 C5 2.66 5 3.32 5 4 C3.02 4 1.04 4 -1 4 C-0.67 2.68 -0.34 1.36 0 0 Z " fill="#2991CE" transform="translate(589,889)"/>
<path d="M0 0 C0 0.33 0 0.66 0 1 C-1.98 1 -3.96 1 -6 1 C-6 1.99 -6 2.98 -6 4 C-6.99 4 -7.98 4 -9 4 C-8.625 2.0625 -8.625 2.0625 -8 0 C-5.13822943 -1.43088528 -3.06624227 -0.59991697 0 0 Z " fill="#399FD4" transform="translate(777,921)"/>
<path d="M0 0 C3.14624993 -0.26218749 4.61837017 -0.24754367 7.3125 1.5 C8.1478125 2.2425 8.1478125 2.2425 9 3 C6.36 2.67 3.72 2.34 1 2 C0.67 2.66 0.34 3.32 0 4 C0 2.68 0 1.36 0 0 Z " fill="#2498D3" transform="translate(765,914)"/>
<path d="M0 0 C-1.45255699 3.82946843 -3.42895561 5.12050295 -7 7 C-4.60526316 0 -4.60526316 0 0 0 Z " fill="#359DD4" transform="translate(923,521)"/>
<path d="M0 0 C2.475 0.495 2.475 0.495 5 1 C5 1.99 5 2.98 5 4 C3.35 4.33 1.7 4.66 0 5 C0 3.35 0 1.7 0 0 Z " fill="#5CBFF0" transform="translate(704,43)"/>
<path d="M0 0 C1.78409802 3.06246747 2.22880021 5.22079273 2.125 8.75 C2.10695313 9.54921875 2.08890625 10.3484375 2.0703125 11.171875 C2.04710937 11.77515625 2.02390625 12.3784375 2 13 C1.67 13 1.34 13 1 13 C-1.42857143 4.57142857 -1.42857143 4.57142857 0 0 Z " fill="#1CA1D5" transform="translate(901,554)"/>
<path d="" fill="#00FFFF" transform="translate(0,0)"/>
</svg>
